STARTFONT 2.1
COMMENT
COMMENT Converted from OpenType font "Q:\font stuff\winfont\Athletic.ttf" by "otf2bdf 3.0".
COMMENT
FONT -FreeType-Athletic-Medium-R-Normal--96-960-72-72-P-119-ISO10646-1
SIZE 96 72 72
FONTBOUNDINGBOX 98 108 -16 -11
STARTPROPERTIES 19
FOUNDRY "FreeType"
FAMILY_NAME "Athletic"
WEIGHT_NAME "Medium"
SLANT "R"
SETWIDTH_NAME "Normal"
ADD_STYLE_NAME ""
PIXEL_SIZE 96
POINT_SIZE 960
RESOLUTION_X 72
RESOLUTION_Y 72
SPACING "P"
AVERAGE_WIDTH 119
CHARSET_REGISTRY "ISO10646"
CHARSET_ENCODING "1"
FONT_ASCENT 96
FONT_DESCENT 10
COPYRIGHT " "
_OTF_FONTFILE "Q:\font stuff\winfont\Athletic.ttf"
_OTF_PSNAME "Athletic"
ENDPROPERTIES
CHARS 394
STARTCHAR 0020
ENCODING 32
SWIDTH 31 0
DWIDTH 3 0
BBX 0 0 0 0
BITMAP
ENDCHAR
STARTCHAR 0021
ENCODING 33
SWIDTH 229 0
DWIDTH 22 0
BBX 27 90 -2 6
BITMAP
FFFF8000
FFFFFFE0
FFFFFFE0
FFFFFFE0
FFFFFFE0
FFFFFFE0
FFFFFFC0
FFFFFFC0
FFFFFFC0
FFFFFFC0
FFFFFFC0
7FFFFFC0
7FFFFFC0
7FFFFFC0
7FFFFFC0
7FFFFFC0
7FFFFFC0
7FFFFFC0
7FFFFF80
7FFFFF80
7FFFFF80
7FFFFF80
3FFFFF80
3FFFFF80
3FFFFF80
3FFFFF80
3FFFFF80
3FFFFF80
3FFFFF80
3FFFFF00
3FFFFF00
3FFFFF00
3FFFFF00
3FFFFF00
1FFFFF00
1FFFFF00
1FFFFF00
1FFFFF00
1FFFFF00
1FFFFF00
1FFFFE00
1FFFFE00
1FFFFE00
1FFFFE00
1FFFFE00
1FFFFE00
0FFFFE00
0FFFFE00
0FFFFE00
0FFFFE00
0FFFFE00
0FFFFE00
0FFFFC00
0FFFFC00
0FFFFC00
0FFFFC00
0FFFFC00
07FFFC00
07FFFC00
07FFFC00
07FFFC00
00000000
00000000
00000000
00000000
00000000
00000000
00000000
1FFFFE00
1FFFFE00
1FFFFE00
1FFFFE00
1FFFFE00
1FFFFE00
1FFFFE00
1FFFFE00
1FFFFE00
1FFFFE00
1FFFFE00
1FFFFE00
1FFFFE00
1FFFFE00
1FFFFE00
1FFFFE00
1FFFFE00
1FFFFE00
1FFFFE00
1FFFFE00
1FFFFE00
1FFFFE00
ENDCHAR
STARTCHAR 0022
ENCODING 34
SWIDTH 31 0
DWIDTH 3 0
BBX 27 19 -10 78
BITMAP
FFE0FFE0
FFE07FE0
FFE07FE0
FFE07FE0
7FC07FE0
7FC07FE0
7FC07FC0
7FC03FC0
7FC03FC0
7FC03FC0
7F803FC0
3F803FC0
3F803FC0
3F801F80
3F801F80
3F801F80
3F001F80
1F001F80
1F001F80
ENDCHAR
STARTCHAR 0023
ENCODING 35
SWIDTH 291 0
DWIDTH 28 0
BBX 50 41 -8 55
BITMAP
0000FF003FC000
0000FF007FC000
0000FF007FC000
0000FF007F8000
0001FF007F8000
0001FE007F8000
0001FE00FF8000
0001FE00FF8000
0FFFFFFFFFFFC0
0FFFFFFFFFFF80
0FFFFFFFFFFF80
0FFFFFFFFFFF80
1FFFFFFFFFFF80
1FFFFFFFFFFF00
1FFFFFFFFFFF00
1FFFFFFFFFFF00
0007F801FE0000
0007F803FE0000
0007F803FC0000
000FF003FC0000
000FF003FC0000
000FF003FC0000
000FF007F80000
001FF007F80000
001FF007F80000
7FFFFFFFFFFC00
7FFFFFFFFFFC00
7FFFFFFFFFFC00
7FFFFFFFFFFC00
FFFFFFFFFFF800
FFFFFFFFFFF800
FFFFFFFFFFF800
FFFFFFFFFFF800
003FC01FE00000
007FC01FE00000
007F801FE00000
007F803FE00000
007F803FE00000
00FF803FC00000
00FF803FC00000
00FF003FC00000
ENDCHAR
STARTCHAR 0024
ENCODING 36
SWIDTH 479 0
DWIDTH 46 0
BBX 46 90 0 5
BITMAP
0000FFF00000
0000FFF00000
0000FFF00000
0000FFF00000
0000FFF00000
0000FFF00000
0000FFF00000
0000FFF00000
003FFFFFC000
007FFFFFE000
00FFFFFFF000
01FFFFFFF800
01FFFFFFFC00
03FFFFFFFF00
07FFFFFFFF80
0FFFFFFFFFC0
1FFFFFFFFFE0
3FFFFFFFFFF0
7FFFFFFFFFF8
7FFFFFFFFFF8
FFFFFFFFFFF8
FFFFFFFFFFF8
FFFF000FFFF8
FFFF000FFFF8
FFFF000FFFF8
FFFF000FFFF8
FFFF00000000
FFFF00000000
FFFF00000000
FFFF00000000
FFFF00000000
FFFF00000000
FFFF00000000
FFFF00000000
FFFFFFFFE000
FFFFFFFFF000
FFFFFFFFF800
FFFFFFFFFC00
FFFFFFFFFE00
FFFFFFFFFF00
FFFFFFFFFF80
FFFFFFFFFFC0
FFFFFFFFFFE0
FFFFFFFFFFF0
7FFFFFFFFFF8
3FFFFFFFFFFC
1FFFFFFFFFFC
0FFFFFFFFFFC
0FFFFFFFFFFC
07FFFFFFFFFC
03FFFFFFFFFC
01FFFFFFFFFC
0000000FFFFC
0000000FFFFC
0000000FFFFC
0000000FFFFC
0000000FFFFC
0000000FFFFC
0000000FFFFC
0000000FFFFC
7FFF000FFFFC
7FFF000FFFFC
7FFF000FFFFC
7FFF000FFFFC
7FFF000FFFFC
7FFF000FFFFC
7FFFFFFFFFFC
7FFFFFFFFFFC
7FFFFFFFFFFC
7FFFFFFFFFFC
7FFFFFFFFFF8
7FFFFFFFFFF0
3FFFFFFFFFE0
1FFFFFFFFFC0
0FFFFFFFFF80
07FFFFFFFF00
07FFFFFFFE00
03FFFFFFFC00
01FFFFFFF800
00FFFFFFF000
007FFFFFE000
003FFFFFE000
003FFFFFC000
0000FFF00000
0000FFF00000
0000FFF00000
0000FFF00000
0000FFF00000
0000FFF00000
0000FFF00000
ENDCHAR
STARTCHAR 0025
ENCODING 37
SWIDTH 854 0
DWIDTH 82 0
BBX 81 90 1 5
BITMAP
007FFF0000000007FFFF80
00FFFF000000000FFFFF00
01FFFF800000001FFFFE00
03FFFFC00000001FFFFE00
07FFFFE00000003FFFFC00
0FFFFFF00000007FFFF800
0FFFFFF0000000FFFFF800
1FFFFFF8000000FFFFF000
3FFFFFFC000001FFFFE000
7FFFFFFE000003FFFFE000
FFFFFFFF000003FFFFC000
FFFFFFFF000007FFFF8000
FFFFFFFF00000FFFFF8000
FFFC0FFF00000FFFFF0000
FFF807FF00001FFFFE0000
FFF007FF00003FFFFE0000
FFF007FF00003FFFFC0000
FFF007FF00007FFFF80000
FFF007FF0000FFFFF80000
FFF007FF0000FFFFF00000
FFF007FF0001FFFFE00000
FFF007FF0003FFFFE00000
FFF007FF0003FFFFC00000
FFF007FF0007FFFF800000
FFF807FF000FFFFF800000
FFFC0FFF000FFFFF000000
FFFFFFFF001FFFFE000000
FFFFFFFF003FFFFC000000
FFFFFFFE003FFFFC000000
7FFFFFFE007FFFF8000000
7FFFFFFC00FFFFF0000000
3FFFFFF800FFFFF0000000
1FFFFFF001FFFFE0000000
0FFFFFF003FFFFC0000000
07FFFFE003FFFFC0000000
03FFFFC007FFFF80000000
01FFFFC00FFFFF00000000
00FFFF800FFFFF00000000
007FFF001FFFFE00000000
000000003FFFFC00000000
000000003FFFFC00000000
000000007FFFF800000000
00000000FFFFF000000000
00000000FFFFF000000000
00000001FFFFE000000000
00000003FFFFC000000000
00000003FFFFC000000000
00000007FFFF8000000000
0000000FFFFF0000000000
0000000FFFFF0000000000
0000001FFFFE0000000000
0000003FFFFC00FFFF0000
0000003FFFFC01FFFF8000
0000007FFFF801FFFFC000
000000FFFFF003FFFFC000
000000FFFFF007FFFFE000
000001FFFFE007FFFFF000
000003FFFFC00FFFFFF800
000003FFFFC01FFFFFFC00
000007FFFF801FFFFFFE00
00000FFFFF003FFFFFFF00
00000FFFFE007FFFFFFF00
00001FFFFE007FFFFFFF80
00003FFFFC007FFFFFFF80
00007FFFF8007FFFFFFF80
00007FFFF8007FFC0FFF80
0000FFFFF0007FF807FF80
0001FFFFE0007FF003FF80
0001FFFFE0007FF003FF80
0003FFFFC0007FF003FF80
0007FFFF80007FF003FF80
0007FFFF80007FF003FF80
000FFFFF00007FF003FF80
001FFFFE00007FF003FF80
001FFFFE00007FF003FF80
003FFFFC00007FF003FF80
007FFFF800007FF807FF80
007FFFF000007FFC0FFF80
00FFFFF000007FFFFFFF80
01FFFFE000007FFFFFFF00
01FFFFC000007FFFFFFF00
03FFFFC000003FFFFFFE00
07FFFF8000001FFFFFFC00
07FFFF0000000FFFFFF800
0FFFFF0000000FFFFFF800
1FFFFE00000007FFFFF000
1FFFFC00000003FFFFE000
3FFFFC00000001FFFFC000
7FFFF800000000FFFFC000
7FFFF0000000007FFF8000
ENDCHAR
STARTCHAR 0026
ENCODING 38
SWIDTH 500 0
DWIDTH 48 0
BBX 0 0 0 0
BITMAP
ENDCHAR
STARTCHAR 0027
ENCODING 39
SWIDTH 500 0
DWIDTH 48 0
BBX 0 0 0 0
BITMAP
ENDCHAR
STARTCHAR 0028
ENCODING 40
SWIDTH 500 0
DWIDTH 48 0
BBX 0 0 0 0
BITMAP
ENDCHAR
STARTCHAR 0029
ENCODING 41
SWIDTH 500 0
DWIDTH 48 0
BBX 0 0 0 0
BITMAP
ENDCHAR
STARTCHAR 002A
ENCODING 42
SWIDTH 31 0
DWIDTH 3 0
BBX 30 28 -11 69
BITMAP
00C01C00
01E01E00
07F03F80
03F03F00
03F87E00
01F87E00
00FCFC00
00FDFC00
007FF800
007FF000
003FF000
FFFFFFFC
FFFFFFFC
FFFFFFFC
FFFFFFFC
FFFFFFFC
FFFFFFFC
003FF000
007FF800
00FFF800
00FCFC00
01FCFC00
01F87E00
03F07F00
03F03F00
03E01F00
01E01C00
00400800
ENDCHAR
STARTCHAR 002B
ENCODING 43
SWIDTH 500 0
DWIDTH 48 0
BBX 0 0 0 0
BITMAP
ENDCHAR
STARTCHAR 002C
ENCODING 44
SWIDTH 187 0
DWIDTH 18 0
BBX 17 29 0 -11
BITMAP
FFFF80
FFFF80
FFFF00
FFFF00
FFFF00
FFFF00
FFFF00
FFFE00
FFFE00
FFFE00
FFFE00
FFFE00
FFFC00
FFFC00
FFFC00
FFFC00
FFFC00
FFF800
FFF800
FFF800
FFF800
FFF000
FFF000
FFF000
FFF000
FFF000
FFE000
FFE000
FFE000
ENDCHAR
STARTCHAR 002D
ENCODING 45
SWIDTH 500 0
DWIDTH 48 0
BBX 0 0 0 0
BITMAP
ENDCHAR
STARTCHAR 002E
ENCODING 46
SWIDTH 218 0
DWIDTH 21 0
BBX 18 21 1 6
BITMAP
FFFFC0
FFFFC0
FFFFC0
FFFFC0
FFFFC0
FFFFC0
FFFFC0
FFFFC0
FFFFC0
FFFFC0
FFFFC0
FFFFC0
FFFFC0
FFFFC0
FFFFC0
FFFFC0
FFFFC0
FFFFC0
FFFFC0
FFFFC0
FFFFC0
ENDCHAR
STARTCHAR 002F
ENCODING 47
SWIDTH 479 0
DWIDTH 46 0
BBX 62 91 0 6
BITMAP
00000000000FFFFC
00000000000FFFFC
00000000001FFFF8
00000000001FFFF8
00000000003FFFF0
00000000003FFFF0
00000000007FFFE0
00000000007FFFE0
0000000000FFFFE0
0000000000FFFFC0
0000000001FFFFC0
0000000001FFFF80
0000000003FFFF80
0000000003FFFF00
0000000007FFFF00
0000000007FFFE00
000000000FFFFE00
000000000FFFFC00
000000001FFFFC00
000000001FFFF800
000000003FFFF800
000000003FFFF000
000000007FFFF000
000000007FFFE000
00000000FFFFE000
00000000FFFFC000
00000001FFFFC000
00000001FFFF8000
00000003FFFF8000
00000003FFFF0000
00000007FFFF0000
00000007FFFE0000
0000000FFFFE0000
0000000FFFFC0000
0000001FFFFC0000
0000001FFFF80000
0000003FFFF80000
0000003FFFF00000
0000007FFFF00000
0000007FFFE00000
000000FFFFE00000
000000FFFFC00000
000001FFFFC00000
000001FFFFC00000
000001FFFF800000
000003FFFF800000
000003FFFF000000
000007FFFF000000
000007FFFE000000
00000FFFFE000000
00000FFFFC000000
00001FFFFC000000
00001FFFF8000000
00003FFFF8000000
00003FFFF0000000
00007FFFF0000000
00007FFFE0000000
0000FFFFE0000000
0000FFFFC0000000
0001FFFFC0000000
0001FFFF80000000
0003FFFF80000000
0003FFFF00000000
0007FFFF00000000
0007FFFE00000000
000FFFFE00000000
000FFFFC00000000
001FFFFC00000000
001FFFF800000000
003FFFF800000000
003FFFF000000000
003FFFF000000000
007FFFE000000000
007FFFE000000000
00FFFFC000000000
00FFFFC000000000
01FFFFC000000000
01FFFF8000000000
03FFFF8000000000
03FFFF0000000000
07FFFF0000000000
07FFFE0000000000
0FFFFE0000000000
0FFFFC0000000000
1FFFFC0000000000
1FFFF80000000000
3FFFF80000000000
3FFFF00000000000
7FFFF00000000000
7FFFE00000000000
FFFFE00000000000
ENDCHAR
STARTCHAR 0030
ENCODING 48
SWIDTH 572 0
DWIDTH 55 0
BBX 54 89 0 6
BITMAP
001FFFFFFFE000
001FFFFFFFF000
003FFFFFFFF000
007FFFFFFFF800
00FFFFFFFFFC00
01FFFFFFFFFE00
01FFFFFFFFFF00
03FFFFFFFFFF80
07FFFFFFFFFF80
0FFFFFFFFFFFC0
1FFFFFFFFFFFE0
3FFFFFFFFFFFF0
3FFFFFFFFFFFF8
7FFFFFFFFFFFF8
FFFFFFFFFFFFFC
FFFFFFFFFFFFFC
FFFFFFFFFFFFFC
FFFFFC007FFFFC
FFFFF8003FFFFC
FFFFE0001FFFFC
FFFFC0000FFFFC
FFFFC00007FFFC
FFFFC00007FFFC
FFFFC00007FFFC
FFFFC00007FFFC
FFFFC00007FFFC
FFFFC00007FFFC
FFFFC00007FFFC
FFFFC00007FFFC
FFFFC00007FFFC
FFFFC00007FFFC
FFFFC00007FFFC
FFFFC00007FFFC
FFFFC00007FFFC
FFFFC00007FFFC
FFFFC00007FFFC
FFFFC00007FFFC
FFFFC00007FFFC
FFFFC00007FFFC
FFFFC00007FFFC
FFFFC00007FFFC
FFFFC00007FFFC
FFFFC00007FFFC
FFFFC00007FFFC
FFFFC00007FFFC
FFFFC00007FFFC
FFFFC00007FFFC
FFFFC00007FFFC
FFFFC00007FFFC
FFFFC00007FFFC
FFFFC00007FFFC
FFFFC00007FFFC
FFFFC00007FFFC
FFFFC00007FFFC
FFFFC00007FFFC
FFFFC00007FFFC
FFFFC00007FFFC
FFFFC00007FFFC
FFFFC00007FFFC
FFFFC00007FFFC
FFFFC00007FFFC
FFFFC00007FFFC
FFFFC00007FFFC
FFFFC00007FFFC
FFFFC00007FFFC
FFFFC00007FFFC
FFFFC00007FFFC
FFFFC00007FFFC
FFFFC00007FFFC
FFFFE0000FFFFC
FFFFF0001FFFFC
FFFFF8003FFFFC
FFFFFC003FFFFC
FFFFFC007FFFFC
FFFFFFFFFFFFFC
7FFFFFFFFFFFF8
3FFFFFFFFFFFF8
1FFFFFFFFFFFF0
1FFFFFFFFFFFE0
0FFFFFFFFFFFC0
07FFFFFFFFFF80
03FFFFFFFFFF80
03FFFFFFFFFF00
01FFFFFFFFFE00
00FFFFFFFFFC00
007FFFFFFFF800
003FFFFFFFF800
003FFFFFFFF000
001FFFFFFFE000
ENDCHAR
STARTCHAR 0031
ENCODING 49
SWIDTH 322 0
DWIDTH 31 0
BBX 31 91 -1 6
BITMAP
01FFFFC0
01FFFFC0
03FFFFC0
07FFFFC0
0FFFFFC0
0FFFFFC0
1FFFFFC0
3FFFFFC0
7FFFFFC0
7FFFFFC0
FFFFFFC0
FFFFFFC0
FFFFFFC0
FFFFFFC0
FFFFFFC0
FFFFFFC0
FFFFFFC0
FFFFFFC0
FFFFFFC0
FFFFFFC0
FFFFFFC0
FFFFFFC0
FFFFFFC0
01FFFFC0
01FFFFC0
01FFFFC0
01FFFFC0
01FFFFC0
01FFFFC0
01FFFFC0
01FFFFC0
01FFFFC0
01FFFFC0
01FFFFC0
01FFFFC0
01FFFFC0
01FFFFC0
01FFFFC0
01FFFFC0
01FFFFC0
01FFFFC0
01FFFFC0
01FFFFC0
01FFFFC0
01FFFFC0
01FFFFC0
01FFFFC0
01FFFFC0
01FFFFC0
01FFFFC0
01FFFFC0
01FFFFC0
01FFFFC0
01FFFFC0
01FFFFC0
01FFFFC0
01FFFFC0
01FFFFC0
01FFFFC0
01FFFFC0
01FFFFC0
01FFFFC0
01FFFFC0
01FFFFC0
01FFFFC0
01FFFFC0
01FFFFC0
01FFFFC0
01FFFFC0
3FFFFFFE
3FFFFFFE
3FFFFFFE
3FFFFFFE
3FFFFFFE
3FFFFFFE
3FFFFFFE
3FFFFFFE
3FFFFFFE
3FFFFFFE
3FFFFFFE
3FFFFFFE
3FFFFFFE
3FFFFFFE
3FFFFFFE
3FFFFFFE
3FFFFFFE
3FFFFFFE
3FFFFFFE
3FFFFFFE
3FFFFFFE
3FFFFFFE
ENDCHAR
STARTCHAR 0032
ENCODING 50
SWIDTH 572 0
DWIDTH 55 0
BBX 55 90 -1 5
BITMAP
0007FFFFFFC000
000FFFFFFFE000
000FFFFFFFF000
001FFFFFFFF800
003FFFFFFFF800
007FFFFFFFFC00
00FFFFFFFFFE00
01FFFFFFFFFF00
03FFFFFFFFFF80
07FFFFFFFFFF80
07FFFFFFFFFFC0
0FFFFFFFFFFFE0
1FFFFFFFFFFFF0
3FFFFFFFFFFFF8
7FFFFFFFFFFFF8
FFFFFFFFFFFFFC
FFFFFFFFFFFFFC
FFFFFFFFFFFFFC
FFFFFFFFFFFFFC
FFFFFFFFFFFFFC
FFFFFE03FFFFFC
FFFFF800FFFFFC
FFFFF0007FFFFC
FFFFE0003FFFFC
FFFFE0003FFFFC
FFFFE0003FFFFC
FFFFE0003FFFFC
FFFFE0003FFFFC
FFFFE0003FFFFC
FFFFE0003FFFFC
FFFFE0003FFFFC
000000003FFFFC
000000003FFFFC
000000003FFFFC
000000007FFFFC
00000000FFFFFC
00000001FFFFFC
00000003FFFFFC
00000007FFFFFC
0000000FFFFFFC
0000001FFFFFFC
0000003FFFFFF8
0000007FFFFFF8
000000FFFFFFF0
000001FFFFFFE0
000003FFFFFFC0
000007FFFFFF80
00000FFFFFFF00
00000FFFFFFE00
00001FFFFFFC00
00003FFFFFFC00
00007FFFFFF800
0000FFFFFFF000
0001FFFFFFE000
0003FFFFFFC000
0007FFFFFF8000
000FFFFFFF0000
001FFFFFFF0000
003FFFFFFE0000
007FFFFFFC0000
00FFFFFFF80000
01FFFFFFF00000
03FFFFFFE00000
07FFFFFFC00000
0FFFFFFF800000
1FFFFFFF800000
3FFFFFFF000000
3FFFFFFE000000
7FFFFFFFFFFFFE
7FFFFFFFFFFFFE
7FFFFFFFFFFFFE
7FFFFFFFFFFFFE
7FFFFFFFFFFFFE
7FFFFFFFFFFFFE
7FFFFFFFFFFFFE
7FFFFFFFFFFFFE
7FFFFFFFFFFFFE
7FFFFFFFFFFFFE
7FFFFFFFFFFFFE
7FFFFFFFFFFFFE
7FFFFFFFFFFFFE
7FFFFFFFFFFFFE
7FFFFFFFFFFFFE
7FFFFFFFFFFFFE
7FFFFFFFFFFFFE
7FFFFFFFFFFFFE
7FFFFFFFFFFFFE
7FFFFFFFFFFFFE
7FFFFFFFFFFFFE
7FFFFFFFFFFFFE
ENDCHAR
STARTCHAR 0033
ENCODING 51
SWIDTH 572 0
DWIDTH 55 0
BBX 54 90 0 5
BITMAP
0007FFFFFFC000
000FFFFFFFE000
001FFFFFFFF000
001FFFFFFFF800
003FFFFFFFF800
007FFFFFFFFC00
00FFFFFFFFFE00
01FFFFFFFFFF00
03FFFFFFFFFF80
07FFFFFFFFFFC0
0FFFFFFFFFFFC0
1FFFFFFFFFFFE0
3FFFFFFFFFFFF0
7FFFFFFFFFFFF8
FFFFFFFFFFFFFC
FFFFFFFFFFFFFC
FFFFFFFFFFFFFC
FFFFFFFFFFFFFC
FFFFFFFFFFFFFC
FFFFFFFFFFFFFC
FFFFFC01FFFFFC
FFFFF800FFFFFC
FFFFF0007FFFFC
FFFFE0003FFFFC
FFFFE0003FFFFC
FFFFE0003FFFFC
FFFFE0003FFFFC
FFFFE0003FFFFC
FFFFE0003FFFFC
FFFFE0003FFFFC
000000003FFFFC
000000003FFFFC
000000003FFFFC
000000007FFFFC
00000000FFFFFC
00000001FFFFFC
000003FFFFFFFC
000003FFFFFFFC
000003FFFFFFF0
000003FFFFFFE0
000003FFFFFF80
000003FFFFFF00
000003FFFFFF80
000003FFFFFFE0
000003FFFFFFF0
000003FFFFFFFC
000003FFFFFFFC
000003FFFFFFFC
000003FFFFFFFC
000003FFFFFFFC
000003FFFFFFFC
00000001FFFFFC
00000000FFFFFC
000000007FFFFC
000000003FFFFC
000000003FFFFC
000000003FFFFC
000000003FFFFC
000000003FFFFC
000000003FFFFC
FFFFE0003FFFFC
FFFFE0003FFFFC
FFFFE0003FFFFC
FFFFE0003FFFFC
FFFFE0003FFFFC
FFFFE0003FFFFC
FFFFE0003FFFFC
FFFFF0007FFFFC
FFFFF800FFFFFC
FFFFFC01FFFFFC
FFFFFFFFFFFFFC
FFFFFFFFFFFFFC
FFFFFFFFFFFFFC
FFFFFFFFFFFFFC
FFFFFFFFFFFFFC
7FFFFFFFFFFFF8
3FFFFFFFFFFFF8
1FFFFFFFFFFFF0
0FFFFFFFFFFFE0
0FFFFFFFFFFFC0
07FFFFFFFFFF80
03FFFFFFFFFF80
01FFFFFFFFFF00
00FFFFFFFFFE00
007FFFFFFFFC00
003FFFFFFFFC00
001FFFFFFFF800
001FFFFFFFF000
000FFFFFFFE000
0007FFFFFFC000
ENDCHAR
STARTCHAR 0034
ENCODING 52
SWIDTH 687 0
DWIDTH 66 0
BBX 65 90 0 6
BITMAP
00000000FFFFFF8000
00000000FFFFFF8000
00000001FFFFFF8000
00000003FFFFFF8000
00000007FFFFFF8000
00000007FFFFFF8000
0000000FFFFFFF8000
0000001FFFFFFF8000
0000001FFFFFFF8000
0000003FFFFFFF8000
0000007FFFFFFF8000
000000FFFFFFFF8000
000000FFFFFFFF8000
000001FFFFFFFF8000
000003FFFFFFFF8000
000003FFFFFFFF8000
000007FFFFFFFF8000
00000FFFFFFFFF8000
00001FFFFFFFFF8000
00001FFFFFFFFF8000
00003FFFFBFFFF8000
00007FFFF3FFFF8000
00007FFFF3FFFF8000
0000FFFFE3FFFF8000
0001FFFFC3FFFF8000
0003FFFFC3FFFF8000
0003FFFF83FFFF8000
0007FFFF03FFFF8000
000FFFFE03FFFF8000
000FFFFE03FFFF8000
001FFFFC03FFFF8000
003FFFF803FFFF8000
007FFFF803FFFF8000
007FFFF003FFFF8000
00FFFFE003FFFF8000
01FFFFC003FFFF8000
01FFFFC003FFFF8000
03FFFF8003FFFF8000
07FFFF0003FFFF8000
0FFFFF0003FFFF8000
0FFFFE0003FFFF8000
1FFFFC0003FFFF8000
3FFFFC0003FFFF8000
3FFFF80003FFFF8000
7FFFF00003FFFF8000
FFFFE00003FFFF8000
FFFFFFFFFFFFFFFF80
FFFFFFFFFFFFFFFF80
FFFFFFFFFFFFFFFF80
FFFFFFFFFFFFFFFF80
FFFFFFFFFFFFFFFF80
FFFFFFFFFFFFFFFF80
FFFFFFFFFFFFFFFF80
FFFFFFFFFFFFFFFF80
FFFFFFFFFFFFFFFF80
FFFFFFFFFFFFFFFF80
FFFFFFFFFFFFFFFF80
FFFFFFFFFFFFFFFF80
FFFFFFFFFFFFFFFF80
FFFFFFFFFFFFFFFF80
FFFFFFFFFFFFFFFF80
0000000003FFFF8000
0000000003FFFF8000
0000000003FFFF8000
0000000003FFFF8000
0000000003FFFF8000
0000000003FFFF8000
0000000003FFFF8000
000000007FFFFFFC00
000000007FFFFFFC00
000000007FFFFFFC00
000000007FFFFFFC00
000000007FFFFFFC00
000000007FFFFFFC00
000000007FFFFFFC00
000000007FFFFFFC00
000000007FFFFFFC00
000000007FFFFFFC00
000000007FFFFFFC00
000000007FFFFFFC00
000000007FFFFFFC00
000000007FFFFFFC00
000000007FFFFFFC00
000000007FFFFFFC00
000000007FFFFFFC00
000000007FFFFFFC00
000000007FFFFFFC00
000000007FFFFFFC00
000000007FFFFFFC00
000000007FFFFFFC00
ENDCHAR
STARTCHAR 0035
ENCODING 53
SWIDTH 572 0
DWIDTH 55 0
BBX 54 90 0 6
BITMAP
FFFFFFFFFFFFC0
FFFFFFFFFFFFC0
FFFFFFFFFFFFC0
FFFFFFFFFFFFC0
FFFFFFFFFFFFC0
FFFFFFFFFFFFC0
FFFFFFFFFFFFC0
FFFFFFFFFFFFC0
FFFFFFFFFFFFC0
FFFFFFFFFFFFC0
FFFFFFFFFFFFC0
FFFFFFFFFFFFC0
FFFFFFFFFFFFC0
FFFFFFFFFFFFC0
FFFFFFFFFFFFC0
FFFFFFFFFFFFC0
FFFFFFFFFFFFC0
FFFFFFFFFFFFC0
FFFFF000000000
FFFFF000000000
FFFFF000000000
FFFFF000000000
FFFFF000000000
FFFFF000000000
FFFFF000000000
FFFFF000000000
FFFFF000000000
FFFFF000000000
FFFFF000000000
FFFFF000000000
FFFFFFFFFFE000
FFFFFFFFFFF000
FFFFFFFFFFF800
FFFFFFFFFFFC00
FFFFFFFFFFFE00
FFFFFFFFFFFF00
FFFFFFFFFFFF80
FFFFFFFFFFFFC0
FFFFFFFFFFFFE0
FFFFFFFFFFFFF0
FFFFFFFFFFFFF0
FFFFFFFFFFFFF8
FFFFFFFFFFFFFC
FFFFFFFFFFFFFC
FFFFFFFFFFFFFC
FFFFFFFFFFFFFC
FFFFFFFFFFFFFC
00000001FFFFFC
00000000FFFFFC
00000000FFFFFC
000000007FFFFC
000000003FFFFC
000000003FFFFC
000000003FFFFC
000000003FFFFC
000000003FFFFC
000000003FFFFC
000000003FFFFC
000000003FFFFC
000000003FFFFC
FFFFE0003FFFFC
FFFFE0003FFFFC
FFFFE0003FFFFC
FFFFE0003FFFFC
FFFFE0003FFFFC
FFFFE0003FFFFC
FFFFE0007FFFFC
FFFFF800FFFFFC
FFFFFC01FFFFFC
FFFFFFFFFFFFFC
FFFFFFFFFFFFFC
FFFFFFFFFFFFFC
FFFFFFFFFFFFFC
FFFFFFFFFFFFFC
7FFFFFFFFFFFFC
7FFFFFFFFFFFF8
3FFFFFFFFFFFF0
1FFFFFFFFFFFE0
0FFFFFFFFFFFE0
07FFFFFFFFFFC0
03FFFFFFFFFF80
01FFFFFFFFFF00
01FFFFFFFFFE00
00FFFFFFFFFE00
007FFFFFFFFC00
003FFFFFFFF800
001FFFFFFFF000
000FFFFFFFF000
0007FFFFFFE000
0007FFFFFFC000
ENDCHAR
STARTCHAR 0036
ENCODING 54
SWIDTH 572 0
DWIDTH 55 0
BBX 54 90 0 5
BITMAP
0007FFFFFFC000
000FFFFFFFE000
001FFFFFFFF000
003FFFFFFFF000
007FFFFFFFF800
00FFFFFFFFFC00
00FFFFFFFFFE00
01FFFFFFFFFF00
03FFFFFFFFFF80
07FFFFFFFFFFC0
0FFFFFFFFFFFC0
1FFFFFFFFFFFE0
3FFFFFFFFFFFF0
7FFFFFFFFFFFF8
FFFFFFFFFFFFFC
FFFFFFFFFFFFFC
FFFFFFFFFFFFFC
FFFFFFFFFFFFFC
FFFFFFFFFFFFFC
FFFFFE00FFFFFC
FFFFFC007FFFFC
FFFFF8003FFFFC
FFFFF0001FFFFC
FFFFE0000FFFFC
FFFFE0000FFFFC
FFFFE0000FFFFC
FFFFE000000000
FFFFE000000000
FFFFE000000000
FFFFE000000000
FFFFE000000000
FFFFE000000000
FFFFE000000000
FFFFE000000000
FFFFE000000000
FFFFE000000000
FFFFE000000000
FFFFFFFFFFFC00
FFFFFFFFFFFC00
FFFFFFFFFFFE00
FFFFFFFFFFFF00
FFFFFFFFFFFF80
FFFFFFFFFFFFC0
FFFFFFFFFFFFC0
FFFFFFFFFFFFE0
FFFFFFFFFFFFF0
FFFFFFFFFFFFF8
FFFFFFFFFFFFFC
FFFFFFFFFFFFFC
FFFFFFFFFFFFFC
FFFFFFFFFFFFFC
FFFFFFFFFFFFFC
FFFFE000FFFFFC
FFFFE0007FFFFC
FFFFE0003FFFFC
FFFFE0003FFFFC
FFFFE0003FFFFC
FFFFE0003FFFFC
FFFFE0003FFFFC
FFFFE0003FFFFC
FFFFE0003FFFFC
FFFFE0003FFFFC
FFFFE0003FFFFC
FFFFE0003FFFFC
FFFFE0003FFFFC
FFFFE0003FFFFC
FFFFE0003FFFFC
FFFFF0007FFFFC
FFFFF800FFFFFC
FFFFFC01FFFFFC
FFFFFFFFFFFFFC
FFFFFFFFFFFFFC
FFFFFFFFFFFFFC
FFFFFFFFFFFFFC
FFFFFFFFFFFFFC
7FFFFFFFFFFFF8
3FFFFFFFFFFFF0
3FFFFFFFFFFFF0
1FFFFFFFFFFFE0
0FFFFFFFFFFFC0
07FFFFFFFFFF80
03FFFFFFFFFF00
01FFFFFFFFFF00
00FFFFFFFFFE00
007FFFFFFFFC00
003FFFFFFFF800
003FFFFFFFF000
001FFFFFFFF000
000FFFFFFFE000
0007FFFFFFC000
ENDCHAR
STARTCHAR 0037
ENCODING 55
SWIDTH 447 0
DWIDTH 43 0
BBX 56 91 -7 6
BITMAP
FFFFFFFFFFFFFF
FFFFFFFFFFFFFF
FFFFFFFFFFFFFF
FFFFFFFFFFFFFF
FFFFFFFFFFFFFF
FFFFFFFFFFFFFF
FFFFFFFFFFFFFF
FFFFFFFFFFFFFF
FFFFFFFFFFFFFF
FFFFFFFFFFFFFF
FFFFFFFFFFFFFF
FFFFFFFFFFFFFF
FFFFFFFFFFFFFF
FFFFFFFFFFFFFF
FFFFFFFFFFFFFF
FFFFFFFFFFFFFF
FFFFFFFFFFFFFF
FFFFFFFFFFFFFF
FFFFFFFFFFFFFF
FFFFFFFFFFFFFF
FFFFE0001FFFFF
FFFFE0001FFFFF
FFFFE0003FFFFE
FFFFE0003FFFFE
FFFFE0003FFFFE
FFFFE0007FFFFC
FFFFE0007FFFFC
00000000FFFFF8
00000000FFFFF8
00000000FFFFF8
00000001FFFFF0
00000001FFFFF0
00000001FFFFF0
00000003FFFFE0
00000003FFFFE0
00000007FFFFC0
00000007FFFFC0
00000007FFFFC0
0000000FFFFF80
0000000FFFFF80
0000001FFFFF00
0000001FFFFF00
0000001FFFFF00
0000003FFFFE00
0000003FFFFE00
0000007FFFFE00
0000007FFFFC00
0000007FFFFC00
000000FFFFF800
000000FFFFF800
000000FFFFF800
000001FFFFF000
000001FFFFF000
000003FFFFF000
000003FFFFE000
000003FFFFE000
000007FFFFC000
000007FFFFC000
00000FFFFFC000
00000FFFFF8000
00000FFFFF8000
00001FFFFF0000
00001FFFFF0000
00001FFFFF0000
00003FFFFE0000
00003FFFFE0000
00007FFFFE0000
00007FFFFC0000
00007FFFFC0000
0000FFFFF80000
0000FFFFF80000
0001FFFFF80000
0001FFFFF00000
0001FFFFF00000
0003FFFFE00000
0003FFFFE00000
0007FFFFE00000
0007FFFFC00000
0007FFFFC00000
000FFFFFC00000
000FFFFF800000
000FFFFF800000
001FFFFF000000
001FFFFF000000
003FFFFF000000
003FFFFE000000
003FFFFE000000
007FFFFE000000
007FFFFC000000
00FFFFFC000000
00FFFFF8000000
ENDCHAR
STARTCHAR 0038
ENCODING 56
SWIDTH 562 0
DWIDTH 54 0
BBX 52 89 1 6
BITMAP
000FFFFFFF8000
001FFFFFFFC000
003FFFFFFFC000
007FFFFFFFE000
00FFFFFFFFF000
01FFFFFFFFF800
01FFFFFFFFFC00
03FFFFFFFFFC00
07FFFFFFFFFE00
0FFFFFFFFFFF00
1FFFFFFFFFFF80
1FFFFFFFFFFFC0
3FFFFFFFFFFFE0
7FFFFFFFFFFFE0
FFFFFFFFFFFFF0
FFFFFFFFFFFFF0
FFFFFFFFFFFFF0
FFFFFFFFFFFFF0
FFFFFFFFFFFFF0
FFFFF801FFFFF0
FFFFE000FFFFF0
FFFFC0007FFFF0
FFFFC0001FFFF0
FFFFC0001FFFF0
FFFFC0001FFFF0
FFFFC0001FFFF0
FFFFC0001FFFF0
FFFFC0001FFFF0
FFFFC0001FFFF0
FFFFC0001FFFF0
FFFFC0001FFFF0
FFFFC0001FFFF0
FFFFC0001FFFF0
FFFFE0003FFFF0
FFFFF0007FFFF0
FFFFF800FFFFF0
FFFFFFFFFFFFF0
FFFFFFFFFFFFF0
3FFFFFFFFFFFC0
0FFFFFFFFFFF80
07FFFFFFFFFE00
03FFFFFFFFFC00
0FFFFFFFFFFF00
1FFFFFFFFFFFC0
7FFFFFFFFFFFE0
FFFFFFFFFFFFF0
FFFFFFFFFFFFF0
FFFFFFFFFFFFF0
FFFFFFFFFFFFF0
FFFFFFFFFFFFF0
FFFFFC01FFFFF0
FFFFF000FFFFF0
FFFFE0007FFFF0
FFFFC0001FFFF0
FFFFC0001FFFF0
FFFFC0001FFFF0
FFFFC0001FFFF0
FFFFC0001FFFF0
FFFFC0001FFFF0
FFFFC0001FFFF0
FFFFC0001FFFF0
FFFFC0001FFFF0
FFFFC0001FFFF0
FFFFC0001FFFF0
FFFFC0001FFFF0
FFFFC0001FFFF0
FFFFC0001FFFF0
FFFFC0001FFFF0
FFFFE0003FFFF0
FFFFF000FFFFF0
FFFFF801FFFFF0
FFFFFFFFFFFFF0
FFFFFFFFFFFFF0
FFFFFFFFFFFFF0
FFFFFFFFFFFFF0
7FFFFFFFFFFFE0
3FFFFFFFFFFFC0
1FFFFFFFFFFFC0
0FFFFFFFFFFF80
0FFFFFFFFFFF00
07FFFFFFFFFE00
03FFFFFFFFFE00
01FFFFFFFFFC00
01FFFFFFFFF800
00FFFFFFFFF000
007FFFFFFFE000
003FFFFFFFE000
003FFFFFFFC000
001FFFFFFF8000
ENDCHAR
STARTCHAR 0039
ENCODING 57
SWIDTH 562 0
DWIDTH 54 0
BBX 53 89 1 6
BITMAP
000FFFFFFF8000
001FFFFFFFC000
003FFFFFFFE000
007FFFFFFFE000
00FFFFFFFFF000
00FFFFFFFFF800
01FFFFFFFFFC00
03FFFFFFFFFE00
07FFFFFFFFFF00
0FFFFFFFFFFF00
0FFFFFFFFFFF80
1FFFFFFFFFFFC0
3FFFFFFFFFFFE0
7FFFFFFFFFFFF0
FFFFFFFFFFFFF8
FFFFFFFFFFFFF8
FFFFFFFFFFFFF8
FFFFFFFFFFFFF8
FFFFFFFFFFFFF8
FFFFF801FFFFF8
FFFFE000FFFFF8
FFFFC0007FFFF8
FFFFC0001FFFF8
FFFFC0001FFFF8
FFFFC0001FFFF8
FFFFC0001FFFF8
FFFFC0001FFFF8
FFFFC0001FFFF8
FFFFC0001FFFF8
FFFFC0001FFFF8
FFFFC0001FFFF8
FFFFC0001FFFF8
FFFFC0001FFFF8
FFFFC0001FFFF8
FFFFC0003FFFF8
FFFFE0007FFFF8
FFFFF000FFFFF8
FFFFFC01FFFFF8
FFFFFFFFFFFFF8
FFFFFFFFFFFFF8
FFFFFFFFFFFFF8
7FFFFFFFFFFFF8
3FFFFFFFFFFFF8
1FFFFFFFFFFFF8
1FFFFFFFFFFFF8
0FFFFFFFFFFFF8
07FFFFFFFFFFF8
03FFFFFFFFFFF8
03FFFFFFFFFFF8
01FFFFFFFFFFF8
00FFFFFFFFFFF8
007FFFFFFFFFF8
007FFFFFFFFFF8
000000001FFFF8
000000001FFFF8
000000001FFFF8
000000001FFFF8
000000001FFFF8
000000001FFFF8
000000001FFFF8
000000001FFFF8
000000001FFFF8
000000001FFFF8
000000001FFFF8
FFFFC0001FFFF8
FFFFC0001FFFF8
FFFFC0001FFFF8
FFFFC0001FFFF8
FFFFE0003FFFF8
FFFFF000FFFFF8
FFFFF801FFFFF8
FFFFFFFFFFFFF8
FFFFFFFFFFFFF8
FFFFFFFFFFFFF8
7FFFFFFFFFFFF0
7FFFFFFFFFFFF0
3FFFFFFFFFFFE0
1FFFFFFFFFFFC0
0FFFFFFFFFFF80
0FFFFFFFFFFF00
07FFFFFFFFFF00
03FFFFFFFFFE00
01FFFFFFFFFC00
00FFFFFFFFF800
00FFFFFFFFF000
007FFFFFFFF000
003FFFFFFFE000
001FFFFFFFC000
001FFFFFFF8000
ENDCHAR
STARTCHAR 003A
ENCODING 58
SWIDTH 125 0
DWIDTH 12 0
BBX 11 33 0 15
BITMAP
FFE0
FFE0
FFE0
FFE0
FFE0
FFE0
FFE0
FFE0
FFE0
FFE0
FFE0
FFE0
FFE0
0000
0000
0000
0000
0000
0000
0000
FFE0
FFE0
FFE0
FFE0
FFE0
FFE0
FFE0
FFE0
FFE0
FFE0
FFE0
FFE0
FFE0
ENDCHAR
STARTCHAR 003B
ENCODING 59
SWIDTH 156 0
DWIDTH 15 0
BBX 13 42 1 5
BITMAP
FFE0
FFE0
FFE0
FFE0
FFE0
FFE0
FFE0
FFE0
FFE0
FFE0
FFE0
FFE0
FFE0
0000
0000
0000
0000
0000
0000
0000
FFF8
FFF8
FFF0
FFF0
FFF0
FFF0
FFE0
FFE0
FFE0
FFE0
FFE0
FFC0
FFC0
FFC0
FFC0
FF80
FF80
FF80
FF80
FF80
FF00
FF00
ENDCHAR
STARTCHAR 003C
ENCODING 60
SWIDTH 375 0
DWIDTH 36 0
BBX 34 54 0 22
BITMAP
0000007000
000000F800
000001FC00
000003FE00
000007FF00
00000FFF80
00001FFFC0
00003FFFC0
00007FFF80
0000FFFF00
0001FFFE00
0003FFFC00
0007FFF800
000FFFF000
001FFFE000
003FFFC000
007FFF8000
00FFFF0000
01FFFE0000
03FFFC0000
03FFF80000
07FFF00000
0FFFE00000
1FFFC00000
3FFF800000
7FFF000000
FFFE000000
7FFF000000
3FFF800000
1FFFC00000
0FFFE00000
07FFF00000
03FFF80000
01FFFC0000
01FFFE0000
00FFFF0000
007FFF8000
003FFFC000
001FFFE000
000FFFF000
0007FFF800
0003FFFC00
0001FFFE00
0000FFFF00
00007FFF80
00003FFFC0
00001FFFC0
00000FFF80
000007FF00
000003FE00
000001FC00
000000F800
0000007000
0000002000
ENDCHAR
STARTCHAR 003D
ENCODING 61
SWIDTH 500 0
DWIDTH 48 0
BBX 0 0 0 0
BITMAP
ENDCHAR
STARTCHAR 003E
ENCODING 62
SWIDTH 354 0
DWIDTH 34 0
BBX 32 51 1 25
BITMAP
01000000
03000000
07800000
0FC00000
1FE00000
3FF00000
7FF80000
FFFC0000
7FFE0000
3FFF0000
1FFF8000
0FFFC000
07FFE000
03FFF000
01FFF800
00FFFC00
007FFE00
003FFF00
001FFF80
001FFFC0
000FFFE0
0007FFF0
0003FFF8
0001FFFC
0000FFFE
00007FFF
0000FFFE
0001FFFC
0003FFF8
0007FFF0
000FFFE0
001FFFC0
003FFF80
007FFF00
00FFFE00
00FFFC00
01FFF800
03FFF000
07FFE000
0FFFC000
1FFF8000
3FFF0000
7FFE0000
FFFC0000
7FF80000
3FF00000
1FE00000
0FC00000
07C00000
03800000
01000000
ENDCHAR
STARTCHAR 003F
ENCODING 63
SWIDTH 406 0
DWIDTH 39 0
BBX 47 90 -9 6
BITMAP
001FFFFFC000
001FFFFFE000
003FFFFFF000
007FFFFFF800
00FFFFFFFC00
01FFFFFFFE00
03FFFFFFFE00
03FFFFFFFF00
07FFFFFFFF80
0FFFFFFFFFC0
1FFFFFFFFFE0
3FFFFFFFFFF0
7FFFFFFFFFF0
FFFFFFFFFFF8
FFFFFFFFFFFC
FFFFFFFFFFFE
FFFFFFFFFFFE
FFFFFFFFFFFE
FFFFFFFFFFFE
FFFFFFFFFFFE
FFFFFFFFFFFE
FFFFFFFFFFFE
FFFFE01FFFFE
FFFFE01FFFFE
FFFFE01FFFFE
FFFFE01FFFFE
FFFFE01FFFFE
FFFFE01FFFFE
FFFFE01FFFFE
0000001FFFFE
0000001FFFFE
0000001FFFFE
0000001FFFFE
0000001FFFFE
0000FFFFFFFE
0001FFFFFFFE
0003FFFFFFFE
0003FFFFFFFE
0007FFFFFFFE
000FFFFFFFFE
001FFFFFFFFC
003FFFFFFFFC
003FFFFFFFF8
003FFFFFFFF0
003FFFFFFFE0
003FFFFFFFC0
003FFFFFFFC0
003FFFFFFF80
003FFFFFFF00
003FFFFFFE00
003FFFFFFC00
003FFFFFFC00
003FFFFFF800
003FFFFFF000
003FFFFC0000
003FFFFC0000
003FFFFC0000
003FFFFC0000
003FFFFC0000
003FFFFC0000
003FFFFC0000
000000000000
000000000000
000000000000
000000000000
000000000000
000000000000
000000000000
003FFFFC0000
003FFFFC0000
003FFFFC0000
003FFFFC0000
003FFFFC0000
003FFFFC0000
003FFFFC0000
003FFFFC0000
003FFFFC0000
003FFFFC0000
003FFFFC0000
003FFFFC0000
003FFFFC0000
003FFFFC0000
003FFFFC0000
003FFFFC0000
003FFFFC0000
003FFFFC0000
003FFFFC0000
003FFFFC0000
003FFFFC0000
003FFFFC0000
ENDCHAR
STARTCHAR 0040
ENCODING 64
SWIDTH 562 0
DWIDTH 54 0
BBX 52 90 1 6
BITMAP
001FFFFF800000
003FFFFF800000
007FFFFF800000
007FFFFF800000
00FFFFFF800000
01FFFFFF800000
03FFFFFF800000
07FFFFFF800000
0FFFFFFF800000
1FFFFFFF800000
3FFFFFFF800000
3FFFFFFF800000
7FFFFFFF800000
FFFFFFFF800000
FFFFFFFF800000
FFFFFFFF800000
FFFFFFFF800000
FFFFFFFF800000
FFFFFFFF800000
FFFFFFFF800000
FFFFFF00000000
FFFFFE00000000
FFFFFC00000000
FFFFF800000000
FFFFF000000000
FFFFF000000000
FFFFF000000000
FFFFF007FFFE00
FFFFF007FFFE00
FFFFF807FFFE00
FFFFFC07FFFE00
FFFFFE07FFFE00
FFFFFF07FFFE00
FFFFFFFFFFFE00
FFFFFFFFFFFFF0
FFFFFFFFFFFFF0
FFFFFFFFFFFFF0
FFFFFFFFFFFFF0
FFFFFFFFFFFFF0
FFFFFFFFFFFFF0
7FFFFFFFFFFFF0
3FFFFFFFFFFFF0
1FFFFFFFFFFFF0
0FFFFFFFFFFFF0
1FFFFFFFFFFFF0
3FFFFFFFFFFFF0
7FFFFFFFFFFFF0
7FFFFFFFFFFFF0
FFFFFFFFFFFFF0
FFFFFFFFFFFFF0
FFFFFFFFFFFFF0
FFFFF001FFFE00
FFFFE001FFFE00
FFFFC001FFFE00
FFFF8001FFFE00
FFFF8001FFFE00
FFFF8001FFFE00
FFFF8001FFFE00
FFFF8001FFFE00
FFFF8001FFFE00
FFFF8001FFFE00
FFFF8001FFFE00
FFFF8001FFFE00
FFFF8001FFFE00
FFFF8001FFFE00
FFFF8001FFFE00
FFFF8001FFFE00
FFFFE001FFFE00
FFFFF001FFFE00
FFFFFFFFFFFE00
FFFFFFFFFFFE00
FFFFFFFFFFFE00
FFFFFFFFFFFE00
FFFFFFFFFFFE00
FFFFFFFFFFFE00
FFFFFFFFFFFE00
7FFFFFFFFFFE00
3FFFFFFFFFFE00
1FFFFFFFFFFE00
1FFFFFFFFFFE00
0FFFFFFFFFFE00
07FFFFFFFFFE00
03FFFFFFFFFE00
03FFFFFFFFFE00
01FFFFFFFFFE00
00FFFFFFFFFE00
007FFFFFFFFE00
007FFFFFFFFE00
003FFFFFFFFE00
001FFFFFFFFE00
ENDCHAR
STARTCHAR 0041
ENCODING 65
SWIDTH 781 0
DWIDTH 75 0
BBX 73 90 1 6
BITMAP
0000003FFFFE00000000
0000003FFFFE00000000
0000003FFFFE00000000
0000007FFFFF00000000
0000007FFFFF00000000
0000007FFFFF00000000
000000FFFFFF00000000
000000FFFFFF80000000
000000FFFFFF80000000
000000FFFFFF80000000
000001FFFFFF80000000
000001FFFFFFC0000000
000001FFFFFFC0000000
000001FFFFFFC0000000
000003FFFFFFE0000000
000003FFFFFFE0000000
000003FFFFFFE0000000
000007FFFFFFE0000000
000007FFFFFFF0000000
000007FFFFFFF0000000
000007FFFFFFF0000000
00000FFFFFFFF0000000
00000FFFFFFFF8000000
00000FFFFFFFF8000000
00001FFFFFFFF8000000
00001FFFFFFFFC000000
00001FFFFFFFFC000000
00001FFFFFFFFC000000
00003FFFFFFFFC000000
00003FFFFFFFFE000000
00003FFFFFFFFE000000
00003FFFFFFFFE000000
00007FFFF7FFFE000000
00007FFFE7FFFF000000
00007FFFE7FFFF000000
0000FFFFE3FFFF000000
0000FFFFC3FFFF000000
0000FFFFC3FFFF800000
0000FFFFC3FFFF800000
0001FFFFC1FFFF800000
0001FFFF81FFFFC00000
0001FFFF81FFFFC00000
0003FFFF80FFFFC00000
0003FFFF00FFFFC00000
0003FFFFFFFFFFE00000
0003FFFFFFFFFFE00000
0007FFFFFFFFFFE00000
0007FFFFFFFFFFE00000
0007FFFFFFFFFFF00000
0007FFFFFFFFFFF00000
000FFFFFFFFFFFF00000
000FFFFFFFFFFFF80000
000FFFFFFFFFFFF80000
001FFFFFFFFFFFF80000
001FFFFFFFFFFFF80000
001FFFFFFFFFFFFC0000
001FFFFFFFFFFFFC0000
003FFFFFFFFFFFFC0000
003FFFFFFFFFFFFC0000
003FFFFFFFFFFFFE0000
007FFFFFFFFFFFFE0000
007FFFFFFFFFFFFE0000
007FFFFFFFFFFFFF0000
007FFFF8000FFFFF0000
00FFFFF0000FFFFF0000
00FFFFF00007FFFF0000
00FFFFF00007FFFF8000
00FFFFE00007FFFF8000
FFFFFFFF007FFFFFFF80
FFFFFFFF007FFFFFFF80
FFFFFFFF007FFFFFFF80
FFFFFFFF007FFFFFFF80
FFFFFFFF007FFFFFFF80
FFFFFFFF007FFFFFFF80
FFFFFFFF007FFFFFFF80
FFFFFFFF007FFFFFFF80
FFFFFFFF007FFFFFFF80
FFFFFFFF007FFFFFFF80
FFFFFFFF007FFFFFFF80
FFFFFFFF007FFFFFFF80
FFFFFFFF007FFFFFFF80
FFFFFFFF007FFFFFFF80
FFFFFFFF007FFFFFFF80
FFFFFFFF007FFFFFFF80
FFFFFFFF007FFFFFFF80
FFFFFFFF007FFFFFFF80
FFFFFFFF007FFFFFFF80
FFFFFFFF007FFFFFFF80
FFFFFFFF007FFFFFFF80
FFFFFFFF007FFFFFFF80
ENDCHAR
STARTCHAR 0042
ENCODING 66
SWIDTH 645 0
DWIDTH 62 0
BBX 59 89 1 6
BITMAP
FFFFFFFFFFFC0000
FFFFFFFFFFFE0000
FFFFFFFFFFFF0000
FFFFFFFFFFFF8000
FFFFFFFFFFFFC000
FFFFFFFFFFFFE000
FFFFFFFFFFFFF000
FFFFFFFFFFFFF800
FFFFFFFFFFFFF800
FFFFFFFFFFFFFC00
FFFFFFFFFFFFFE00
FFFFFFFFFFFFFF00
FFFFFFFFFFFFFF80
FFFFFFFFFFFFFFC0
FFFFFFFFFFFFFFE0
FFFFFFFFFFFFFFE0
FFFFFFFFFFFFFFE0
FFFFFFFFFFFFFFE0
FFFFFFFFFFFFFFE0
FFFFFFFFFFFFFFE0
FFFFFF0007FFFFE0
0FFFFF0003FFFFE0
0FFFFF0001FFFFE0
0FFFFF0000FFFFE0
0FFFFF00007FFFE0
0FFFFF00007FFFE0
0FFFFF00007FFFE0
0FFFFF00007FFFE0
0FFFFF00007FFFE0
0FFFFF00007FFFE0
0FFFFF00007FFFE0
0FFFFF00007FFFE0
0FFFFF0000FFFFE0
0FFFFF0001FFFFE0
0FFFFF0003FFFFE0
0FFFFFFFFFFFFFE0
0FFFFFFFFFFFFFC0
0FFFFFFFFFFFFF80
0FFFFFFFFFFFFF00
0FFFFFFFFFFFFE00
0FFFFFFFFFFFFC00
0FFFFFFFFFFFF800
0FFFFFFFFFFFF000
0FFFFFFFFFFFF000
0FFFFFFFFFFFE000
0FFFFFFFFFFFF000
0FFFFFFFFFFFF800
0FFFFFFFFFFFFC00
0FFFFFFFFFFFFE00
0FFFFFFFFFFFFF00
0FFFFFFFFFFFFF00
0FFFFFFFFFFFFF80
0FFFFFFFFFFFFFC0
0FFFFFFFFFFFFFE0
0FFFFF0007FFFFE0
0FFFFF0003FFFFE0
0FFFFF0001FFFFE0
0FFFFF0000FFFFE0
0FFFFF00007FFFE0
0FFFFF00007FFFE0
0FFFFF00007FFFE0
0FFFFF00007FFFE0
0FFFFF00007FFFE0
0FFFFF00007FFFE0
0FFFFF00007FFFE0
0FFFFF00007FFFE0
0FFFFF00007FFFE0
0FFFFF0000FFFFE0
FFFFFF0001FFFFE0
FFFFFF0003FFFFE0
FFFFFFFFFFFFFFE0
FFFFFFFFFFFFFFE0
FFFFFFFFFFFFFFE0
FFFFFFFFFFFFFFE0
FFFFFFFFFFFFFFE0
FFFFFFFFFFFFFFC0
FFFFFFFFFFFFFF80
FFFFFFFFFFFFFF00
FFFFFFFFFFFFFE00
FFFFFFFFFFFFFC00
FFFFFFFFFFFFF800
FFFFFFFFFFFFF000
FFFFFFFFFFFFF000
FFFFFFFFFFFFE000
FFFFFFFFFFFFC000
FFFFFFFFFFFF8000
FFFFFFFFFFFF0000
FFFFFFFFFFFE0000
FFFFFFFFFFFC0000
ENDCHAR
STARTCHAR 0043
ENCODING 67
SWIDTH 666 0
DWIDTH 64 0
BBX 63 90 0 6
BITMAP
000FFFFFFFFFC000
000FFFFFFFFFE000
001FFFFFFFFFF000
003FFFFFFFFFF800
007FFFFFFFFFFC00
00FFFFFFFFFFFE00
01FFFFFFFFFFFF00
03FFFFFFFFFFFF80
07FFFFFFFFFFFFC0
0FFFFFFFFFFFFFC0
1FFFFFFFFFFFFFE0
3FFFFFFFFFFFFFF0
3FFFFFFFFFFFFFF8
7FFFFFFFFFFFFFFC
FFFFFFFFFFFFFFFE
FFFFFFFFFFFFFFFE
FFFFFFFFFFFFFFFE
FFFFFFFFFFFFFFFE
FFFFF800001FFFFE
FFFFF000000FFFFE
FFFFE0000007FFFE
FFFFE0000003FFFE
FFFFE0000003FFFE
FFFFE0000003FFFE
FFFFE0000003FFFE
FFFFE0000003FFFE
FFFFE0000003FFFE
FFFFE0000003FFFE
FFFFE0000003FFFE
FFFFE0000003FFFE
FFFFE0000003FFFE
FFFFE0000003FFFE
FFFFE00000000000
FFFFE00000000000
FFFFE00000000000
FFFFE00000000000
FFFFE00000000000
FFFFE00000000000
FFFFE00000000000
FFFFE00000000000
FFFFE00000000000
FFFFE00000000000
FFFFE00000000000
FFFFE00000000000
FFFFE00000000000
FFFFE00000000000
FFFFE00000000000
FFFFE00000000000
FFFFE00000000000
FFFFE00000000000
FFFFE00000000000
FFFFE00000000000
FFFFE00000000000
FFFFE00000000000
FFFFE00000000000
FFFFE00000000000
FFFFE00000000000
FFFFE0000003FFFE
FFFFE0000003FFFE
FFFFE0000003FFFE
FFFFE0000003FFFE
FFFFE0000003FFFE
FFFFE0000003FFFE
FFFFE0000003FFFE
FFFFE0000003FFFE
FFFFE0000003FFFE
FFFFE0000003FFFE
FFFFE0000003FFFE
FFFFE0000007FFFE
FFFFF000000FFFFE
FFFFF800001FFFFE
FFFFFFFFFFFFFFFE
FFFFFFFFFFFFFFFE
FFFFFFFFFFFFFFFE
FFFFFFFFFFFFFFFE
FFFFFFFFFFFFFFFC
7FFFFFFFFFFFFFF8
3FFFFFFFFFFFFFF0
1FFFFFFFFFFFFFE0
0FFFFFFFFFFFFFE0
0FFFFFFFFFFFFFC0
07FFFFFFFFFFFF80
03FFFFFFFFFFFF00
01FFFFFFFFFFFE00
00FFFFFFFFFFFC00
007FFFFFFFFFF800
003FFFFFFFFFF800
003FFFFFFFFFF000
001FFFFFFFFFE000
000FFFFFFFFFC000
ENDCHAR
STARTCHAR 0044
ENCODING 68
SWIDTH 666 0
DWIDTH 64 0
BBX 63 90 0 5
BITMAP
FFFFFFFFFFFFE000
FFFFFFFFFFFFF000
FFFFFFFFFFFFF800
FFFFFFFFFFFFFC00
FFFFFFFFFFFFFE00
FFFFFFFFFFFFFF00
FFFFFFFFFFFFFF00
FFFFFFFFFFFFFF80
FFFFFFFFFFFFFFC0
FFFFFFFFFFFFFFE0
FFFFFFFFFFFFFFF0
FFFFFFFFFFFFFFF8
FFFFFFFFFFFFFFFC
FFFFFFFFFFFFFFFC
FFFFFFFFFFFFFFFE
FFFFFFFFFFFFFFFE
FFFFFFFFFFFFFFFE
FFFFFFFFFFFFFFFE
FFFFFFFFFFFFFFFE
FFFFFFFFFFFFFFFE
FFFFFE00007FFFFE
FFFFFE00003FFFFE
07FFFE00001FFFFE
07FFFE00001FFFFE
07FFFE00000FFFFE
07FFFE00000FFFFE
07FFFE00000FFFFE
07FFFE00000FFFFE
07FFFE00000FFFFE
07FFFE00000FFFFE
07FFFE00000FFFFE
07FFFE00000FFFFE
07FFFE00000FFFFE
07FFFE00000FFFFE
07FFFE00000FFFFE
07FFFE00000FFFFE
07FFFE00000FFFFE
07FFFE00000FFFFE
07FFFE00000FFFFE
07FFFE00000FFFFE
07FFFE00000FFFFE
07FFFE00000FFFFE
07FFFE00000FFFFE
07FFFE00000FFFFE
07FFFE00000FFFFE
07FFFE00000FFFFE
07FFFE00000FFFFE
07FFFE00000FFFFE
07FFFE00000FFFFE
07FFFE00000FFFFE
07FFFE00000FFFFE
07FFFE00000FFFFE
07FFFE00000FFFFE
07FFFE00000FFFFE
07FFFE00000FFFFE
07FFFE00000FFFFE
07FFFE00000FFFFE
07FFFE00000FFFFE
07FFFE00000FFFFE
07FFFE00000FFFFE
07FFFE00000FFFFE
07FFFE00000FFFFE
07FFFE00000FFFFE
07FFFE00000FFFFE
07FFFE00000FFFFE
07FFFE00001FFFFE
07FFFE00003FFFFE
07FFFE00003FFFFE
FFFFFE00007FFFFE
FFFFFFFFFFFFFFFE
FFFFFFFFFFFFFFFE
FFFFFFFFFFFFFFFE
FFFFFFFFFFFFFFFE
FFFFFFFFFFFFFFFE
FFFFFFFFFFFFFFFE
FFFFFFFFFFFFFFFE
FFFFFFFFFFFFFFFC
FFFFFFFFFFFFFFF8
FFFFFFFFFFFFFFF0
FFFFFFFFFFFFFFF0
FFFFFFFFFFFFFFE0
FFFFFFFFFFFFFFC0
FFFFFFFFFFFFFF80
FFFFFFFFFFFFFF00
FFFFFFFFFFFFFE00
FFFFFFFFFFFFFC00
FFFFFFFFFFFFFC00
FFFFFFFFFFFFF800
FFFFFFFFFFFFF000
FFFFFFFFFFFFE000
ENDCHAR
STARTCHAR 0045
ENCODING 69
SWIDTH 656 0
DWIDTH 63 0
BBX 62 90 1 6
BITMAP
FFFFFFFFFFFFFFF8
FFFFFFFFFFFFFFF8
FFFFFFFFFFFFFFF8
FFFFFFFFFFFFFFF8
FFFFFFFFFFFFFFF8
FFFFFFFFFFFFFFF8
FFFFFFFFFFFFFFF8
FFFFFFFFFFFFFFF8
FFFFFFFFFFFFFFF8
FFFFFFFFFFFFFFF8
FFFFFFFFFFFFFFF8
FFFFFFFFFFFFFFF8
FFFFFFFFFFFFFFF8
FFFFFFFFFFFFFFF8
FFFFFFFFFFFFFFF8
FFFFFFFFFFFFFFF8
FFFFFFFFFFFFFFF8
FFFFFFFFFFFFFFF8
FFFFFFFFFFFFFFF8
FFFFFFFFFFFFFFF8
FFFFFFFFFFFFFFF8
0FFFFE00003FFFF8
0FFFFE00003FFFF8
0FFFFE00003FFFF8
0FFFFE00003FFFF8
0FFFFE00003FFFF8
0FFFFE0000000000
0FFFFE0000000000
0FFFFE0000000000
0FFFFE0000000000
0FFFFE0000000000
0FFFFE0000000000
0FFFFE0000000000
0FFFFE0000000000
0FFFFFFFFFE00000
0FFFFFFFFFE00000
0FFFFFFFFFE00000
0FFFFFFFFFE00000
0FFFFFFFFFE00000
0FFFFFFFFFE00000
0FFFFFFFFFE00000
0FFFFFFFFFE00000
0FFFFFFFFFE00000
0FFFFFFFFFE00000
0FFFFFFFFFE00000
0FFFFFFFFFE00000
0FFFFFFFFFE00000
0FFFFFFFFFE00000
0FFFFFFFFFE00000
0FFFFFFFFFE00000
0FFFFFFFFFE00000
0FFFFFFFFFE00000
0FFFFFFFFFE00000
0FFFFFFFFFE00000
0FFFFF0000000000
0FFFFF0000000000
0FFFFF0000000000
0FFFFF0000000000
0FFFFF0000000000
0FFFFF0000000000
0FFFFF0000000000
0FFFFF0000000000
0FFFFF0000000000
0FFFFF00003FFFFC
0FFFFF00003FFFFC
0FFFFF00003FFFFC
0FFFFF00003FFFFC
0FFFFF00003FFFFC
FFFFFFFFFFFFFFFC
FFFFFFFFFFFFFFFC
FFFFFFFFFFFFFFFC
FFFFFFFFFFFFFFFC
FFFFFFFFFFFFFFFC
FFFFFFFFFFFFFFFC
FFFFFFFFFFFFFFFC
FFFFFFFFFFFFFFFC
FFFFFFFFFFFFFFFC
FFFFFFFFFFFFFFFC
FFFFFFFFFFFFFFFC
FFFFFFFFFFFFFFFC
FFFFFFFFFFFFFFFC
FFFFFFFFFFFFFFFC
FFFFFFFFFFFFFFFC
FFFFFFFFFFFFFFFC
FFFFFFFFFFFFFFFC
FFFFFFFFFFFFFFFC
FFFFFFFFFFFFFFFC
FFFFFFFFFFFFFFFC
FFFFFFFFFFFFFFFC
FFFFFFFFFFFFFFFC
ENDCHAR
STARTCHAR 0046
ENCODING 70
SWIDTH 468 0
DWIDTH 45 0
BBX 63 90 -1 6
BITMAP
FFFFFFFFFFFFFFFE
FFFFFFFFFFFFFFFE
FFFFFFFFFFFFFFFE
FFFFFFFFFFFFFFFE
FFFFFFFFFFFFFFFE
FFFFFFFFFFFFFFFE
FFFFFFFFFFFFFFFE
FFFFFFFFFFFFFFFE
FFFFFFFFFFFFFFFE
FFFFFFFFFFFFFFFE
FFFFFFFFFFFFFFFE
FFFFFFFFFFFFFFFE
FFFFFFFFFFFFFFFE
FFFFFFFFFFFFFFFE
FFFFFFFFFFFFFFFE
FFFFFFFFFFFFFFFE
FFFFFFFFFFFFFFFE
FFFFFFFFFFFFFFFE
FFFFFFFFFFFFFFFE
FFFFFFFFFFFFFFFE
FFFFFFFFFFFFFFFE
07FFFF80000FFFFE
07FFFF80000FFFFE
07FFFF80000FFFFE
07FFFF80000FFFFE
07FFFF80000FFFFE
07FFFF8000000000
07FFFF8000000000
07FFFF8000000000
07FFFF8000000000
07FFFF8000000000
07FFFF8000000000
07FFFF8000000000
07FFFF8000000000
07FFFFFFFFF00000
07FFFFFFFFF00000
07FFFFFFFFF00000
07FFFFFFFFF00000
07FFFFFFFFF00000
07FFFFFFFFF00000
07FFFFFFFFF00000
07FFFFFFFFF00000
07FFFFFFFFF00000
07FFFFFFFFF00000
07FFFFFFFFF00000
07FFFFFFFFF00000
07FFFFFFFFF00000
07FFFFFFFFF00000
07FFFFFFFFF00000
07FFFFFFFFF00000
07FFFFFFFFF00000
07FFFFFFFFF00000
07FFFFFFFFF00000
07FFFFFFFFF00000
07FFFF8000000000
07FFFF8000000000
07FFFF8000000000
07FFFF8000000000
07FFFF8000000000
07FFFF8000000000
07FFFF8000000000
07FFFF8000000000
07FFFF8000000000
07FFFF8000000000
07FFFF8000000000
07FFFF8000000000
07FFFF8000000000
07FFFF8000000000
FFFFFFFC00000000
FFFFFFFC00000000
FFFFFFFC00000000
FFFFFFFC00000000
FFFFFFFC00000000
FFFFFFFC00000000
FFFFFFFC00000000
FFFFFFFC00000000
FFFFFFFC00000000
FFFFFFFC00000000
FFFFFFFC00000000
FFFFFFFC00000000
FFFFFFFC00000000
FFFFFFFC00000000
FFFFFFFC00000000
FFFFFFFC00000000
FFFFFFFC00000000
FFFFFFFC00000000
FFFFFFFC00000000
FFFFFFFC00000000
FFFFFFFC00000000
FFFFFFFC00000000
ENDCHAR
STARTCHAR 0047
ENCODING 71
SWIDTH 656 0
DWIDTH 63 0
BBX 62 90 0 5
BITMAP
0007FFFFFFFFC000
000FFFFFFFFFE000
001FFFFFFFFFF000
003FFFFFFFFFF800
007FFFFFFFFFFC00
00FFFFFFFFFFFE00
01FFFFFFFFFFFF00
03FFFFFFFFFFFF80
07FFFFFFFFFFFFC0
0FFFFFFFFFFFFFE0
0FFFFFFFFFFFFFE0
1FFFFFFFFFFFFFF0
3FFFFFFFFFFFFFF8
7FFFFFFFFFFFFFFC
FFFFFFFFFFFFFFFC
FFFFFFFFFFFFFFFC
FFFFFFFFFFFFFFFC
FFFFFFFFFFFFFFFC
FFFFFFFFFFFFFFFC
FFFFFFFFFFFFFFFC
FFFFFFFFFFFFFFFC
FFFFFFFFFFFFFFFC
FFFFF800001FFFFC
FFFFF000001FFFFC
FFFFE000001FFFFC
FFFFE000001FFFFC
FFFFE000001FFFFC
FFFFE00000000000
FFFFE00000000000
FFFFE00000000000
FFFFE00000000000
FFFFE00000000000
FFFFE00000000000
FFFFE00000000000
FFFFE00000000000
FFFFE00000000000
FFFFE00000000000
FFFFE00000000000
FFFFE00003FFFFFC
FFFFE00003FFFFFC
FFFFE00003FFFFFC
FFFFE00003FFFFFC
FFFFE00003FFFFFC
FFFFE00003FFFFFC
FFFFE00003FFFFFC
FFFFE00003FFFFFC
FFFFE00003FFFFFC
FFFFE00003FFFFFC
FFFFE00003FFFFFC
FFFFE00003FFFFFC
FFFFE00003FFFFFC
FFFFE00003FFFFFC
FFFFE00003FFFFFC
FFFFE00003FFFFFC
FFFFE000001FFFFC
FFFFE000001FFFFC
FFFFE000001FFFFC
FFFFE000001FFFFC
FFFFE000001FFFFC
FFFFE000001FFFFC
FFFFE000001FFFFC
FFFFE000001FFFFC
FFFFE000001FFFFC
FFFFE000001FFFFC
FFFFE000001FFFFC
FFFFF000001FFFFC
FFFFF000001FFFFC
FFFFF800001FFFFC
FFFFFFFFFFFFFFFC
FFFFFFFFFFFFFFFC
FFFFFFFFFFFFFFFC
FFFFFFFFFFFFFFFC
FFFFFFFFFFFFFFFC
FFFFFFFFFFFFFFFC
FFFFFFFFFFFFFFFC
7FFFFFFFFFFFFFFC
7FFFFFFFFFFFFFFC
3FFFFFFFFFFFFFFC
1FFFFFFFFFFFFFFC
0FFFFFFFFFFFFFFC
07FFFFFFFFFFFFFC
03FFFFFFFFFFFFFC
01FFFFFFFFFFFFFC
00FFFFFFFFFFFFFC
007FFFFFFFFFFFFC
003FFFFFFFFFFFFC
003FFFFFFFFFFFFC
001FFFFFFFFFFFFC
000FFFFFFFFFFFFC
0007FFFFFFFFFFFC
ENDCHAR
STARTCHAR 0048
ENCODING 72
SWIDTH 791 0
DWIDTH 76 0
BBX 75 90 1 6
BITMAP
FFFFFFFF007FFFFFFFE0
FFFFFFFF007FFFFFFFE0
FFFFFFFF007FFFFFFFE0
FFFFFFFF007FFFFFFFE0
FFFFFFFF007FFFFFFFE0
FFFFFFFF007FFFFFFFE0
FFFFFFFF007FFFFFFFE0
FFFFFFFF007FFFFFFFE0
FFFFFFFF007FFFFFFFE0
FFFFFFFF007FFFFFFFE0
FFFFFFFF007FFFFFFFE0
FFFFFFFF007FFFFFFFE0
FFFFFFFF007FFFFFFFE0
FFFFFFFF007FFFFFFFE0
FFFFFFFF007FFFFFFFE0
FFFFFFFF007FFFFFFFE0
FFFFFFFF007FFFFFFFE0
FFFFFFFF007FFFFFFFE0
FFFFFFFF007FFFFFFFE0
FFFFFFFF007FFFFFFFE0
FFFFFFFF007FFFFFFFE0
FFFFFFFF007FFFFFFFE0
01FFFFC00000FFFFE000
01FFFFC00000FFFFE000
01FFFFC00000FFFFE000
01FFFFC00000FFFFE000
01FFFFC00000FFFFE000
01FFFFC00000FFFFE000
01FFFFC00000FFFFE000
01FFFFC00000FFFFE000
01FFFFC00000FFFFE000
01FFFFC00000FFFFE000
01FFFFC00000FFFFE000
01FFFFC00000FFFFE000
01FFFFC00000FFFFE000
01FFFFFFFFFFFFFFE000
01FFFFFFFFFFFFFFE000
01FFFFFFFFFFFFFFE000
01FFFFFFFFFFFFFFE000
01FFFFFFFFFFFFFFE000
01FFFFFFFFFFFFFFE000
01FFFFFFFFFFFFFFE000
01FFFFFFFFFFFFFFE000
01FFFFFFFFFFFFFFE000
01FFFFFFFFFFFFFFE000
01FFFFFFFFFFFFFFE000
01FFFFFFFFFFFFFFE000
01FFFFFFFFFFFFFFE000
01FFFFFFFFFFFFFFE000
01FFFFFFFFFFFFFFE000
01FFFFFFFFFFFFFFE000
01FFFFFFFFFFFFFFE000
01FFFFFFFFFFFFFFE000
01FFFFFFFFFFFFFFE000
01FFFFC00000FFFFE000
01FFFFC00000FFFFE000
01FFFFC00000FFFFE000
01FFFFC00000FFFFE000
01FFFFC00000FFFFE000
01FFFFC00000FFFFE000
01FFFFC00000FFFFE000
01FFFFC00000FFFFE000
01FFFFC00000FFFFE000
01FFFFC00000FFFFE000
01FFFFC00000FFFFE000
01FFFFC00000FFFFE000
01FFFFC00000FFFFE000
01FFFFC00000FFFFE000
FFFFFFFF007FFFFFFFC0
FFFFFFFF007FFFFFFFC0
FFFFFFFF007FFFFFFFC0
FFFFFFFF007FFFFFFFC0
FFFFFFFF007FFFFFFFC0
FFFFFFFF007FFFFFFFC0
FFFFFFFF007FFFFFFFC0
FFFFFFFF007FFFFFFFC0
FFFFFFFF007FFFFFFFC0
FFFFFFFF007FFFFFFFC0
FFFFFFFF007FFFFFFFC0
FFFFFFFF007FFFFFFFC0
FFFFFFFF007FFFFFFFC0
FFFFFFFF007FFFFFFFC0
FFFFFFFF007FFFFFFFC0
FFFFFFFF007FFFFFFFC0
FFFFFFFF007FFFFFFFC0
FFFFFFFF007FFFFFFFC0
FFFFFFFF007FFFFFFFC0
FFFFFFFF007FFFFFFFC0
FFFFFFFF007FFFFFFFC0
FFFFFFFF007FFFFFFFC0
ENDCHAR
STARTCHAR 0049
ENCODING 73
SWIDTH 322 0
DWIDTH 31 0
BBX 30 91 1 6
BITMAP
FFFFFFF8
FFFFFFF8
FFFFFFF8
FFFFFFF8
FFFFFFF8
FFFFFFF8
FFFFFFF8
FFFFFFF8
FFFFFFF8
FFFFFFF8
FFFFFFF8
FFFFFFF8
FFFFFFF8
FFFFFFF8
FFFFFFF8
FFFFFFF8
FFFFFFF8
FFFFFFF8
FFFFFFF8
FFFFFFF8
FFFFFFF8
FFFFFFF8
07FFFF80
07FFFF80
07FFFF80
07FFFF80
07FFFF80
07FFFF80
07FFFF80
07FFFF80
07FFFF80
07FFFF80
07FFFF80
07FFFF80
07FFFF80
07FFFF80
07FFFF80
07FFFF80
07FFFF80
07FFFF80
07FFFF80
07FFFF80
07FFFF80
07FFFF80
07FFFF80
07FFFF80
07FFFF80
07FFFF80
07FFFF80
07FFFF80
07FFFF80
07FFFF80
07FFFF80
07FFFF80
07FFFF80
07FFFF80
07FFFF80
07FFFF80
07FFFF80
07FFFF80
07FFFF80
07FFFF80
07FFFF80
07FFFF80
07FFFF80
07FFFF80
07FFFF80
07FFFF80
07FFFF80
FFFFFFFC
FFFFFFFC
FFFFFFFC
FFFFFFFC
FFFFFFFC
FFFFFFFC
FFFFFFFC
FFFFFFFC
FFFFFFFC
FFFFFFFC
FFFFFFFC
FFFFFFFC
FFFFFFFC
FFFFFFFC
FFFFFFFC
FFFFFFFC
FFFFFFFC
FFFFFFFC
FFFFFFFC
FFFFFFFC
FFFFFFFC
FFFFFFFC
ENDCHAR
STARTCHAR 004A
ENCODING 74
SWIDTH 500 0
DWIDTH 48 0
BBX 55 90 0 5
BITMAP
00000FFFFFFFFE
00000FFFFFFFFE
00000FFFFFFFFE
00000FFFFFFFFE
00000FFFFFFFFE
00000FFFFFFFFE
00000FFFFFFFFE
00000FFFFFFFFE
00000FFFFFFFFE
00000FFFFFFFFE
00000FFFFFFFFE
00000FFFFFFFFE
00000FFFFFFFFE
00000FFFFFFFFE
00000FFFFFFFFE
00000FFFFFFFFE
00000FFFFFFFFE
00000FFFFFFFFE
00000FFFFFFFFE
00000FFFFFFFFE
00000FFFFFFFFE
00000FFFFFFFFE
0000000FFFFE00
0000000FFFFE00
0000000FFFFE00
0000000FFFFE00
0000000FFFFE00
0000000FFFFE00
0000000FFFFE00
0000000FFFFE00
0000000FFFFE00
0000000FFFFE00
0000000FFFFE00
0000000FFFFE00
0000000FFFFE00
0000000FFFFE00
0000000FFFFE00
0000000FFFFE00
0000000FFFFE00
0000000FFFFE00
0000000FFFFE00
0000000FFFFE00
0000000FFFFE00
0000000FFFFE00
0000000FFFFE00
0000000FFFFE00
0000000FFFFE00
0000000FFFFE00
0000000FFFFE00
0000000FFFFE00
0000000FFFFE00
0000000FFFFE00
0000000FFFFE00
0000000FFFFE00
0000000FFFFE00
0000000FFFFE00
FFFFF00FFFFE00
FFFFF00FFFFE00
FFFFF00FFFFE00
FFFFF00FFFFE00
FFFFF00FFFFE00
FFFFF00FFFFE00
FFFFF00FFFFE00
FFFFF00FFFFE00
FFFFF00FFFFE00
FFFFF00FFFFE00
FFFFF00FFFFE00
FFFFF00FFFFE00
FFFFF81FFFFE00
FFFFFFFFFFFE00
FFFFFFFFFFFE00
FFFFFFFFFFFE00
FFFFFFFFFFFE00
FFFFFFFFFFFE00
FFFFFFFFFFFE00
FFFFFFFFFFFE00
FFFFFFFFFFFE00
7FFFFFFFFFFC00
3FFFFFFFFFFC00
1FFFFFFFFFF800
0FFFFFFFFFF000
07FFFFFFFFE000
03FFFFFFFFC000
01FFFFFFFFC000
01FFFFFFFF8000
00FFFFFFFF0000
007FFFFFFE0000
003FFFFFFC0000
001FFFFFFC0000
000FFFFFF80000
ENDCHAR
STARTCHAR 004B
ENCODING 75
SWIDTH 781 0
DWIDTH 75 0
BBX 74 90 1 5
BITMAP
FFFFFFFC000FFFFFFFC0
FFFFFFFC000FFFFFFFC0
FFFFFFFC000FFFFFFFC0
FFFFFFFC000FFFFFFFC0
FFFFFFFC000FFFFFFFC0
FFFFFFFC000FFFFFFFC0
FFFFFFFC000FFFFFFFC0
FFFFFFFC000FFFFFFFC0
FFFFFFFC000FFFFFFFC0
FFFFFFFC000FFFFFFFC0
FFFFFFFC000FFFFFFFC0
FFFFFFFC000FFFFFFFC0
FFFFFFFC000FFFFFFFC0
FFFFFFFC000FFFFFFFC0
FFFFFFFC000FFFFFFFC0
FFFFFFFC000FFFFFFFC0
FFFFFFFC000FFFFFFFC0
FFFFFFFC000FFFFFFFC0
FFFFFFFC000FFFFFFFC0
FFFFFFFC000FFFFFFFC0
FFFFFFFC000FFFFFFFC0
FFFFFFFC000FFFFFFFC0
07FFFF800000FFFFF800
07FFFF800001FFFFF000
07FFFF800003FFFFE000
07FFFF800007FFFFC000
07FFFF80000FFFFF8000
07FFFF80000FFFFF0000
07FFFF80001FFFFE0000
07FFFF80003FFFFC0000
07FFFF80007FFFF80000
07FFFF8000FFFFF00000
07FFFF8001FFFFE00000
07FFFF8003FFFFC00000
07FFFF8007FFFF800000
07FFFF800FFFFF000000
07FFFF801FFFFE000000
07FFFF803FFFFC000000
07FFFF807FFFF8000000
07FFFF80FFFFF0000000
07FFFF81FFFFE0000000
07FFFF83FFFFC0000000
07FFFF87FFFFC0000000
07FFFF8FFFFFC0000000
07FFFF9FFFFFE0000000
07FFFFBFFFFFF0000000
07FFFFFFFFFFF0000000
07FFFFFFFFFFF8000000
07FFFFFFFFFFFC000000
07FFFFFFFFFFFC000000
07FFFFFFFFFFFE000000
07FFFFFFFFFFFF000000
07FFFFFFFFFFFF800000
07FFFFFFFFFFFF800000
07FFFFFFFFFFFFC00000
07FFFFFFF9FFFFE00000
07FFFFFFF0FFFFE00000
07FFFFFFE07FFFF00000
07FFFFFFC07FFFF80000
07FFFFFF803FFFF80000
07FFFFFF001FFFFC0000
07FFFFFE001FFFFE0000
07FFFFFC000FFFFE0000
07FFFFF80007FFFF0000
07FFFFF00003FFFF8000
07FFFFE00003FFFF8000
07FFFFC00001FFFFC000
07FFFF800000FFFFE000
07FFFF000000FFFFE000
FFFFFFFC000FFFFFFFC0
FFFFFFFC000FFFFFFFC0
FFFFFFFC000FFFFFFFC0
FFFFFFFC000FFFFFFFC0
FFFFFFFC000FFFFFFFC0
FFFFFFFC000FFFFFFFC0
FFFFFFFC000FFFFFFFC0
FFFFFFFC000FFFFFFFC0
FFFFFFFC000FFFFFFFC0
FFFFFFFC000FFFFFFFC0
FFFFFFFC000FFFFFFFC0
FFFFFFFC000FFFFFFFC0
FFFFFFFC000FFFFFFFC0
FFFFFFFC000FFFFFFFC0
FFFFFFFC000FFFFFFFC0
FFFFFFFC000FFFFFFFC0
FFFFFFFC000FFFFFFFC0
FFFFFFFC000FFFFFFFC0
FFFFFFFC000FFFFFFFC0
FFFFFFFC000FFFFFFFC0
FFFFFFFC000FFFFFFFC0
ENDCHAR
STARTCHAR 004C
ENCODING 76
SWIDTH 604 0
DWIDTH 58 0
BBX 58 90 0 5
BITMAP
FFFFFFFC00000000
FFFFFFFC00000000
FFFFFFFC00000000
FFFFFFFC00000000
FFFFFFFC00000000
FFFFFFFC00000000
FFFFFFFC00000000
FFFFFFFC00000000
FFFFFFFC00000000
FFFFFFFC00000000
FFFFFFFC00000000
FFFFFFFC00000000
FFFFFFFC00000000
FFFFFFFC00000000
FFFFFFFC00000000
FFFFFFFC00000000
FFFFFFFC00000000
FFFFFFFC00000000
FFFFFFFC00000000
FFFFFFFC00000000
FFFFFFFC00000000
FFFFFFFC00000000
07FFFF0000000000
07FFFF0000000000
07FFFF0000000000
07FFFF0000000000
07FFFF0000000000
07FFFF0000000000
07FFFF0000000000
07FFFF0000000000
07FFFF0000000000
07FFFF0000000000
07FFFF0000000000
07FFFF0000000000
07FFFF0000000000
07FFFF0000000000
07FFFF0000000000
07FFFF0000000000
07FFFF0000000000
07FFFF0000000000
07FFFF0000000000
07FFFF0000000000
07FFFF0000000000
07FFFF0000000000
07FFFF0000000000
07FFFF0000000000
07FFFF0000000000
07FFFF0000000000
07FFFF0000000000
07FFFF0000000000
07FFFF0000000000
07FFFF0000000000
07FFFF0000000000
07FFFF0000000000
07FFFF0000000000
07FFFF0000000000
07FFFF0000000000
07FFFF0000000000
07FFFF0000000000
07FFFF0000000000
07FFFF0000000000
07FFFF0000000000
07FFFF0003FFFFC0
07FFFF0003FFFFC0
07FFFF0003FFFFC0
07FFFF0003FFFFC0
07FFFF0003FFFFC0
07FFFF0003FFFFC0
07FFFF0003FFFFC0
FFFFFFFFFFFFFFC0
FFFFFFFFFFFFFFC0
FFFFFFFFFFFFFFC0
FFFFFFFFFFFFFFC0
FFFFFFFFFFFFFFC0
FFFFFFFFFFFFFFC0
FFFFFFFFFFFFFFC0
FFFFFFFFFFFFFFC0
FFFFFFFFFFFFFFC0
FFFFFFFFFFFFFFC0
FFFFFFFFFFFFFFC0
FFFFFFFFFFFFFFC0
FFFFFFFFFFFFFFC0
FFFFFFFFFFFFFFC0
FFFFFFFFFFFFFFC0
FFFFFFFFFFFFFFC0
FFFFFFFFFFFFFFC0
FFFFFFFFFFFFFFC0
FFFFFFFFFFFFFFC0
FFFFFFFFFFFFFFC0
FFFFFFFFFFFFFFC0
ENDCHAR
STARTCHAR 004D
ENCODING 77
SWIDTH 843 0
DWIDTH 81 0
BBX 79 90 1 5
BITMAP
FFFFFF80000000FFFFFE
FFFFFF80000001FFFFFE
FFFFFFC0000003FFFFFE
FFFFFFC0000003FFFFFE
FFFFFFE0000007FFFFFE
FFFFFFE0000007FFFFFE
FFFFFFF000000FFFFFFE
FFFFFFF000000FFFFFFE
FFFFFFF800001FFFFFFE
FFFFFFF800001FFFFFFE
FFFFFFFC00003FFFFFFE
FFFFFFFC00007FFFFFFE
FFFFFFFE00007FFFFFFE
FFFFFFFE0000FFFFFFFE
FFFFFFFF0000FFFFFFFE
FFFFFFFF0001FFFFFFFE
FFFFFFFF8001FFFFFFFE
FFFFFFFF8003FFFFFFFE
FFFFFFFFC003FFFFFFFE
FFFFFFFFC007FFFFFFFE
FFFFFFFFE00FFFFFFFFE
FFFFFFFFE00FFFFFFFFE
FFFFFFFFE01FFFFFFFFE
0FFFFFFFF01FFFFFFFC0
0FFFFFFFF03FFFFFFFC0
0FFFFFFFF83FFFFFFFC0
0FFFFFFFF87FFFFFFFC0
0FFFFFFFFC7FFFFFFFC0
0FFFFFFFFCFFFFFFFFC0
0FFFFFFFFFFFFFFFFFC0
0FFFFFFFFFFFFFFFFFC0
0FFFFFFFFFFFFFFFFFC0
0FFFFFFFFFFFFFFFFFC0
0FFFFFFFFFFFFFFFFFC0
0FFFFFFFFFFFFFFFFFC0
0FFFFFFFFFFFFFFFFFC0
0FFFFFFFFFFFFFFFFFC0
0FFFFFFFFFFFFFFFFFC0
0FFFFFFFFFFFFFFFFFC0
0FFFFFFFFFFFFFFFFFC0
0FFFFFFFFFFFFFFFFFC0
0FFFFFFFFFFFFFFFFFC0
0FFFFFFFFFFFFFFFFFC0
0FFFFEFFFFFFFEFFFFC0
0FFFFEFFFFFFFEFFFFC0
0FFFFE7FFFFFFCFFFFC0
0FFFFE7FFFFFF8FFFFC0
0FFFFE3FFFFFF8FFFFC0
0FFFFE3FFFFFF0FFFFC0
0FFFFE1FFFFFE0FFFFC0
0FFFFE1FFFFFE0FFFFC0
0FFFFE0FFFFFC0FFFFC0
0FFFFE07FFFFC0FFFFC0
0FFFFE07FFFF80FFFFC0
0FFFFE03FFFF00FFFFC0
0FFFFE03FFFF00FFFFC0
0FFFFE01FFFE00FFFFC0
0FFFFE01FFFE00FFFFC0
0FFFFE00FFFC00FFFFC0
0FFFFE007FF800FFFFC0
0FFFFE007FF800FFFFC0
0FFFFE00000000FFFFC0
0FFFFE00000000FFFFC0
0FFFFE00000000FFFFC0
0FFFFE00000000FFFFC0
0FFFFE00000000FFFFC0
0FFFFE00000000FFFFC0
0FFFFE00000000FFFFC0
0FFFFE00000000FFFFC0
FFFFFFE000001FFFFFFE
FFFFFFE000001FFFFFFE
FFFFFFE000001FFFFFFE
FFFFFFE000001FFFFFFE
FFFFFFE000001FFFFFFE
FFFFFFE000001FFFFFFE
FFFFFFE000001FFFFFFE
FFFFFFE000001FFFFFFE
FFFFFFE000001FFFFFFE
FFFFFFE000001FFFFFFE
FFFFFFE000001FFFFFFE
FFFFFFE000001FFFFFFE
FFFFFFE000001FFFFFFE
FFFFFFE000001FFFFFFE
FFFFFFE000001FFFFFFE
FFFFFFE000001FFFFFFE
FFFFFFE000001FFFFFFE
FFFFFFE000001FFFFFFE
FFFFFFE000001FFFFFFE
FFFFFFE000001FFFFFFE
FFFFFFE000001FFFFFFE
ENDCHAR
STARTCHAR 004E
ENCODING 78
SWIDTH 697 0
DWIDTH 67 0
BBX 71 91 0 6
BITMAP
FFFFFF00003FFFFFFE
FFFFFF80003FFFFFFE
FFFFFF80003FFFFFFE
FFFFFFC0003FFFFFFE
FFFFFFC0003FFFFFFE
FFFFFFE0003FFFFFFE
FFFFFFE0003FFFFFFE
FFFFFFF0003FFFFFFE
FFFFFFF0003FFFFFFE
FFFFFFF8003FFFFFFE
FFFFFFF8003FFFFFFE
FFFFFFFC003FFFFFFE
FFFFFFFC003FFFFFFE
FFFFFFFE003FFFFFFE
FFFFFFFE003FFFFFFE
FFFFFFFF003FFFFFFE
FFFFFFFF003FFFFFFE
FFFFFFFF803FFFFFFE
FFFFFFFF803FFFFFFE
FFFFFFFFC03FFFFFFE
FFFFFFFFC03FFFFFFE
FFFFFFFFE03FFFFFFE
FFFFFFFFE03FFFFFFE
07FFFFFFF001FFFFC0
07FFFFFFF001FFFFC0
07FFFFFFF801FFFFC0
07FFFFFFF801FFFFC0
07FFFFFFFC01FFFFC0
07FFFFFFFC01FFFFC0
07FFFFFFFE01FFFFC0
07FFFFFFFE01FFFFC0
07FFFFFFFF01FFFFC0
07FFFFFFFF01FFFFC0
07FFFFFFFF81FFFFC0
07FFFFFFFF81FFFFC0
07FFFFFFFFC1FFFFC0
07FFFFFFFFC1FFFFC0
07FFFFFFFFE1FFFFC0
07FFFFFFFFE1FFFFC0
07FFFFFFFFF1FFFFC0
07FFFFFFFFF1FFFFC0
07FFFFFFFFF9FFFFC0
07FFFFFFFFF9FFFFC0
07FFFFFFFFFDFFFFC0
07FFFFFFFFFDFFFFC0
07FFFFFFFFFFFFFFC0
07FFFFFFFFFFFFFFC0
07FFFF7FFFFFFFFFC0
07FFFF7FFFFFFFFFC0
07FFFF3FFFFFFFFFC0
07FFFF3FFFFFFFFFC0
07FFFF1FFFFFFFFFC0
07FFFF1FFFFFFFFFC0
07FFFF0FFFFFFFFFC0
07FFFF0FFFFFFFFFC0
07FFFF07FFFFFFFFC0
07FFFF07FFFFFFFFC0
07FFFF03FFFFFFFFC0
07FFFF03FFFFFFFFC0
07FFFF01FFFFFFFFC0
07FFFF01FFFFFFFFC0
07FFFF00FFFFFFFFC0
07FFFF00FFFFFFFFC0
07FFFF007FFFFFFFC0
07FFFF007FFFFFFFC0
07FFFF003FFFFFFFC0
07FFFF003FFFFFFFC0
07FFFF001FFFFFFFC0
07FFFF001FFFFFFFC0
FFFFFFF80FFFFFFFC0
FFFFFFF80FFFFFFFC0
FFFFFFF807FFFFFFC0
FFFFFFF807FFFFFFC0
FFFFFFF803FFFFFFC0
FFFFFFF801FFFFFFC0
FFFFFFF801FFFFFFC0
FFFFFFF800FFFFFFC0
FFFFFFF800FFFFFFC0
FFFFFFF8007FFFFFC0
FFFFFFF8007FFFFFC0
FFFFFFF8003FFFFFC0
FFFFFFF8003FFFFFC0
FFFFFFF8001FFFFFC0
FFFFFFF8001FFFFFC0
FFFFFFF8000FFFFFC0
FFFFFFF8000FFFFFC0
FFFFFFF80007FFFFC0
FFFFFFF80007FFFFC0
FFFFFFF80003FFFFC0
FFFFFFF80003FFFFC0
FFFFFFF80001FFFFC0
ENDCHAR
STARTCHAR 004F
ENCODING 79
SWIDTH 687 0
DWIDTH 66 0
BBX 65 89 0 6
BITMAP
0007FFFFFFFFF80000
000FFFFFFFFFFC0000
000FFFFFFFFFFE0000
001FFFFFFFFFFF0000
003FFFFFFFFFFF8000
007FFFFFFFFFFF8000
00FFFFFFFFFFFFC000
01FFFFFFFFFFFFE000
01FFFFFFFFFFFFF000
03FFFFFFFFFFFFF800
07FFFFFFFFFFFFFC00
0FFFFFFFFFFFFFFE00
1FFFFFFFFFFFFFFF00
3FFFFFFFFFFFFFFF80
7FFFFFFFFFFFFFFF80
7FFFFFFFFFFFFFFF80
FFFFFFFFFFFFFFFF80
FFFFFFFFFFFFFFFF80
FFFFFF00003FFFFF80
FFFFFE00001FFFFF80
FFFFF800000FFFFF80
FFFFF0000007FFFF80
FFFFE0000003FFFF80
FFFFE0000003FFFF80
FFFFE0000003FFFF80
FFFFE0000003FFFF80
FFFFE0000003FFFF80
FFFFE0000003FFFF80
FFFFE0000003FFFF80
FFFFE0000003FFFF80
FFFFE0000003FFFF80
FFFFE0000003FFFF80
FFFFE0000003FFFF80
FFFFE0000003FFFF80
FFFFE0000003FFFF80
FFFFE0000003FFFF80
FFFFE0000003FFFF80
FFFFE0000003FFFF80
FFFFE0000003FFFF80
FFFFE0000003FFFF80
FFFFE0000003FFFF80
FFFFE0000003FFFF80
FFFFE0000003FFFF80
FFFFE0000003FFFF80
FFFFE0000003FFFF80
FFFFE0000003FFFF80
FFFFE0000003FFFF80
FFFFE0000003FFFF80
FFFFE0000003FFFF80
FFFFE0000003FFFF80
FFFFE0000003FFFF80
FFFFE0000003FFFF80
FFFFE0000003FFFF80
FFFFE0000003FFFF80
FFFFE0000003FFFF80
FFFFE0000003FFFF80
FFFFE0000003FFFF80
FFFFE0000003FFFF80
FFFFE0000003FFFF80
FFFFE0000003FFFF80
FFFFE0000003FFFF80
FFFFE0000003FFFF80
FFFFE0000003FFFF80
FFFFE0000003FFFF80
FFFFE0000003FFFF80
FFFFE0000003FFFF80
FFFFF0000007FFFF80
FFFFF800000FFFFF80
FFFFFC00001FFFFF80
FFFFFE00003FFFFF80
FFFFFFFFFFFFFFFF80
FFFFFFFFFFFFFFFF80
FFFFFFFFFFFFFFFF80
FFFFFFFFFFFFFFFF80
FFFFFFFFFFFFFFFF80
7FFFFFFFFFFFFFFF80
3FFFFFFFFFFFFFFF00
1FFFFFFFFFFFFFFE00
0FFFFFFFFFFFFFFC00
07FFFFFFFFFFFFF800
03FFFFFFFFFFFFF000
01FFFFFFFFFFFFE000
00FFFFFFFFFFFFE000
00FFFFFFFFFFFFC000
007FFFFFFFFFFF8000
003FFFFFFFFFFF0000
001FFFFFFFFFFE0000
000FFFFFFFFFFC0000
0007FFFFFFFFF80000
ENDCHAR
STARTCHAR 0050
ENCODING 80
SWIDTH 687 0
DWIDTH 66 0
BBX 64 89 1 6
BITMAP
FFFFFFFFFFFFE000
FFFFFFFFFFFFE000
FFFFFFFFFFFFF000
FFFFFFFFFFFFF800
FFFFFFFFFFFFFC00
FFFFFFFFFFFFFC00
FFFFFFFFFFFFFE00
FFFFFFFFFFFFFF00
FFFFFFFFFFFFFF80
FFFFFFFFFFFFFF80
FFFFFFFFFFFFFFC0
FFFFFFFFFFFFFFE0
FFFFFFFFFFFFFFF0
FFFFFFFFFFFFFFF0
FFFFFFFFFFFFFFF8
FFFFFFFFFFFFFFFC
FFFFFFFFFFFFFFFE
FFFFFFFFFFFFFFFE
FFFFFF00000FFFFF
FFFFFF000007FFFF
FFFFFF000007FFFF
FFFFFF000003FFFF
FFFFFF000001FFFF
07FFFF000001FFFF
07FFFF000001FFFF
07FFFF000001FFFF
07FFFF000001FFFF
07FFFF000001FFFF
07FFFF000001FFFF
07FFFF000001FFFF
07FFFF000001FFFF
07FFFF000001FFFF
07FFFF000001FFFF
07FFFF000001FFFF
07FFFF000001FFFF
07FFFF000001FFFF
07FFFF000001FFFF
07FFFF000003FFFF
07FFFF000007FFFF
07FFFF000007FFFF
07FFFF00000FFFFF
07FFFF00001FFFFF
07FFFFFFFFFFFFFF
07FFFFFFFFFFFFFE
07FFFFFFFFFFFFFC
07FFFFFFFFFFFFF8
07FFFFFFFFFFFFF8
07FFFFFFFFFFFFF0
07FFFFFFFFFFFFE0
07FFFFFFFFFFFFC0
07FFFFFFFFFFFF80
07FFFFFFFFFFFF00
07FFFFFFFFFFFF00
07FFFFFFFFFFFE00
07FFFFFFFFFFFC00
07FFFFFFFFFFF800
07FFFFFFFFFFF000
07FFFFFFFFFFE000
07FFFF0000000000
07FFFF0000000000
07FFFF0000000000
07FFFF0000000000
07FFFF0000000000
07FFFF0000000000
07FFFF0000000000
07FFFF0000000000
07FFFF0000000000
07FFFF0000000000
FFFFFFFC00000000
FFFFFFFC00000000
FFFFFFFC00000000
FFFFFFFC00000000
FFFFFFFC00000000
FFFFFFFC00000000
FFFFFFFC00000000
FFFFFFFC00000000
FFFFFFFC00000000
FFFFFFFC00000000
FFFFFFFC00000000
FFFFFFFC00000000
FFFFFFFC00000000
FFFFFFFC00000000
FFFFFFFC00000000
FFFFFFFC00000000
FFFFFFFC00000000
FFFFFFFC00000000
FFFFFFFC00000000
FFFFFFFC00000000
FFFFFFFC00000000
ENDCHAR
STARTCHAR 0051
ENCODING 81
SWIDTH 750 0
DWIDTH 72 0
BBX 69 93 1 3
BITMAP
0007FFFFFFFFF00000
000FFFFFFFFFF80000
001FFFFFFFFFFC0000
001FFFFFFFFFFE0000
003FFFFFFFFFFF0000
007FFFFFFFFFFF8000
00FFFFFFFFFFFFC000
01FFFFFFFFFFFFC000
03FFFFFFFFFFFFE000
03FFFFFFFFFFFFF000
07FFFFFFFFFFFFF800
0FFFFFFFFFFFFFFC00
1FFFFFFFFFFFFFFE00
3FFFFFFFFFFFFFFF00
3FFFFFFFFFFFFFFF80
7FFFFFFFFFFFFFFF80
FFFFFFFFFFFFFFFF80
FFFFFFFFFFFFFFFF80
FFFFFC00007FFFFF80
FFFFF800003FFFFF80
FFFFF000001FFFFF80
FFFFE000000FFFFF80
FFFFC0000007FFFF80
FFFFC0000007FFFF80
FFFFC0000007FFFF80
FFFFC0000007FFFF80
FFFFC0000007FFFF80
FFFFC0000007FFFF80
FFFFC0000007FFFF80
FFFFC0000007FFFF80
FFFFC0000007FFFF80
FFFFC0000007FFFF80
FFFFC0000007FFFF80
FFFFC0000007FFFF80
FFFFC0000007FFFF80
FFFFC0000007FFFF80
FFFFC0000007FFFF80
FFFFC0000007FFFF80
FFFFC0000007FFFF80
FFFFC0000007FFFF80
FFFFC0000007FFFF80
FFFFC0000007FFFF80
FFFFC0000007FFFF80
FFFFC0000007FFFF80
FFFFC0000007FFFF80
FFFFC0000007FFFF80
FFFFC0000007FFFF80
FFFFC0000007FFFF80
FFFFC0000007FFFF80
FFFFC0000007FFFF80
FFFFC0000007FFFF80
FFFFC0000007FFFF80
FFFFC0000007FFFF80
FFFFC0000007FFFF80
FFFFC0000007FFFF80
FFFFC0000007FFFF80
FFFFC0000007FFFF80
FFFFC0000007FFFF80
FFFFC0000007FFFF80
FFFFC0000007FFFF80
FFFFC0000007FFFF80
FFFFC0000007FFFF80
FFFFC0000007FFFF80
FFFFC0000007FFFF80
FFFFC0000007FFFF80
FFFFE000000FFFFF80
FFFFF000001FFFFF80
FFFFF000001FFFFF80
FFFFF800003FFFFF80
FFFFFC00007FFFFF80
FFFFFFFFFFFFFFFF80
FFFFFFFFFFFFFFFF80
FFFFFFFFFFFFFFFF80
FFFFFFFFFFFFFFFF80
FFFFFFFFFFFFFFFF80
7FFFFFFFFFFFFFFF00
3FFFFFFFFFFFFFFE00
3FFFFFFFFFFFFFFC00
1FFFFFFFFFFFFFFC00
0FFFFFFFFFFFFFFE00
07FFFFFFFFFFFFFF00
03FFFFFFFFFFFFFF80
01FFFFFFFFFFFFFFC0
01FFFFFFFFFFFFFFE0
00FFFFFFFFFFFFFFF0
007FFFFFFFFFFFFFF8
003FFFFFFFFFFEFFF8
001FFFFFFFFFFC7FF0
000FFFFFFFFFF83FE0
000FFFFFFFFFF01FC0
000000000000000F80
000000000000000700
000000000000000200
ENDCHAR
STARTCHAR 0052
ENCODING 82
SWIDTH 666 0
DWIDTH 64 0
BBX 62 89 1 6
BITMAP
FFFFFFFFFFFE0000
FFFFFFFFFFFF0000
FFFFFFFFFFFF8000
FFFFFFFFFFFFC000
FFFFFFFFFFFFE000
FFFFFFFFFFFFF000
FFFFFFFFFFFFF800
FFFFFFFFFFFFFC00
FFFFFFFFFFFFFE00
FFFFFFFFFFFFFF00
FFFFFFFFFFFFFF80
FFFFFFFFFFFFFFC0
FFFFFFFFFFFFFFE0
FFFFFFFFFFFFFFF0
FFFFFFFFFFFFFFF0
FFFFFFFFFFFFFFF0
FFFFFFFFFFFFFFF0
FFFFFFFFFFFFFFF0
FFFFFE001FFFFFF0
FFFFFE000FFFFFF0
FFFFFE0007FFFFF0
FFFFFE0003FFFFF0
0FFFFE0001FFFFF0
0FFFFE0001FFFFF0
0FFFFE0001FFFFF0
0FFFFE0001FFFFF0
0FFFFE0001FFFFF0
0FFFFE0001FFFFF0
0FFFFE0001FFFFF0
0FFFFE0001FFFFF0
0FFFFE0003FFFFF0
0FFFFE0007FFFFF0
0FFFFE000FFFFFF0
0FFFFE001FFFFFF0
0FFFFFFFFFFFFFF0
0FFFFFFFFFFFFFF0
0FFFFFFFFFFFFFF0
0FFFFFFFFFFFFFF0
0FFFFFFFFFFFFFF0
0FFFFFFFFFFFFFF0
0FFFFFFFFFFFFFF0
0FFFFFFFFFFFFFE0
0FFFFFFFFFFFFF80
0FFFFFFFFFFFFF00
0FFFFFFFFFFFFE00
0FFFFFFFFFFFFC00
0FFFFFFFFFFFF800
0FFFFFFFFFFFE000
0FFFFFFFFFFFC000
0FFFFFFFFFFFC000
0FFFFFFFFFFFC000
0FFFFFFFFFFFE000
0FFFFFFFFFFFE000
0FFFFFFFFFFFE000
0FFFFE007FFFF000
0FFFFE007FFFF000
0FFFFE003FFFF800
0FFFFE003FFFF800
0FFFFE001FFFFC00
0FFFFE001FFFFC00
0FFFFE000FFFFC00
0FFFFE000FFFFE00
0FFFFE000FFFFE00
0FFFFE0007FFFF00
0FFFFE0007FFFF00
0FFFFE0003FFFF00
0FFFFE0003FFFF80
0FFFFE0001FFFF80
FFFFFFF01FFFFFFC
FFFFFFF01FFFFFFC
FFFFFFF01FFFFFFC
FFFFFFF01FFFFFFC
FFFFFFF01FFFFFFC
FFFFFFF01FFFFFFC
FFFFFFF01FFFFFFC
FFFFFFF01FFFFFFC
FFFFFFF01FFFFFFC
FFFFFFF01FFFFFFC
FFFFFFF01FFFFFFC
FFFFFFF01FFFFFFC
FFFFFFF01FFFFFFC
FFFFFFF01FFFFFFC
FFFFFFF01FFFFFFC
FFFFFFF01FFFFFFC
FFFFFFF01FFFFFFC
FFFFFFF01FFFFFFC
FFFFFFF01FFFFFFC
FFFFFFF01FFFFFFC
FFFFFFF01FFFFFFC
ENDCHAR
STARTCHAR 0053
ENCODING 83
SWIDTH 645 0
DWIDTH 62 0
BBX 60 90 0 6
BITMAP
0003FFFFFFFE0000
0007FFFFFFFF0000
000FFFFFFFFF8000
001FFFFFFFFFC000
003FFFFFFFFFE000
007FFFFFFFFFF000
007FFFFFFFFFF800
00FFFFFFFFFFFC00
01FFFFFFFFFFFE00
03FFFFFFFFFFFF00
07FFFFFFFFFFFF80
0FFFFFFFFFFFFFC0
1FFFFFFFFFFFFFE0
1FFFFFFFFFFFFFF0
3FFFFFFFFFFFFFF0
7FFFFFFFFFFFFFF0
FFFFFFFFFFFFFFF0
FFFFFE0000FFFFF0
FFFFFC0000FFFFF0
FFFFF800007FFFF0
FFFFF000003FFFF0
FFFFF000003FFFF0
FFFFF000003FFFF0
FFFFF000003FFFF0
FFFFF000003FFFF0
FFFFF000003FFFF0
FFFFF000003FFFF0
FFFFF000003FFFF0
FFFFF000003FFFF0
FFFFF000003FFFF0
FFFFF00000000000
FFFFF00000000000
FFFFF00000000000
FFFFF00000000000
FFFFF00000000000
FFFFF80000000000
FFFFFC0000000000
FFFFFFFFFFFFE000
FFFFFFFFFFFFF000
7FFFFFFFFFFFF800
3FFFFFFFFFFFFC00
1FFFFFFFFFFFFC00
0FFFFFFFFFFFFE00
07FFFFFFFFFFFF00
03FFFFFFFFFFFF80
03FFFFFFFFFFFFC0
01FFFFFFFFFFFFE0
00FFFFFFFFFFFFF0
007FFFFFFFFFFFF0
003FFFFFFFFFFFF0
001FFFFFFFFFFFF0
000FFFFFFFFFFFF0
0000000000FFFFF0
00000000007FFFF0
00000000007FFFF0
00000000003FFFF0
00000000003FFFF0
00000000003FFFF0
00000000003FFFF0
00000000003FFFF0
FFFFE000003FFFF0
FFFFE000003FFFF0
FFFFE000003FFFF0
FFFFE000003FFFF0
FFFFE000003FFFF0
FFFFE000003FFFF0
FFFFE000003FFFF0
FFFFE000003FFFF0
FFFFE000003FFFF0
FFFFF000003FFFF0
FFFFF800007FFFF0
FFFFFC00007FFFF0
FFFFFE0000FFFFF0
FFFFFFFFFFFFFFF0
FFFFFFFFFFFFFFF0
FFFFFFFFFFFFFFF0
FFFFFFFFFFFFFFF0
7FFFFFFFFFFFFFE0
3FFFFFFFFFFFFFC0
1FFFFFFFFFFFFF80
0FFFFFFFFFFFFF00
07FFFFFFFFFFFE00
03FFFFFFFFFFFC00
01FFFFFFFFFFF800
00FFFFFFFFFFF000
007FFFFFFFFFE000
001FFFFFFFFFC000
000FFFFFFFFF8000
0007FFFFFFFF0000
0003FFFFFFFE0000
ENDCHAR
STARTCHAR 0054
ENCODING 84
SWIDTH 322 0
DWIDTH 31 0
BBX 63 90 -16 5
BITMAP
FFFFFFFFFFFFFFFE
FFFFFFFFFFFFFFFE
FFFFFFFFFFFFFFFE
FFFFFFFFFFFFFFFE
FFFFFFFFFFFFFFFE
FFFFFFFFFFFFFFFE
FFFFFFFFFFFFFFFE
FFFFFFFFFFFFFFFE
FFFFFFFFFFFFFFFE
FFFFFFFFFFFFFFFE
FFFFFFFFFFFFFFFE
FFFFFFFFFFFFFFFE
FFFFFFFFFFFFFFFE
FFFFFFFFFFFFFFFE
FFFFFFFFFFFFFFFE
FFFFFFFFFFFFFFFE
FFFFFFFFFFFFFFFE
FFFFFFFFFFFFFFFE
FFFFFFFFFFFFFFFE
FFFFFFFFFFFFFFFE
FFFFFFFFFFFFFFFE
FFFFFFFFFFFFFFFE
FFFFFFFFFFFFFFFE
FFFFC3FFFF0FFFFE
FFFFC3FFFF0FFFFE
FFFFC3FFFF0FFFFE
FFFFC3FFFF0FFFFE
FFFFC3FFFF0FFFFE
000003FFFF000000
000003FFFF000000
000003FFFF000000
000003FFFF000000
000003FFFF000000
000003FFFF000000
000003FFFF000000
000003FFFF000000
000003FFFF000000
000003FFFF000000
000003FFFF000000
000003FFFF000000
000003FFFF000000
000003FFFF000000
000003FFFF000000
000003FFFF000000
000003FFFF000000
000003FFFF000000
000003FFFF000000
000003FFFF000000
000003FFFF000000
000003FFFF000000
000003FFFF000000
000003FFFF000000
000003FFFF000000
000003FFFF000000
000003FFFF000000
000003FFFF000000
000003FFFF000000
000003FFFF000000
000003FFFF000000
000003FFFF000000
000003FFFF000000
000003FFFF000000
000003FFFF000000
000003FFFF000000
000003FFFF000000
000003FFFF000000
000003FFFF000000
000003FFFF000000
000003FFFF000000
0000FFFFFFFC0000
0000FFFFFFFC0000
0000FFFFFFFC0000
0000FFFFFFFC0000
0000FFFFFFFC0000
0000FFFFFFFC0000
0000FFFFFFFC0000
0000FFFFFFFC0000
0000FFFFFFFC0000
0000FFFFFFFC0000
0000FFFFFFFC0000
0000FFFFFFFC0000
0000FFFFFFFC0000
0000FFFFFFFC0000
0000FFFFFFFC0000
0000FFFFFFFC0000
0000FFFFFFFC0000
0000FFFFFFFC0000
0000FFFFFFFC0000
0000FFFFFFFC0000
0000FFFFFFFC0000
ENDCHAR
STARTCHAR 0055
ENCODING 85
SWIDTH 656 0
DWIDTH 63 0
BBX 72 90 -5 5
BITMAP
FFFFFFFC003FFFFFFF
FFFFFFFC003FFFFFFF
FFFFFFFC003FFFFFFF
FFFFFFFC003FFFFFFF
FFFFFFFC003FFFFFFF
FFFFFFFC003FFFFFFF
FFFFFFFC003FFFFFFF
FFFFFFFC003FFFFFFF
FFFFFFFC003FFFFFFF
FFFFFFFC003FFFFFFF
FFFFFFFC003FFFFFFF
FFFFFFFC003FFFFFFF
FFFFFFFC003FFFFFFF
FFFFFFFC003FFFFFFF
FFFFFFFC003FFFFFFF
FFFFFFFC003FFFFFFF
FFFFFFFC003FFFFFFF
FFFFFFFC003FFFFFFF
FFFFFFFC003FFFFFFF
FFFFFFFC003FFFFFFF
FFFFFFFC003FFFFFFF
FFFFFFFC003FFFFFFF
07FFFF800001FFFFF0
07FFFF800001FFFFF0
07FFFF800001FFFFF0
07FFFF800001FFFFF0
07FFFF800001FFFFF0
07FFFF800001FFFFF0
07FFFF800001FFFFF0
07FFFF800001FFFFF0
07FFFF800001FFFFF0
07FFFF800001FFFFF0
07FFFF800001FFFFF0
07FFFF800001FFFFF0
07FFFF800001FFFFF0
07FFFF800001FFFFF0
07FFFF800001FFFFF0
07FFFF800001FFFFF0
07FFFF800001FFFFF0
07FFFF800001FFFFF0
07FFFF800001FFFFF0
07FFFF800001FFFFF0
07FFFF800001FFFFF0
07FFFF800001FFFFF0
07FFFF800001FFFFF0
07FFFF800001FFFFF0
07FFFF800001FFFFF0
07FFFF800001FFFFF0
07FFFF800001FFFFF0
07FFFF800001FFFFF0
07FFFF800001FFFFF0
07FFFF800001FFFFF0
07FFFF800001FFFFF0
07FFFF800001FFFFF0
07FFFF800001FFFFF0
07FFFF800001FFFFF0
07FFFF800001FFFFF0
07FFFF800001FFFFF0
07FFFF800001FFFFF0
07FFFF800001FFFFF0
07FFFF800001FFFFF0
07FFFF800001FFFFF0
07FFFF800001FFFFF0
07FFFF800001FFFFF0
07FFFF800001FFFFF0
07FFFF800001FFFFF0
07FFFF800001FFFFF0
07FFFF800001FFFFF0
07FFFF800001FFFFF0
07FFFFFFFFFFFFFFF0
07FFFFFFFFFFFFFFF0
07FFFFFFFFFFFFFFF0
07FFFFFFFFFFFFFFF0
07FFFFFFFFFFFFFFE0
03FFFFFFFFFFFFFFE0
01FFFFFFFFFFFFFFC0
00FFFFFFFFFFFFFF80
007FFFFFFFFFFFFF00
003FFFFFFFFFFFFE00
001FFFFFFFFFFFFC00
000FFFFFFFFFFFFC00
0007FFFFFFFFFFF800
0003FFFFFFFFFFF000
0001FFFFFFFFFFE000
0000FFFFFFFFFFC000
0000FFFFFFFFFF8000
00007FFFFFFFFF8000
00003FFFFFFFFF0000
00001FFFFFFFFE0000
00000FFFFFFFFC0000
ENDCHAR
STARTCHAR 0056
ENCODING 86
SWIDTH 500 0
DWIDTH 48 0
BBX 68 90 -11 5
BITMAP
FFFFFFFE07FFFFFFF0
FFFFFFFE07FFFFFFF0
FFFFFFFE07FFFFFFF0
FFFFFFFE07FFFFFFF0
FFFFFFFE07FFFFFFF0
FFFFFFFE07FFFFFFF0
FFFFFFFE07FFFFFFF0
FFFFFFFE07FFFFFFF0
FFFFFFFE07FFFFFFF0
FFFFFFFE07FFFFFFF0
FFFFFFFE07FFFFFFF0
FFFFFFFE07FFFFFFF0
FFFFFFFE07FFFFFFF0
FFFFFFFE07FFFFFFF0
FFFFFFFE07FFFFFFF0
FFFFFFFE07FFFFFFF0
FFFFFFFE07FFFFFFF0
FFFFFFFE07FFFFFFF0
FFFFFFFE07FFFFFFF0
FFFFFFFE07FFFFFFF0
FFFFFFFE07FFFFFFF0
FFFFFFFE07FFFFFFF0
00FFFFE0007FFFF000
00FFFFE0007FFFF000
007FFFE000FFFFF000
007FFFF000FFFFF000
007FFFF000FFFFE000
007FFFF000FFFFE000
007FFFF001FFFFE000
003FFFF001FFFFE000
003FFFF801FFFFC000
003FFFF801FFFFC000
003FFFF801FFFFC000
001FFFF803FFFFC000
001FFFF803FFFF8000
001FFFFC03FFFF8000
001FFFFC03FFFF8000
000FFFFC07FFFF8000
000FFFFC07FFFF0000
000FFFFC07FFFF0000
000FFFFE07FFFF0000
0007FFFE07FFFF0000
0007FFFE0FFFFE0000
0007FFFE0FFFFE0000
0007FFFE0FFFFE0000
0003FFFF0FFFFE0000
0003FFFF1FFFFC0000
0003FFFF1FFFFC0000
0003FFFF1FFFFC0000
0001FFFF1FFFFC0000
0001FFFF9FFFF80000
0001FFFFBFFFF80000
0001FFFFBFFFF80000
0001FFFFBFFFF80000
0000FFFFBFFFF00000
0000FFFFFFFFF00000
0000FFFFFFFFF00000
0000FFFFFFFFF00000
00007FFFFFFFE00000
00007FFFFFFFE00000
00007FFFFFFFE00000
00007FFFFFFFE00000
00003FFFFFFFC00000
00003FFFFFFFC00000
00003FFFFFFFC00000
00003FFFFFFF800000
00001FFFFFFF800000
00001FFFFFFF800000
00001FFFFFFF800000
00001FFFFFFF000000
00000FFFFFFF000000
00000FFFFFFF000000
00000FFFFFFF000000
00000FFFFFFE000000
00000FFFFFFE000000
000007FFFFFE000000
000007FFFFFE000000
000007FFFFFC000000
000007FFFFFC000000
000003FFFFFC000000
000003FFFFFC000000
000003FFFFF8000000
000003FFFFF8000000
000001FFFFF8000000
000001FFFFF8000000
000001FFFFF0000000
000001FFFFF0000000
000000FFFFF0000000
000000FFFFF0000000
000000FFFFE0000000
ENDCHAR
STARTCHAR 0057
ENCODING 87
SWIDTH 750 0
DWIDTH 72 0
BBX 88 91 -9 6
BITMAP
FFFFFFF803FF801FFFFFFF
FFFFFFF807FF801FFFFFFF
FFFFFFF807FF801FFFFFFF
FFFFFFF807FFC01FFFFFFF
FFFFFFF807FFC01FFFFFFF
FFFFFFF807FFC01FFFFFFF
FFFFFFF807FFC01FFFFFFF
FFFFFFF80FFFC01FFFFFFF
FFFFFFF80FFFE01FFFFFFF
FFFFFFF80FFFE01FFFFFFF
FFFFFFF80FFFE01FFFFFFF
FFFFFFF80FFFE01FFFFFFF
FFFFFFF80FFFE01FFFFFFF
FFFFFFF81FFFF01FFFFFFF
FFFFFFF81FFFF01FFFFFFF
FFFFFFF81FFFF01FFFFFFF
FFFFFFF81FFFF01FFFFFFF
FFFFFFF81FFFF01FFFFFFF
FFFFFFF81FFFF01FFFFFFF
FFFFFFF83FFFF81FFFFFFF
FFFFFFF83FFFF81FFFFFFF
FFFFFFF83FFFF81FFFFFFF
FFFFFFF83FFFF81FFFFFFF
03FFFF003FFFF801FFFFC0
03FFFF003FFFFC01FFFFC0
03FFFF807FFFFC01FFFFC0
01FFFF807FFFFC01FFFF80
01FFFF807FFFFC01FFFF80
01FFFF807FFFFC03FFFF80
01FFFFC07FFFFE03FFFF80
01FFFFC0FFFFFE03FFFF80
00FFFFC0FFFFFE03FFFF00
00FFFFC0FFFFFE07FFFF00
00FFFFC0FFFFFE07FFFF00
00FFFFE0FFFFFF07FFFF00
00FFFFE0FFFFFF07FFFF00
00FFFFE1FFFFFF07FFFE00
007FFFE1FFFFFF0FFFFE00
007FFFF1FFFFFF0FFFFE00
007FFFF1FFFFFF8FFFFE00
007FFFF1FFFFFF8FFFFE00
007FFFF1FFFFFF9FFFFC00
003FFFFBFFFFFF9FFFFC00
003FFFFBFFFFFF9FFFFC00
003FFFFBFFFFFFDFFFFC00
003FFFFBFFFFFFDFFFFC00
003FFFFBFFFFFFFFFFFC00
001FFFFFFFFFFFFFFFF800
001FFFFFFFFFFFFFFFF800
001FFFFFFFFFFFFFFFF800
001FFFFFFFFFFFFFFFF800
001FFFFFFFFFFFFFFFF800
000FFFFFFFFFFFFFFFF000
000FFFFFFFFFFFFFFFF000
000FFFFFFFFFFFFFFFF000
000FFFFFFFFFFFFFFFF000
000FFFFFFFFFFFFFFFF000
0007FFFFFFEFFFFFFFE000
0007FFFFFFEFFFFFFFE000
0007FFFFFFEFFFFFFFE000
0007FFFFFFCFFFFFFFE000
0007FFFFFFC7FFFFFFE000
0003FFFFFFC7FFFFFFC000
0003FFFFFFC7FFFFFFC000
0003FFFFFFC7FFFFFFC000
0003FFFFFF87FFFFFFC000
0003FFFFFF83FFFFFFC000
0001FFFFFF83FFFFFF8000
0001FFFFFF83FFFFFF8000
0001FFFFFF83FFFFFF8000
0001FFFFFF83FFFFFF8000
0001FFFFFF01FFFFFF8000
0000FFFFFF01FFFFFF0000
0000FFFFFF01FFFFFF0000
0000FFFFFF01FFFFFF0000
0000FFFFFF00FFFFFF0000
0000FFFFFE00FFFFFF0000
0000FFFFFE00FFFFFE0000
00007FFFFE00FFFFFE0000
00007FFFFE00FFFFFE0000
00007FFFFE007FFFFE0000
00007FFFFC007FFFFE0000
00007FFFFC007FFFFE0000
00003FFFFC007FFFFC0000
00003FFFFC007FFFFC0000
00003FFFFC003FFFFC0000
00003FFFFC003FFFFC0000
00003FFFF8003FFFFC0000
00001FFFF8003FFFF80000
00001FFFF8001FFFF80000
00001FFFF8001FFFF80000
ENDCHAR
STARTCHAR 0058
ENCODING 88
SWIDTH 729 0
DWIDTH 70 0
BBX 68 90 0 5
BITMAP
FFFFFFFC0FFFFFFFF0
FFFFFFFC0FFFFFFFF0
FFFFFFFC0FFFFFFFF0
FFFFFFFC0FFFFFFFF0
FFFFFFFC0FFFFFFFF0
FFFFFFFC0FFFFFFFF0
FFFFFFFC0FFFFFFFF0
FFFFFFFC0FFFFFFFF0
FFFFFFFC0FFFFFFFF0
FFFFFFFC0FFFFFFFF0
FFFFFFFC0FFFFFFFF0
FFFFFFFC0FFFFFFFF0
FFFFFFFC0FFFFFFFF0
FFFFFFFC0FFFFFFFF0
FFFFFFFC0FFFFFFFF0
FFFFFFFC0FFFFFFFF0
FFFFFFFC0FFFFFFFF0
FFFFFFFC0FFFFFFFF0
FFFFFFFC0FFFFFFFF0
FFFFFFFC0FFFFFFFF0
FFFFFFFC0FFFFFFFF0
FFFFFFFC0FFFFFFFF0
03FFFF80001FFFF800
01FFFF80003FFFF800
01FFFFC0007FFFF000
00FFFFE000FFFFE000
007FFFE000FFFFE000
007FFFF001FFFFC000
003FFFF803FFFF8000
001FFFF803FFFF0000
001FFFFC07FFFF0000
000FFFFE0FFFFE0000
000FFFFE1FFFFC0000
0007FFFF1FFFFC0000
0003FFFFBFFFF80000
0003FFFFFFFFF00000
0001FFFFFFFFE00000
0000FFFFFFFFE00000
0000FFFFFFFFC00000
00007FFFFFFF800000
00003FFFFFFF800000
00003FFFFFFF000000
00001FFFFFFE000000
00000FFFFFFC000000
00000FFFFFFC000000
00000FFFFFFC000000
00001FFFFFFE000000
00001FFFFFFF000000
00003FFFFFFF000000
00007FFFFFFF800000
00007FFFFFFFC00000
0000FFFFFFFFC00000
0000FFFFFFFFE00000
0001FFFFFFFFF00000
0003FFFFFFFFF00000
0003FFFFBFFFF80000
0007FFFF3FFFF80000
0007FFFF1FFFFC0000
000FFFFE0FFFFE0000
001FFFFC0FFFFE0000
001FFFFC07FFFF0000
003FFFF803FFFF8000
003FFFF803FFFF8000
007FFFF001FFFFC000
00FFFFE000FFFFE000
00FFFFE0007FFFE000
01FFFFC0007FFFF000
01FFFF80003FFFF800
03FFFF80001FFFF800
FFFFFFFC0FFFFFFFF0
FFFFFFFC0FFFFFFFF0
FFFFFFFC0FFFFFFFF0
FFFFFFFC0FFFFFFFF0
FFFFFFFC0FFFFFFFF0
FFFFFFFC0FFFFFFFF0
FFFFFFFC0FFFFFFFF0
FFFFFFFC0FFFFFFFF0
FFFFFFFC0FFFFFFFF0
FFFFFFFC0FFFFFFFF0
FFFFFFFC0FFFFFFFF0
FFFFFFFC0FFFFFFFF0
FFFFFFFC0FFFFFFFF0
FFFFFFFC0FFFFFFFF0
FFFFFFFC0FFFFFFFF0
FFFFFFFC0FFFFFFFF0
FFFFFFFC0FFFFFFFF0
FFFFFFFC0FFFFFFFF0
FFFFFFFC0FFFFFFFF0
FFFFFFFC0FFFFFFFF0
FFFFFFFC0FFFFFFFF0
ENDCHAR
STARTCHAR 0059
ENCODING 89
SWIDTH 406 0
DWIDTH 39 0
BBX 63 90 -12 6
BITMAP
FFFFFFF07FFFFFFE
FFFFFFF07FFFFFFE
FFFFFFF07FFFFFFE
FFFFFFF07FFFFFFE
FFFFFFF07FFFFFFE
FFFFFFF07FFFFFFE
FFFFFFF07FFFFFFE
FFFFFFF07FFFFFFE
FFFFFFF07FFFFFFE
FFFFFFF07FFFFFFE
FFFFFFF07FFFFFFE
FFFFFFF07FFFFFFE
FFFFFFF07FFFFFFE
FFFFFFF07FFFFFFE
FFFFFFF07FFFFFFE
FFFFFFF07FFFFFFE
FFFFFFF07FFFFFFE
FFFFFFF07FFFFFFE
FFFFFFF07FFFFFFE
FFFFFFF07FFFFFFE
FFFFFFF07FFFFFFE
FFFFFFF07FFFFFFE
03FFFF800FFFFF00
03FFFFC00FFFFF00
01FFFFC00FFFFE00
01FFFFE01FFFFE00
00FFFFE01FFFFC00
00FFFFF03FFFFC00
007FFFF03FFFF800
007FFFF07FFFF800
003FFFF87FFFF000
003FFFF8FFFFF000
001FFFFCFFFFE000
001FFFFDFFFFE000
000FFFFFFFFFC000
000FFFFFFFFFC000
0007FFFFFFFF8000
0007FFFFFFFF8000
0003FFFFFFFF0000
0003FFFFFFFF0000
0001FFFFFFFF0000
0001FFFFFFFE0000
0000FFFFFFFE0000
0000FFFFFFFC0000
00007FFFFFFC0000
00007FFFFFF80000
00003FFFFFF80000
00003FFFFFF00000
00003FFFFFF00000
00001FFFFFE00000
00001FFFFFE00000
00000FFFFFC00000
00000FFFFFC00000
000007FFFF800000
000007FFFF800000
000007FFFF800000
000007FFFF800000
000007FFFF800000
000007FFFF800000
000007FFFF800000
000007FFFF800000
000007FFFF800000
000007FFFF800000
000007FFFF800000
000007FFFF800000
000007FFFF800000
000007FFFF800000
000007FFFF800000
0001FFFFFFFE0000
0001FFFFFFFE0000
0001FFFFFFFE0000
0001FFFFFFFE0000
0001FFFFFFFE0000
0001FFFFFFFE0000
0001FFFFFFFE0000
0001FFFFFFFE0000
0001FFFFFFFE0000
0001FFFFFFFE0000
0001FFFFFFFE0000
0001FFFFFFFE0000
0001FFFFFFFE0000
0001FFFFFFFE0000
0001FFFFFFFE0000
0001FFFFFFFE0000
0001FFFFFFFE0000
0001FFFFFFFE0000
0001FFFFFFFE0000
0001FFFFFFFE0000
0001FFFFFFFE0000
0001FFFFFFFE0000
ENDCHAR
STARTCHAR 005A
ENCODING 90
SWIDTH 687 0
DWIDTH 66 0
BBX 64 91 1 6
BITMAP
FFFFFFFFFFFFFFFE
FFFFFFFFFFFFFFFE
FFFFFFFFFFFFFFFE
FFFFFFFFFFFFFFFE
FFFFFFFFFFFFFFFE
FFFFFFFFFFFFFFFE
FFFFFFFFFFFFFFFE
FFFFFFFFFFFFFFFE
FFFFFFFFFFFFFFFE
FFFFFFFFFFFFFFFE
FFFFFFFFFFFFFFFE
FFFFFFFFFFFFFFFE
FFFFFFFFFFFFFFFE
FFFFFFFFFFFFFFFE
FFFFFFFFFFFFFFFE
FFFFFFFFFFFFFFFE
FFFFFFFFFFFFFFFE
FFFFFFFFFFFFFFFE
FFFFFFFFFFFFFFFE
FFFFFFFFFFFFFFFE
FFFFFFFFFFFFFFFE
FFFFFFFFFFFFFFFE
FFFFFFFFFFFFFFFE
FFFF000007FFFFFC
FFFF00000FFFFFF8
FFFF00001FFFFFF0
FFFF00003FFFFFE0
000000003FFFFFE0
000000007FFFFFC0
00000000FFFFFF80
00000001FFFFFF00
00000003FFFFFE00
00000003FFFFFE00
00000007FFFFFC00
0000000FFFFFF800
0000001FFFFFF000
0000003FFFFFE000
0000007FFFFFE000
0000007FFFFFC000
000000FFFFFF8000
000001FFFFFF0000
000003FFFFFE0000
000007FFFFFE0000
000007FFFFFC0000
00000FFFFFF80000
00001FFFFFF00000
00003FFFFFE00000
00007FFFFFC00000
00007FFFFFC00000
0000FFFFFF800000
0001FFFFFF000000
0003FFFFFE000000
0007FFFFFC000000
0007FFFFFC000000
000FFFFFF8000000
001FFFFFF0000000
003FFFFFE0000000
007FFFFFC0000000
00FFFFFFC0000000
00FFFFFF80000000
01FFFFFF00000000
03FFFFFE00000000
07FFFFFC00000000
0FFFFFFC00000000
0FFFFFF80007FFFF
1FFFFFF00007FFFF
3FFFFFE00007FFFF
7FFFFFC00007FFFF
FFFFFFC00007FFFF
FFFFFFFFFFFFFFFF
FFFFFFFFFFFFFFFF
FFFFFFFFFFFFFFFF
FFFFFFFFFFFFFFFF
FFFFFFFFFFFFFFFF
FFFFFFFFFFFFFFFF
FFFFFFFFFFFFFFFF
FFFFFFFFFFFFFFFF
FFFFFFFFFFFFFFFF
FFFFFFFFFFFFFFFF
FFFFFFFFFFFFFFFF
FFFFFFFFFFFFFFFF
FFFFFFFFFFFFFFFF
FFFFFFFFFFFFFFFF
FFFFFFFFFFFFFFFF
FFFFFFFFFFFFFFFF
FFFFFFFFFFFFFFFF
FFFFFFFFFFFFFFFF
FFFFFFFFFFFFFFFF
FFFFFFFFFFFFFFFF
FFFFFFFFFFFFFFFF
FFFFFFFFFFFFFFFF
ENDCHAR
STARTCHAR 005B
ENCODING 91
SWIDTH 229 0
DWIDTH 22 0
BBX 22 91 0 6
BITMAP
FFFFFC
FFFFFC
FFFFFC
FFFFFC
FFFFFC
FFFFFC
FFFFFC
FFFFFC
FFFFFC
FFFFFC
FFFFFC
FFFFFC
FFFFFC
FFFFFC
FFFFFC
FFFFFC
FFFFFC
FFFFFC
FFFFFC
FFFE00
FFFE00
FFFE00
FFFE00
FFFE00
FFFE00
FFFE00
FFFE00
FFFE00
FFFE00
FFFE00
FFFE00
FFFE00
FFFE00
FFFE00
FFFE00
FFFE00
FFFE00
FFFE00
FFFE00
FFFE00
FFFE00
FFFE00
FFFE00
FFFE00
FFFE00
FFFE00
FFFE00
FFFE00
FFFE00
FFFE00
FFFE00
FFFE00
FFFE00
FFFE00
FFFE00
FFFE00
FFFE00
FFFE00
FFFE00
FFFE00
FFFE00
FFFE00
FFFE00
FFFE00
FFFE00
FFFE00
FFFE00
FFFE00
FFFE00
FFFE00
FFFE00
FFFE00
FFFE00
FFFE00
FFFE00
FFFFF8
FFFFF8
FFFFF8
FFFFF8
FFFFF8
FFFFF8
FFFFF8
FFFFF8
FFFFF8
FFFFF8
FFFFF8
FFFFF8
FFFFF8
FFFFF8
FFFFF8
FFFFF8
ENDCHAR
STARTCHAR 005C
ENCODING 92
SWIDTH 500 0
DWIDTH 48 0
BBX 0 0 0 0
BITMAP
ENDCHAR
STARTCHAR 005D
ENCODING 93
SWIDTH 250 0
DWIDTH 24 0
BBX 22 91 0 6
BITMAP
FFFFFC
FFFFFC
FFFFFC
FFFFFC
FFFFFC
FFFFFC
FFFFFC
FFFFFC
FFFFFC
FFFFFC
FFFFFC
FFFFFC
FFFFFC
FFFFFC
FFFFFC
FFFFFC
FFFFFC
FFFFFC
FFFFFC
01FFFC
01FFFC
01FFFC
01FFFC
01FFFC
01FFFC
01FFFC
01FFFC
01FFFC
01FFFC
01FFFC
01FFFC
01FFFC
01FFFC
01FFFC
01FFFC
01FFFC
01FFFC
01FFFC
01FFFC
01FFFC
01FFFC
01FFFC
01FFFC
01FFFC
01FFFC
01FFFC
01FFFC
01FFFC
01FFFC
01FFFC
01FFFC
01FFFC
01FFFC
01FFFC
01FFFC
01FFFC
01FFFC
01FFFC
01FFFC
01FFFC
01FFFC
01FFFC
01FFFC
01FFFC
01FFFC
01FFFC
01FFFC
01FFFC
01FFFC
01FFFC
01FFFC
01FFFC
01FFFC
01FFFC
01FFFC
7FFFFC
7FFFFC
7FFFFC
7FFFFC
7FFFFC
7FFFFC
7FFFFC
7FFFFC
7FFFFC
7FFFFC
7FFFFC
7FFFFC
7FFFFC
7FFFFC
7FFFFC
7FFFFC
ENDCHAR
STARTCHAR 005E
ENCODING 94
SWIDTH 500 0
DWIDTH 48 0
BBX 0 0 0 0
BITMAP
ENDCHAR
STARTCHAR 005F
ENCODING 95
SWIDTH 500 0
DWIDTH 48 0
BBX 0 0 0 0
BITMAP
ENDCHAR
STARTCHAR 0060
ENCODING 96
SWIDTH 500 0
DWIDTH 48 0
BBX 0 0 0 0
BITMAP
ENDCHAR
STARTCHAR 0061
ENCODING 97
SWIDTH 781 0
DWIDTH 75 0
BBX 73 90 1 6
BITMAP
0000003FFFFE00000000
0000003FFFFE00000000
0000003FFFFE00000000
0000007FFFFF00000000
0000007FFFFF00000000
0000007FFFFF00000000
000000FFFFFF00000000
000000FFFFFF80000000
000000FFFFFF80000000
000000FFFFFF80000000
000001FFFFFF80000000
000001FFFFFFC0000000
000001FFFFFFC0000000
000001FFFFFFC0000000
000003FFFFFFE0000000
000003FFFFFFE0000000
000003FFFFFFE0000000
000007FFFFFFE0000000
000007FFFFFFF0000000
000007FFFFFFF0000000
000007FFFFFFF0000000
00000FFFFFFFF0000000
00000FFFFFFFF8000000
00000FFFFFFFF8000000
00001FFFFFFFF8000000
00001FFFFFFFFC000000
00001FFFFFFFFC000000
00001FFFFFFFFC000000
00003FFFFFFFFC000000
00003FFFFFFFFE000000
00003FFFFFFFFE000000
00003FFFFFFFFE000000
00007FFFF7FFFE000000
00007FFFE7FFFF000000
00007FFFE7FFFF000000
0000FFFFE3FFFF000000
0000FFFFC3FFFF000000
0000FFFFC3FFFF800000
0000FFFFC3FFFF800000
0001FFFFC1FFFF800000
0001FFFF81FFFFC00000
0001FFFF81FFFFC00000
0003FFFF80FFFFC00000
0003FFFF00FFFFC00000
0003FFFFFFFFFFE00000
0003FFFFFFFFFFE00000
0007FFFFFFFFFFE00000
0007FFFFFFFFFFE00000
0007FFFFFFFFFFF00000
0007FFFFFFFFFFF00000
000FFFFFFFFFFFF00000
000FFFFFFFFFFFF80000
000FFFFFFFFFFFF80000
001FFFFFFFFFFFF80000
001FFFFFFFFFFFF80000
001FFFFFFFFFFFFC0000
001FFFFFFFFFFFFC0000
003FFFFFFFFFFFFC0000
003FFFFFFFFFFFFC0000
003FFFFFFFFFFFFE0000
007FFFFFFFFFFFFE0000
007FFFFFFFFFFFFE0000
007FFFFFFFFFFFFF0000
007FFFF8000FFFFF0000
00FFFFF0000FFFFF0000
00FFFFF00007FFFF0000
00FFFFF00007FFFF8000
00FFFFE00007FFFF8000
FFFFFFFF007FFFFFFF80
FFFFFFFF007FFFFFFF80
FFFFFFFF007FFFFFFF80
FFFFFFFF007FFFFFFF80
FFFFFFFF007FFFFFFF80
FFFFFFFF007FFFFFFF80
FFFFFFFF007FFFFFFF80
FFFFFFFF007FFFFFFF80
FFFFFFFF007FFFFFFF80
FFFFFFFF007FFFFFFF80
FFFFFFFF007FFFFFFF80
FFFFFFFF007FFFFFFF80
FFFFFFFF007FFFFFFF80
FFFFFFFF007FFFFFFF80
FFFFFFFF007FFFFFFF80
FFFFFFFF007FFFFFFF80
FFFFFFFF007FFFFFFF80
FFFFFFFF007FFFFFFF80
FFFFFFFF007FFFFFFF80
FFFFFFFF007FFFFFFF80
FFFFFFFF007FFFFFFF80
FFFFFFFF007FFFFFFF80
ENDCHAR
STARTCHAR 0062
ENCODING 98
SWIDTH 645 0
DWIDTH 62 0
BBX 59 89 1 6
BITMAP
FFFFFFFFFFFC0000
FFFFFFFFFFFE0000
FFFFFFFFFFFF0000
FFFFFFFFFFFF8000
FFFFFFFFFFFFC000
FFFFFFFFFFFFE000
FFFFFFFFFFFFF000
FFFFFFFFFFFFF800
FFFFFFFFFFFFF800
FFFFFFFFFFFFFC00
FFFFFFFFFFFFFE00
FFFFFFFFFFFFFF00
FFFFFFFFFFFFFF80
FFFFFFFFFFFFFFC0
FFFFFFFFFFFFFFE0
FFFFFFFFFFFFFFE0
FFFFFFFFFFFFFFE0
FFFFFFFFFFFFFFE0
FFFFFFFFFFFFFFE0
FFFFFFFFFFFFFFE0
FFFFFF0007FFFFE0
0FFFFF0003FFFFE0
0FFFFF0001FFFFE0
0FFFFF0000FFFFE0
0FFFFF00007FFFE0
0FFFFF00007FFFE0
0FFFFF00007FFFE0
0FFFFF00007FFFE0
0FFFFF00007FFFE0
0FFFFF00007FFFE0
0FFFFF00007FFFE0
0FFFFF00007FFFE0
0FFFFF0000FFFFE0
0FFFFF0001FFFFE0
0FFFFF0003FFFFE0
0FFFFFFFFFFFFFE0
0FFFFFFFFFFFFFC0
0FFFFFFFFFFFFF80
0FFFFFFFFFFFFF00
0FFFFFFFFFFFFE00
0FFFFFFFFFFFFC00
0FFFFFFFFFFFF800
0FFFFFFFFFFFF000
0FFFFFFFFFFFF000
0FFFFFFFFFFFE000
0FFFFFFFFFFFF000
0FFFFFFFFFFFF800
0FFFFFFFFFFFFC00
0FFFFFFFFFFFFE00
0FFFFFFFFFFFFF00
0FFFFFFFFFFFFF00
0FFFFFFFFFFFFF80
0FFFFFFFFFFFFFC0
0FFFFFFFFFFFFFE0
0FFFFF0007FFFFE0
0FFFFF0003FFFFE0
0FFFFF0001FFFFE0
0FFFFF0000FFFFE0
0FFFFF00007FFFE0
0FFFFF00007FFFE0
0FFFFF00007FFFE0
0FFFFF00007FFFE0
0FFFFF00007FFFE0
0FFFFF00007FFFE0
0FFFFF00007FFFE0
0FFFFF00007FFFE0
0FFFFF00007FFFE0
0FFFFF0000FFFFE0
FFFFFF0001FFFFE0
FFFFFF0003FFFFE0
FFFFFFFFFFFFFFE0
FFFFFFFFFFFFFFE0
FFFFFFFFFFFFFFE0
FFFFFFFFFFFFFFE0
FFFFFFFFFFFFFFE0
FFFFFFFFFFFFFFC0
FFFFFFFFFFFFFF80
FFFFFFFFFFFFFF00
FFFFFFFFFFFFFE00
FFFFFFFFFFFFFC00
FFFFFFFFFFFFF800
FFFFFFFFFFFFF000
FFFFFFFFFFFFF000
FFFFFFFFFFFFE000
FFFFFFFFFFFFC000
FFFFFFFFFFFF8000
FFFFFFFFFFFF0000
FFFFFFFFFFFE0000
FFFFFFFFFFFC0000
ENDCHAR
STARTCHAR 0063
ENCODING 99
SWIDTH 666 0
DWIDTH 64 0
BBX 63 90 0 6
BITMAP
000FFFFFFFFFC000
000FFFFFFFFFE000
001FFFFFFFFFF000
003FFFFFFFFFF800
007FFFFFFFFFFC00
00FFFFFFFFFFFE00
01FFFFFFFFFFFF00
03FFFFFFFFFFFF80
07FFFFFFFFFFFFC0
0FFFFFFFFFFFFFC0
1FFFFFFFFFFFFFE0
3FFFFFFFFFFFFFF0
3FFFFFFFFFFFFFF8
7FFFFFFFFFFFFFFC
FFFFFFFFFFFFFFFE
FFFFFFFFFFFFFFFE
FFFFFFFFFFFFFFFE
FFFFFFFFFFFFFFFE
FFFFF800001FFFFE
FFFFF000000FFFFE
FFFFE0000007FFFE
FFFFE0000003FFFE
FFFFE0000003FFFE
FFFFE0000003FFFE
FFFFE0000003FFFE
FFFFE0000003FFFE
FFFFE0000003FFFE
FFFFE0000003FFFE
FFFFE0000003FFFE
FFFFE0000003FFFE
FFFFE0000003FFFE
FFFFE0000003FFFE
FFFFE00000000000
FFFFE00000000000
FFFFE00000000000
FFFFE00000000000
FFFFE00000000000
FFFFE00000000000
FFFFE00000000000
FFFFE00000000000
FFFFE00000000000
FFFFE00000000000
FFFFE00000000000
FFFFE00000000000
FFFFE00000000000
FFFFE00000000000
FFFFE00000000000
FFFFE00000000000
FFFFE00000000000
FFFFE00000000000
FFFFE00000000000
FFFFE00000000000
FFFFE00000000000
FFFFE00000000000
FFFFE00000000000
FFFFE00000000000
FFFFE00000000000
FFFFE0000003FFFE
FFFFE0000003FFFE
FFFFE0000003FFFE
FFFFE0000003FFFE
FFFFE0000003FFFE
FFFFE0000003FFFE
FFFFE0000003FFFE
FFFFE0000003FFFE
FFFFE0000003FFFE
FFFFE0000003FFFE
FFFFE0000003FFFE
FFFFE0000007FFFE
FFFFF000000FFFFE
FFFFF800001FFFFE
FFFFFFFFFFFFFFFE
FFFFFFFFFFFFFFFE
FFFFFFFFFFFFFFFE
FFFFFFFFFFFFFFFE
FFFFFFFFFFFFFFFC
7FFFFFFFFFFFFFF8
3FFFFFFFFFFFFFF0
1FFFFFFFFFFFFFE0
0FFFFFFFFFFFFFE0
0FFFFFFFFFFFFFC0
07FFFFFFFFFFFF80
03FFFFFFFFFFFF00
01FFFFFFFFFFFE00
00FFFFFFFFFFFC00
007FFFFFFFFFF800
003FFFFFFFFFF800
003FFFFFFFFFF000
001FFFFFFFFFE000
000FFFFFFFFFC000
ENDCHAR
STARTCHAR 0064
ENCODING 100
SWIDTH 666 0
DWIDTH 64 0
BBX 63 90 0 5
BITMAP
FFFFFFFFFFFFE000
FFFFFFFFFFFFF000
FFFFFFFFFFFFF800
FFFFFFFFFFFFFC00
FFFFFFFFFFFFFE00
FFFFFFFFFFFFFF00
FFFFFFFFFFFFFF00
FFFFFFFFFFFFFF80
FFFFFFFFFFFFFFC0
FFFFFFFFFFFFFFE0
FFFFFFFFFFFFFFF0
FFFFFFFFFFFFFFF8
FFFFFFFFFFFFFFFC
FFFFFFFFFFFFFFFC
FFFFFFFFFFFFFFFE
FFFFFFFFFFFFFFFE
FFFFFFFFFFFFFFFE
FFFFFFFFFFFFFFFE
FFFFFFFFFFFFFFFE
FFFFFFFFFFFFFFFE
FFFFFE00007FFFFE
FFFFFE00003FFFFE
07FFFE00001FFFFE
07FFFE00001FFFFE
07FFFE00000FFFFE
07FFFE00000FFFFE
07FFFE00000FFFFE
07FFFE00000FFFFE
07FFFE00000FFFFE
07FFFE00000FFFFE
07FFFE00000FFFFE
07FFFE00000FFFFE
07FFFE00000FFFFE
07FFFE00000FFFFE
07FFFE00000FFFFE
07FFFE00000FFFFE
07FFFE00000FFFFE
07FFFE00000FFFFE
07FFFE00000FFFFE
07FFFE00000FFFFE
07FFFE00000FFFFE
07FFFE00000FFFFE
07FFFE00000FFFFE
07FFFE00000FFFFE
07FFFE00000FFFFE
07FFFE00000FFFFE
07FFFE00000FFFFE
07FFFE00000FFFFE
07FFFE00000FFFFE
07FFFE00000FFFFE
07FFFE00000FFFFE
07FFFE00000FFFFE
07FFFE00000FFFFE
07FFFE00000FFFFE
07FFFE00000FFFFE
07FFFE00000FFFFE
07FFFE00000FFFFE
07FFFE00000FFFFE
07FFFE00000FFFFE
07FFFE00000FFFFE
07FFFE00000FFFFE
07FFFE00000FFFFE
07FFFE00000FFFFE
07FFFE00000FFFFE
07FFFE00000FFFFE
07FFFE00001FFFFE
07FFFE00003FFFFE
07FFFE00003FFFFE
FFFFFE00007FFFFE
FFFFFFFFFFFFFFFE
FFFFFFFFFFFFFFFE
FFFFFFFFFFFFFFFE
FFFFFFFFFFFFFFFE
FFFFFFFFFFFFFFFE
FFFFFFFFFFFFFFFE
FFFFFFFFFFFFFFFE
FFFFFFFFFFFFFFFC
FFFFFFFFFFFFFFF8
FFFFFFFFFFFFFFF0
FFFFFFFFFFFFFFF0
FFFFFFFFFFFFFFE0
FFFFFFFFFFFFFFC0
FFFFFFFFFFFFFF80
FFFFFFFFFFFFFF00
FFFFFFFFFFFFFE00
FFFFFFFFFFFFFC00
FFFFFFFFFFFFFC00
FFFFFFFFFFFFF800
FFFFFFFFFFFFF000
FFFFFFFFFFFFE000
ENDCHAR
STARTCHAR 0065
ENCODING 101
SWIDTH 656 0
DWIDTH 63 0
BBX 62 90 1 6
BITMAP
FFFFFFFFFFFFFFF8
FFFFFFFFFFFFFFF8
FFFFFFFFFFFFFFF8
FFFFFFFFFFFFFFF8
FFFFFFFFFFFFFFF8
FFFFFFFFFFFFFFF8
FFFFFFFFFFFFFFF8
FFFFFFFFFFFFFFF8
FFFFFFFFFFFFFFF8
FFFFFFFFFFFFFFF8
FFFFFFFFFFFFFFF8
FFFFFFFFFFFFFFF8
FFFFFFFFFFFFFFF8
FFFFFFFFFFFFFFF8
FFFFFFFFFFFFFFF8
FFFFFFFFFFFFFFF8
FFFFFFFFFFFFFFF8
FFFFFFFFFFFFFFF8
FFFFFFFFFFFFFFF8
FFFFFFFFFFFFFFF8
FFFFFFFFFFFFFFF8
0FFFFE00003FFFF8
0FFFFE00003FFFF8
0FFFFE00003FFFF8
0FFFFE00003FFFF8
0FFFFE00003FFFF8
0FFFFE0000000000
0FFFFE0000000000
0FFFFE0000000000
0FFFFE0000000000
0FFFFE0000000000
0FFFFE0000000000
0FFFFE0000000000
0FFFFE0000000000
0FFFFFFFFFE00000
0FFFFFFFFFE00000
0FFFFFFFFFE00000
0FFFFFFFFFE00000
0FFFFFFFFFE00000
0FFFFFFFFFE00000
0FFFFFFFFFE00000
0FFFFFFFFFE00000
0FFFFFFFFFE00000
0FFFFFFFFFE00000
0FFFFFFFFFE00000
0FFFFFFFFFE00000
0FFFFFFFFFE00000
0FFFFFFFFFE00000
0FFFFFFFFFE00000
0FFFFFFFFFE00000
0FFFFFFFFFE00000
0FFFFFFFFFE00000
0FFFFFFFFFE00000
0FFFFFFFFFE00000
0FFFFF0000000000
0FFFFF0000000000
0FFFFF0000000000
0FFFFF0000000000
0FFFFF0000000000
0FFFFF0000000000
0FFFFF0000000000
0FFFFF0000000000
0FFFFF0000000000
0FFFFF00003FFFFC
0FFFFF00003FFFFC
0FFFFF00003FFFFC
0FFFFF00003FFFFC
0FFFFF00003FFFFC
FFFFFFFFFFFFFFFC
FFFFFFFFFFFFFFFC
FFFFFFFFFFFFFFFC
FFFFFFFFFFFFFFFC
FFFFFFFFFFFFFFFC
FFFFFFFFFFFFFFFC
FFFFFFFFFFFFFFFC
FFFFFFFFFFFFFFFC
FFFFFFFFFFFFFFFC
FFFFFFFFFFFFFFFC
FFFFFFFFFFFFFFFC
FFFFFFFFFFFFFFFC
FFFFFFFFFFFFFFFC
FFFFFFFFFFFFFFFC
FFFFFFFFFFFFFFFC
FFFFFFFFFFFFFFFC
FFFFFFFFFFFFFFFC
FFFFFFFFFFFFFFFC
FFFFFFFFFFFFFFFC
FFFFFFFFFFFFFFFC
FFFFFFFFFFFFFFFC
FFFFFFFFFFFFFFFC
ENDCHAR
STARTCHAR 0066
ENCODING 102
SWIDTH 468 0
DWIDTH 45 0
BBX 63 90 -1 6
BITMAP
FFFFFFFFFFFFFFFE
FFFFFFFFFFFFFFFE
FFFFFFFFFFFFFFFE
FFFFFFFFFFFFFFFE
FFFFFFFFFFFFFFFE
FFFFFFFFFFFFFFFE
FFFFFFFFFFFFFFFE
FFFFFFFFFFFFFFFE
FFFFFFFFFFFFFFFE
FFFFFFFFFFFFFFFE
FFFFFFFFFFFFFFFE
FFFFFFFFFFFFFFFE
FFFFFFFFFFFFFFFE
FFFFFFFFFFFFFFFE
FFFFFFFFFFFFFFFE
FFFFFFFFFFFFFFFE
FFFFFFFFFFFFFFFE
FFFFFFFFFFFFFFFE
FFFFFFFFFFFFFFFE
FFFFFFFFFFFFFFFE
FFFFFFFFFFFFFFFE
07FFFF80000FFFFE
07FFFF80000FFFFE
07FFFF80000FFFFE
07FFFF80000FFFFE
07FFFF80000FFFFE
07FFFF8000000000
07FFFF8000000000
07FFFF8000000000
07FFFF8000000000
07FFFF8000000000
07FFFF8000000000
07FFFF8000000000
07FFFF8000000000
07FFFFFFFFF00000
07FFFFFFFFF00000
07FFFFFFFFF00000
07FFFFFFFFF00000
07FFFFFFFFF00000
07FFFFFFFFF00000
07FFFFFFFFF00000
07FFFFFFFFF00000
07FFFFFFFFF00000
07FFFFFFFFF00000
07FFFFFFFFF00000
07FFFFFFFFF00000
07FFFFFFFFF00000
07FFFFFFFFF00000
07FFFFFFFFF00000
07FFFFFFFFF00000
07FFFFFFFFF00000
07FFFFFFFFF00000
07FFFFFFFFF00000
07FFFFFFFFF00000
07FFFF8000000000
07FFFF8000000000
07FFFF8000000000
07FFFF8000000000
07FFFF8000000000
07FFFF8000000000
07FFFF8000000000
07FFFF8000000000
07FFFF8000000000
07FFFF8000000000
07FFFF8000000000
07FFFF8000000000
07FFFF8000000000
07FFFF8000000000
FFFFFFFC00000000
FFFFFFFC00000000
FFFFFFFC00000000
FFFFFFFC00000000
FFFFFFFC00000000
FFFFFFFC00000000
FFFFFFFC00000000
FFFFFFFC00000000
FFFFFFFC00000000
FFFFFFFC00000000
FFFFFFFC00000000
FFFFFFFC00000000
FFFFFFFC00000000
FFFFFFFC00000000
FFFFFFFC00000000
FFFFFFFC00000000
FFFFFFFC00000000
FFFFFFFC00000000
FFFFFFFC00000000
FFFFFFFC00000000
FFFFFFFC00000000
FFFFFFFC00000000
ENDCHAR
STARTCHAR 0067
ENCODING 103
SWIDTH 656 0
DWIDTH 63 0
BBX 62 90 0 5
BITMAP
0007FFFFFFFFC000
000FFFFFFFFFE000
001FFFFFFFFFF000
003FFFFFFFFFF800
007FFFFFFFFFFC00
00FFFFFFFFFFFE00
01FFFFFFFFFFFF00
03FFFFFFFFFFFF80
07FFFFFFFFFFFFC0
0FFFFFFFFFFFFFE0
0FFFFFFFFFFFFFE0
1FFFFFFFFFFFFFF0
3FFFFFFFFFFFFFF8
7FFFFFFFFFFFFFFC
FFFFFFFFFFFFFFFC
FFFFFFFFFFFFFFFC
FFFFFFFFFFFFFFFC
FFFFFFFFFFFFFFFC
FFFFFFFFFFFFFFFC
FFFFFFFFFFFFFFFC
FFFFFFFFFFFFFFFC
FFFFFFFFFFFFFFFC
FFFFF800001FFFFC
FFFFF000001FFFFC
FFFFE000001FFFFC
FFFFE000001FFFFC
FFFFE000001FFFFC
FFFFE00000000000
FFFFE00000000000
FFFFE00000000000
FFFFE00000000000
FFFFE00000000000
FFFFE00000000000
FFFFE00000000000
FFFFE00000000000
FFFFE00000000000
FFFFE00000000000
FFFFE00000000000
FFFFE00003FFFFFC
FFFFE00003FFFFFC
FFFFE00003FFFFFC
FFFFE00003FFFFFC
FFFFE00003FFFFFC
FFFFE00003FFFFFC
FFFFE00003FFFFFC
FFFFE00003FFFFFC
FFFFE00003FFFFFC
FFFFE00003FFFFFC
FFFFE00003FFFFFC
FFFFE00003FFFFFC
FFFFE00003FFFFFC
FFFFE00003FFFFFC
FFFFE00003FFFFFC
FFFFE00003FFFFFC
FFFFE000001FFFFC
FFFFE000001FFFFC
FFFFE000001FFFFC
FFFFE000001FFFFC
FFFFE000001FFFFC
FFFFE000001FFFFC
FFFFE000001FFFFC
FFFFE000001FFFFC
FFFFE000001FFFFC
FFFFE000001FFFFC
FFFFE000001FFFFC
FFFFF000001FFFFC
FFFFF000001FFFFC
FFFFF800001FFFFC
FFFFFFFFFFFFFFFC
FFFFFFFFFFFFFFFC
FFFFFFFFFFFFFFFC
FFFFFFFFFFFFFFFC
FFFFFFFFFFFFFFFC
FFFFFFFFFFFFFFFC
FFFFFFFFFFFFFFFC
7FFFFFFFFFFFFFFC
7FFFFFFFFFFFFFFC
3FFFFFFFFFFFFFFC
1FFFFFFFFFFFFFFC
0FFFFFFFFFFFFFFC
07FFFFFFFFFFFFFC
03FFFFFFFFFFFFFC
01FFFFFFFFFFFFFC
00FFFFFFFFFFFFFC
007FFFFFFFFFFFFC
003FFFFFFFFFFFFC
003FFFFFFFFFFFFC
001FFFFFFFFFFFFC
000FFFFFFFFFFFFC
0007FFFFFFFFFFFC
ENDCHAR
STARTCHAR 0068
ENCODING 104
SWIDTH 791 0
DWIDTH 76 0
BBX 75 90 1 6
BITMAP
FFFFFFFF007FFFFFFFE0
FFFFFFFF007FFFFFFFE0
FFFFFFFF007FFFFFFFE0
FFFFFFFF007FFFFFFFE0
FFFFFFFF007FFFFFFFE0
FFFFFFFF007FFFFFFFE0
FFFFFFFF007FFFFFFFE0
FFFFFFFF007FFFFFFFE0
FFFFFFFF007FFFFFFFE0
FFFFFFFF007FFFFFFFE0
FFFFFFFF007FFFFFFFE0
FFFFFFFF007FFFFFFFE0
FFFFFFFF007FFFFFFFE0
FFFFFFFF007FFFFFFFE0
FFFFFFFF007FFFFFFFE0
FFFFFFFF007FFFFFFFE0
FFFFFFFF007FFFFFFFE0
FFFFFFFF007FFFFFFFE0
FFFFFFFF007FFFFFFFE0
FFFFFFFF007FFFFFFFE0
FFFFFFFF007FFFFFFFE0
FFFFFFFF007FFFFFFFE0
01FFFFC00000FFFFE000
01FFFFC00000FFFFE000
01FFFFC00000FFFFE000
01FFFFC00000FFFFE000
01FFFFC00000FFFFE000
01FFFFC00000FFFFE000
01FFFFC00000FFFFE000
01FFFFC00000FFFFE000
01FFFFC00000FFFFE000
01FFFFC00000FFFFE000
01FFFFC00000FFFFE000
01FFFFC00000FFFFE000
01FFFFC00000FFFFE000
01FFFFFFFFFFFFFFE000
01FFFFFFFFFFFFFFE000
01FFFFFFFFFFFFFFE000
01FFFFFFFFFFFFFFE000
01FFFFFFFFFFFFFFE000
01FFFFFFFFFFFFFFE000
01FFFFFFFFFFFFFFE000
01FFFFFFFFFFFFFFE000
01FFFFFFFFFFFFFFE000
01FFFFFFFFFFFFFFE000
01FFFFFFFFFFFFFFE000
01FFFFFFFFFFFFFFE000
01FFFFFFFFFFFFFFE000
01FFFFFFFFFFFFFFE000
01FFFFFFFFFFFFFFE000
01FFFFFFFFFFFFFFE000
01FFFFFFFFFFFFFFE000
01FFFFFFFFFFFFFFE000
01FFFFFFFFFFFFFFE000
01FFFFC00000FFFFE000
01FFFFC00000FFFFE000
01FFFFC00000FFFFE000
01FFFFC00000FFFFE000
01FFFFC00000FFFFE000
01FFFFC00000FFFFE000
01FFFFC00000FFFFE000
01FFFFC00000FFFFE000
01FFFFC00000FFFFE000
01FFFFC00000FFFFE000
01FFFFC00000FFFFE000
01FFFFC00000FFFFE000
01FFFFC00000FFFFE000
01FFFFC00000FFFFE000
FFFFFFFF007FFFFFFFC0
FFFFFFFF007FFFFFFFC0
FFFFFFFF007FFFFFFFC0
FFFFFFFF007FFFFFFFC0
FFFFFFFF007FFFFFFFC0
FFFFFFFF007FFFFFFFC0
FFFFFFFF007FFFFFFFC0
FFFFFFFF007FFFFFFFC0
FFFFFFFF007FFFFFFFC0
FFFFFFFF007FFFFFFFC0
FFFFFFFF007FFFFFFFC0
FFFFFFFF007FFFFFFFC0
FFFFFFFF007FFFFFFFC0
FFFFFFFF007FFFFFFFC0
FFFFFFFF007FFFFFFFC0
FFFFFFFF007FFFFFFFC0
FFFFFFFF007FFFFFFFC0
FFFFFFFF007FFFFFFFC0
FFFFFFFF007FFFFFFFC0
FFFFFFFF007FFFFFFFC0
FFFFFFFF007FFFFFFFC0
FFFFFFFF007FFFFFFFC0
ENDCHAR
STARTCHAR 0069
ENCODING 105
SWIDTH 322 0
DWIDTH 31 0
BBX 30 91 1 6
BITMAP
FFFFFFF8
FFFFFFF8
FFFFFFF8
FFFFFFF8
FFFFFFF8
FFFFFFF8
FFFFFFF8
FFFFFFF8
FFFFFFF8
FFFFFFF8
FFFFFFF8
FFFFFFF8
FFFFFFF8
FFFFFFF8
FFFFFFF8
FFFFFFF8
FFFFFFF8
FFFFFFF8
FFFFFFF8
FFFFFFF8
FFFFFFF8
FFFFFFF8
07FFFF80
07FFFF80
07FFFF80
07FFFF80
07FFFF80
07FFFF80
07FFFF80
07FFFF80
07FFFF80
07FFFF80
07FFFF80
07FFFF80
07FFFF80
07FFFF80
07FFFF80
07FFFF80
07FFFF80
07FFFF80
07FFFF80
07FFFF80
07FFFF80
07FFFF80
07FFFF80
07FFFF80
07FFFF80
07FFFF80
07FFFF80
07FFFF80
07FFFF80
07FFFF80
07FFFF80
07FFFF80
07FFFF80
07FFFF80
07FFFF80
07FFFF80
07FFFF80
07FFFF80
07FFFF80
07FFFF80
07FFFF80
07FFFF80
07FFFF80
07FFFF80
07FFFF80
07FFFF80
07FFFF80
FFFFFFFC
FFFFFFFC
FFFFFFFC
FFFFFFFC
FFFFFFFC
FFFFFFFC
FFFFFFFC
FFFFFFFC
FFFFFFFC
FFFFFFFC
FFFFFFFC
FFFFFFFC
FFFFFFFC
FFFFFFFC
FFFFFFFC
FFFFFFFC
FFFFFFFC
FFFFFFFC
FFFFFFFC
FFFFFFFC
FFFFFFFC
FFFFFFFC
ENDCHAR
STARTCHAR 006A
ENCODING 106
SWIDTH 500 0
DWIDTH 48 0
BBX 55 90 0 5
BITMAP
00000FFFFFFFFE
00000FFFFFFFFE
00000FFFFFFFFE
00000FFFFFFFFE
00000FFFFFFFFE
00000FFFFFFFFE
00000FFFFFFFFE
00000FFFFFFFFE
00000FFFFFFFFE
00000FFFFFFFFE
00000FFFFFFFFE
00000FFFFFFFFE
00000FFFFFFFFE
00000FFFFFFFFE
00000FFFFFFFFE
00000FFFFFFFFE
00000FFFFFFFFE
00000FFFFFFFFE
00000FFFFFFFFE
00000FFFFFFFFE
00000FFFFFFFFE
00000FFFFFFFFE
0000000FFFFE00
0000000FFFFE00
0000000FFFFE00
0000000FFFFE00
0000000FFFFE00
0000000FFFFE00
0000000FFFFE00
0000000FFFFE00
0000000FFFFE00
0000000FFFFE00
0000000FFFFE00
0000000FFFFE00
0000000FFFFE00
0000000FFFFE00
0000000FFFFE00
0000000FFFFE00
0000000FFFFE00
0000000FFFFE00
0000000FFFFE00
0000000FFFFE00
0000000FFFFE00
0000000FFFFE00
0000000FFFFE00
0000000FFFFE00
0000000FFFFE00
0000000FFFFE00
0000000FFFFE00
0000000FFFFE00
0000000FFFFE00
0000000FFFFE00
0000000FFFFE00
0000000FFFFE00
0000000FFFFE00
0000000FFFFE00
FFFFF00FFFFE00
FFFFF00FFFFE00
FFFFF00FFFFE00
FFFFF00FFFFE00
FFFFF00FFFFE00
FFFFF00FFFFE00
FFFFF00FFFFE00
FFFFF00FFFFE00
FFFFF00FFFFE00
FFFFF00FFFFE00
FFFFF00FFFFE00
FFFFF00FFFFE00
FFFFF81FFFFE00
FFFFFFFFFFFE00
FFFFFFFFFFFE00
FFFFFFFFFFFE00
FFFFFFFFFFFE00
FFFFFFFFFFFE00
FFFFFFFFFFFE00
FFFFFFFFFFFE00
FFFFFFFFFFFE00
7FFFFFFFFFFC00
3FFFFFFFFFFC00
1FFFFFFFFFF800
0FFFFFFFFFF000
07FFFFFFFFE000
03FFFFFFFFC000
01FFFFFFFFC000
01FFFFFFFF8000
00FFFFFFFF0000
007FFFFFFE0000
003FFFFFFC0000
001FFFFFFC0000
000FFFFFF80000
ENDCHAR
STARTCHAR 006B
ENCODING 107
SWIDTH 781 0
DWIDTH 75 0
BBX 74 90 1 5
BITMAP
FFFFFFFC000FFFFFFFC0
FFFFFFFC000FFFFFFFC0
FFFFFFFC000FFFFFFFC0
FFFFFFFC000FFFFFFFC0
FFFFFFFC000FFFFFFFC0
FFFFFFFC000FFFFFFFC0
FFFFFFFC000FFFFFFFC0
FFFFFFFC000FFFFFFFC0
FFFFFFFC000FFFFFFFC0
FFFFFFFC000FFFFFFFC0
FFFFFFFC000FFFFFFFC0
FFFFFFFC000FFFFFFFC0
FFFFFFFC000FFFFFFFC0
FFFFFFFC000FFFFFFFC0
FFFFFFFC000FFFFFFFC0
FFFFFFFC000FFFFFFFC0
FFFFFFFC000FFFFFFFC0
FFFFFFFC000FFFFFFFC0
FFFFFFFC000FFFFFFFC0
FFFFFFFC000FFFFFFFC0
FFFFFFFC000FFFFFFFC0
FFFFFFFC000FFFFFFFC0
07FFFF800000FFFFF800
07FFFF800001FFFFF000
07FFFF800003FFFFE000
07FFFF800007FFFFC000
07FFFF80000FFFFF8000
07FFFF80000FFFFF0000
07FFFF80001FFFFE0000
07FFFF80003FFFFC0000
07FFFF80007FFFF80000
07FFFF8000FFFFF00000
07FFFF8001FFFFE00000
07FFFF8003FFFFC00000
07FFFF8007FFFF800000
07FFFF800FFFFF000000
07FFFF801FFFFE000000
07FFFF803FFFFC000000
07FFFF807FFFF8000000
07FFFF80FFFFF0000000
07FFFF81FFFFE0000000
07FFFF83FFFFC0000000
07FFFF87FFFFC0000000
07FFFF8FFFFFC0000000
07FFFF9FFFFFE0000000
07FFFFBFFFFFF0000000
07FFFFFFFFFFF0000000
07FFFFFFFFFFF8000000
07FFFFFFFFFFFC000000
07FFFFFFFFFFFC000000
07FFFFFFFFFFFE000000
07FFFFFFFFFFFF000000
07FFFFFFFFFFFF800000
07FFFFFFFFFFFF800000
07FFFFFFFFFFFFC00000
07FFFFFFF9FFFFE00000
07FFFFFFF0FFFFE00000
07FFFFFFE07FFFF00000
07FFFFFFC07FFFF80000
07FFFFFF803FFFF80000
07FFFFFF001FFFFC0000
07FFFFFE001FFFFE0000
07FFFFFC000FFFFE0000
07FFFFF80007FFFF0000
07FFFFF00003FFFF8000
07FFFFE00003FFFF8000
07FFFFC00001FFFFC000
07FFFF800000FFFFE000
07FFFF000000FFFFE000
FFFFFFFC000FFFFFFFC0
FFFFFFFC000FFFFFFFC0
FFFFFFFC000FFFFFFFC0
FFFFFFFC000FFFFFFFC0
FFFFFFFC000FFFFFFFC0
FFFFFFFC000FFFFFFFC0
FFFFFFFC000FFFFFFFC0
FFFFFFFC000FFFFFFFC0
FFFFFFFC000FFFFFFFC0
FFFFFFFC000FFFFFFFC0
FFFFFFFC000FFFFFFFC0
FFFFFFFC000FFFFFFFC0
FFFFFFFC000FFFFFFFC0
FFFFFFFC000FFFFFFFC0
FFFFFFFC000FFFFFFFC0
FFFFFFFC000FFFFFFFC0
FFFFFFFC000FFFFFFFC0
FFFFFFFC000FFFFFFFC0
FFFFFFFC000FFFFFFFC0
FFFFFFFC000FFFFFFFC0
FFFFFFFC000FFFFFFFC0
ENDCHAR
STARTCHAR 006C
ENCODING 108
SWIDTH 604 0
DWIDTH 58 0
BBX 58 90 0 5
BITMAP
FFFFFFFC00000000
FFFFFFFC00000000
FFFFFFFC00000000
FFFFFFFC00000000
FFFFFFFC00000000
FFFFFFFC00000000
FFFFFFFC00000000
FFFFFFFC00000000
FFFFFFFC00000000
FFFFFFFC00000000
FFFFFFFC00000000
FFFFFFFC00000000
FFFFFFFC00000000
FFFFFFFC00000000
FFFFFFFC00000000
FFFFFFFC00000000
FFFFFFFC00000000
FFFFFFFC00000000
FFFFFFFC00000000
FFFFFFFC00000000
FFFFFFFC00000000
FFFFFFFC00000000
07FFFF0000000000
07FFFF0000000000
07FFFF0000000000
07FFFF0000000000
07FFFF0000000000
07FFFF0000000000
07FFFF0000000000
07FFFF0000000000
07FFFF0000000000
07FFFF0000000000
07FFFF0000000000
07FFFF0000000000
07FFFF0000000000
07FFFF0000000000
07FFFF0000000000
07FFFF0000000000
07FFFF0000000000
07FFFF0000000000
07FFFF0000000000
07FFFF0000000000
07FFFF0000000000
07FFFF0000000000
07FFFF0000000000
07FFFF0000000000
07FFFF0000000000
07FFFF0000000000
07FFFF0000000000
07FFFF0000000000
07FFFF0000000000
07FFFF0000000000
07FFFF0000000000
07FFFF0000000000
07FFFF0000000000
07FFFF0000000000
07FFFF0000000000
07FFFF0000000000
07FFFF0000000000
07FFFF0000000000
07FFFF0000000000
07FFFF0000000000
07FFFF0003FFFFC0
07FFFF0003FFFFC0
07FFFF0003FFFFC0
07FFFF0003FFFFC0
07FFFF0003FFFFC0
07FFFF0003FFFFC0
07FFFF0003FFFFC0
FFFFFFFFFFFFFFC0
FFFFFFFFFFFFFFC0
FFFFFFFFFFFFFFC0
FFFFFFFFFFFFFFC0
FFFFFFFFFFFFFFC0
FFFFFFFFFFFFFFC0
FFFFFFFFFFFFFFC0
FFFFFFFFFFFFFFC0
FFFFFFFFFFFFFFC0
FFFFFFFFFFFFFFC0
FFFFFFFFFFFFFFC0
FFFFFFFFFFFFFFC0
FFFFFFFFFFFFFFC0
FFFFFFFFFFFFFFC0
FFFFFFFFFFFFFFC0
FFFFFFFFFFFFFFC0
FFFFFFFFFFFFFFC0
FFFFFFFFFFFFFFC0
FFFFFFFFFFFFFFC0
FFFFFFFFFFFFFFC0
FFFFFFFFFFFFFFC0
ENDCHAR
STARTCHAR 006D
ENCODING 109
SWIDTH 843 0
DWIDTH 81 0
BBX 79 90 1 5
BITMAP
FFFFFF80000000FFFFFE
FFFFFF80000001FFFFFE
FFFFFFC0000003FFFFFE
FFFFFFC0000003FFFFFE
FFFFFFE0000007FFFFFE
FFFFFFE0000007FFFFFE
FFFFFFF000000FFFFFFE
FFFFFFF000000FFFFFFE
FFFFFFF800001FFFFFFE
FFFFFFF800001FFFFFFE
FFFFFFFC00003FFFFFFE
FFFFFFFC00007FFFFFFE
FFFFFFFE00007FFFFFFE
FFFFFFFE0000FFFFFFFE
FFFFFFFF0000FFFFFFFE
FFFFFFFF0001FFFFFFFE
FFFFFFFF8001FFFFFFFE
FFFFFFFF8003FFFFFFFE
FFFFFFFFC003FFFFFFFE
FFFFFFFFC007FFFFFFFE
FFFFFFFFE00FFFFFFFFE
FFFFFFFFE00FFFFFFFFE
FFFFFFFFE01FFFFFFFFE
0FFFFFFFF01FFFFFFFC0
0FFFFFFFF03FFFFFFFC0
0FFFFFFFF83FFFFFFFC0
0FFFFFFFF87FFFFFFFC0
0FFFFFFFFC7FFFFFFFC0
0FFFFFFFFCFFFFFFFFC0
0FFFFFFFFFFFFFFFFFC0
0FFFFFFFFFFFFFFFFFC0
0FFFFFFFFFFFFFFFFFC0
0FFFFFFFFFFFFFFFFFC0
0FFFFFFFFFFFFFFFFFC0
0FFFFFFFFFFFFFFFFFC0
0FFFFFFFFFFFFFFFFFC0
0FFFFFFFFFFFFFFFFFC0
0FFFFFFFFFFFFFFFFFC0
0FFFFFFFFFFFFFFFFFC0
0FFFFFFFFFFFFFFFFFC0
0FFFFFFFFFFFFFFFFFC0
0FFFFFFFFFFFFFFFFFC0
0FFFFFFFFFFFFFFFFFC0
0FFFFEFFFFFFFEFFFFC0
0FFFFEFFFFFFFEFFFFC0
0FFFFE7FFFFFFCFFFFC0
0FFFFE7FFFFFF8FFFFC0
0FFFFE3FFFFFF8FFFFC0
0FFFFE3FFFFFF0FFFFC0
0FFFFE1FFFFFE0FFFFC0
0FFFFE1FFFFFE0FFFFC0
0FFFFE0FFFFFC0FFFFC0
0FFFFE07FFFFC0FFFFC0
0FFFFE07FFFF80FFFFC0
0FFFFE03FFFF00FFFFC0
0FFFFE03FFFF00FFFFC0
0FFFFE01FFFE00FFFFC0
0FFFFE01FFFE00FFFFC0
0FFFFE00FFFC00FFFFC0
0FFFFE007FF800FFFFC0
0FFFFE007FF800FFFFC0
0FFFFE00000000FFFFC0
0FFFFE00000000FFFFC0
0FFFFE00000000FFFFC0
0FFFFE00000000FFFFC0
0FFFFE00000000FFFFC0
0FFFFE00000000FFFFC0
0FFFFE00000000FFFFC0
0FFFFE00000000FFFFC0
FFFFFFE000001FFFFFFE
FFFFFFE000001FFFFFFE
FFFFFFE000001FFFFFFE
FFFFFFE000001FFFFFFE
FFFFFFE000001FFFFFFE
FFFFFFE000001FFFFFFE
FFFFFFE000001FFFFFFE
FFFFFFE000001FFFFFFE
FFFFFFE000001FFFFFFE
FFFFFFE000001FFFFFFE
FFFFFFE000001FFFFFFE
FFFFFFE000001FFFFFFE
FFFFFFE000001FFFFFFE
FFFFFFE000001FFFFFFE
FFFFFFE000001FFFFFFE
FFFFFFE000001FFFFFFE
FFFFFFE000001FFFFFFE
FFFFFFE000001FFFFFFE
FFFFFFE000001FFFFFFE
FFFFFFE000001FFFFFFE
FFFFFFE000001FFFFFFE
ENDCHAR
STARTCHAR 006E
ENCODING 110
SWIDTH 697 0
DWIDTH 67 0
BBX 71 91 0 6
BITMAP
FFFFFF00003FFFFFFE
FFFFFF80003FFFFFFE
FFFFFF80003FFFFFFE
FFFFFFC0003FFFFFFE
FFFFFFC0003FFFFFFE
FFFFFFE0003FFFFFFE
FFFFFFE0003FFFFFFE
FFFFFFF0003FFFFFFE
FFFFFFF0003FFFFFFE
FFFFFFF8003FFFFFFE
FFFFFFF8003FFFFFFE
FFFFFFFC003FFFFFFE
FFFFFFFC003FFFFFFE
FFFFFFFE003FFFFFFE
FFFFFFFE003FFFFFFE
FFFFFFFF003FFFFFFE
FFFFFFFF003FFFFFFE
FFFFFFFF803FFFFFFE
FFFFFFFF803FFFFFFE
FFFFFFFFC03FFFFFFE
FFFFFFFFC03FFFFFFE
FFFFFFFFE03FFFFFFE
FFFFFFFFE03FFFFFFE
07FFFFFFF001FFFFC0
07FFFFFFF001FFFFC0
07FFFFFFF801FFFFC0
07FFFFFFF801FFFFC0
07FFFFFFFC01FFFFC0
07FFFFFFFC01FFFFC0
07FFFFFFFE01FFFFC0
07FFFFFFFE01FFFFC0
07FFFFFFFF01FFFFC0
07FFFFFFFF01FFFFC0
07FFFFFFFF81FFFFC0
07FFFFFFFF81FFFFC0
07FFFFFFFFC1FFFFC0
07FFFFFFFFC1FFFFC0
07FFFFFFFFE1FFFFC0
07FFFFFFFFE1FFFFC0
07FFFFFFFFF1FFFFC0
07FFFFFFFFF1FFFFC0
07FFFFFFFFF9FFFFC0
07FFFFFFFFF9FFFFC0
07FFFFFFFFFDFFFFC0
07FFFFFFFFFDFFFFC0
07FFFFFFFFFFFFFFC0
07FFFFFFFFFFFFFFC0
07FFFF7FFFFFFFFFC0
07FFFF7FFFFFFFFFC0
07FFFF3FFFFFFFFFC0
07FFFF3FFFFFFFFFC0
07FFFF1FFFFFFFFFC0
07FFFF1FFFFFFFFFC0
07FFFF0FFFFFFFFFC0
07FFFF0FFFFFFFFFC0
07FFFF07FFFFFFFFC0
07FFFF07FFFFFFFFC0
07FFFF03FFFFFFFFC0
07FFFF03FFFFFFFFC0
07FFFF01FFFFFFFFC0
07FFFF01FFFFFFFFC0
07FFFF00FFFFFFFFC0
07FFFF00FFFFFFFFC0
07FFFF007FFFFFFFC0
07FFFF007FFFFFFFC0
07FFFF003FFFFFFFC0
07FFFF003FFFFFFFC0
07FFFF001FFFFFFFC0
07FFFF001FFFFFFFC0
FFFFFFF80FFFFFFFC0
FFFFFFF80FFFFFFFC0
FFFFFFF807FFFFFFC0
FFFFFFF807FFFFFFC0
FFFFFFF803FFFFFFC0
FFFFFFF801FFFFFFC0
FFFFFFF801FFFFFFC0
FFFFFFF800FFFFFFC0
FFFFFFF800FFFFFFC0
FFFFFFF8007FFFFFC0
FFFFFFF8007FFFFFC0
FFFFFFF8003FFFFFC0
FFFFFFF8003FFFFFC0
FFFFFFF8001FFFFFC0
FFFFFFF8001FFFFFC0
FFFFFFF8000FFFFFC0
FFFFFFF8000FFFFFC0
FFFFFFF80007FFFFC0
FFFFFFF80007FFFFC0
FFFFFFF80003FFFFC0
FFFFFFF80003FFFFC0
FFFFFFF80001FFFFC0
ENDCHAR
STARTCHAR 006F
ENCODING 111
SWIDTH 687 0
DWIDTH 66 0
BBX 65 89 0 6
BITMAP
0007FFFFFFFFF80000
000FFFFFFFFFFC0000
000FFFFFFFFFFE0000
001FFFFFFFFFFF0000
003FFFFFFFFFFF8000
007FFFFFFFFFFF8000
00FFFFFFFFFFFFC000
01FFFFFFFFFFFFE000
01FFFFFFFFFFFFF000
03FFFFFFFFFFFFF800
07FFFFFFFFFFFFFC00
0FFFFFFFFFFFFFFE00
1FFFFFFFFFFFFFFF00
3FFFFFFFFFFFFFFF80
7FFFFFFFFFFFFFFF80
7FFFFFFFFFFFFFFF80
FFFFFFFFFFFFFFFF80
FFFFFFFFFFFFFFFF80
FFFFFF00003FFFFF80
FFFFFE00001FFFFF80
FFFFF800000FFFFF80
FFFFF0000007FFFF80
FFFFE0000003FFFF80
FFFFE0000003FFFF80
FFFFE0000003FFFF80
FFFFE0000003FFFF80
FFFFE0000003FFFF80
FFFFE0000003FFFF80
FFFFE0000003FFFF80
FFFFE0000003FFFF80
FFFFE0000003FFFF80
FFFFE0000003FFFF80
FFFFE0000003FFFF80
FFFFE0000003FFFF80
FFFFE0000003FFFF80
FFFFE0000003FFFF80
FFFFE0000003FFFF80
FFFFE0000003FFFF80
FFFFE0000003FFFF80
FFFFE0000003FFFF80
FFFFE0000003FFFF80
FFFFE0000003FFFF80
FFFFE0000003FFFF80
FFFFE0000003FFFF80
FFFFE0000003FFFF80
FFFFE0000003FFFF80
FFFFE0000003FFFF80
FFFFE0000003FFFF80
FFFFE0000003FFFF80
FFFFE0000003FFFF80
FFFFE0000003FFFF80
FFFFE0000003FFFF80
FFFFE0000003FFFF80
FFFFE0000003FFFF80
FFFFE0000003FFFF80
FFFFE0000003FFFF80
FFFFE0000003FFFF80
FFFFE0000003FFFF80
FFFFE0000003FFFF80
FFFFE0000003FFFF80
FFFFE0000003FFFF80
FFFFE0000003FFFF80
FFFFE0000003FFFF80
FFFFE0000003FFFF80
FFFFE0000003FFFF80
FFFFE0000003FFFF80
FFFFF0000007FFFF80
FFFFF800000FFFFF80
FFFFFC00001FFFFF80
FFFFFE00003FFFFF80
FFFFFFFFFFFFFFFF80
FFFFFFFFFFFFFFFF80
FFFFFFFFFFFFFFFF80
FFFFFFFFFFFFFFFF80
FFFFFFFFFFFFFFFF80
7FFFFFFFFFFFFFFF80
3FFFFFFFFFFFFFFF00
1FFFFFFFFFFFFFFE00
0FFFFFFFFFFFFFFC00
07FFFFFFFFFFFFF800
03FFFFFFFFFFFFF000
01FFFFFFFFFFFFE000
00FFFFFFFFFFFFE000
00FFFFFFFFFFFFC000
007FFFFFFFFFFF8000
003FFFFFFFFFFF0000
001FFFFFFFFFFE0000
000FFFFFFFFFFC0000
0007FFFFFFFFF80000
ENDCHAR
STARTCHAR 0070
ENCODING 112
SWIDTH 687 0
DWIDTH 66 0
BBX 64 89 1 6
BITMAP
FFFFFFFFFFFFE000
FFFFFFFFFFFFE000
FFFFFFFFFFFFF000
FFFFFFFFFFFFF800
FFFFFFFFFFFFFC00
FFFFFFFFFFFFFC00
FFFFFFFFFFFFFE00
FFFFFFFFFFFFFF00
FFFFFFFFFFFFFF80
FFFFFFFFFFFFFF80
FFFFFFFFFFFFFFC0
FFFFFFFFFFFFFFE0
FFFFFFFFFFFFFFF0
FFFFFFFFFFFFFFF0
FFFFFFFFFFFFFFF8
FFFFFFFFFFFFFFFC
FFFFFFFFFFFFFFFE
FFFFFFFFFFFFFFFE
FFFFFF00000FFFFF
FFFFFF000007FFFF
FFFFFF000007FFFF
FFFFFF000003FFFF
FFFFFF000001FFFF
07FFFF000001FFFF
07FFFF000001FFFF
07FFFF000001FFFF
07FFFF000001FFFF
07FFFF000001FFFF
07FFFF000001FFFF
07FFFF000001FFFF
07FFFF000001FFFF
07FFFF000001FFFF
07FFFF000001FFFF
07FFFF000001FFFF
07FFFF000001FFFF
07FFFF000001FFFF
07FFFF000001FFFF
07FFFF000003FFFF
07FFFF000007FFFF
07FFFF000007FFFF
07FFFF00000FFFFF
07FFFF00001FFFFF
07FFFFFFFFFFFFFF
07FFFFFFFFFFFFFE
07FFFFFFFFFFFFFC
07FFFFFFFFFFFFF8
07FFFFFFFFFFFFF8
07FFFFFFFFFFFFF0
07FFFFFFFFFFFFE0
07FFFFFFFFFFFFC0
07FFFFFFFFFFFF80
07FFFFFFFFFFFF00
07FFFFFFFFFFFF00
07FFFFFFFFFFFE00
07FFFFFFFFFFFC00
07FFFFFFFFFFF800
07FFFFFFFFFFF000
07FFFFFFFFFFE000
07FFFF0000000000
07FFFF0000000000
07FFFF0000000000
07FFFF0000000000
07FFFF0000000000
07FFFF0000000000
07FFFF0000000000
07FFFF0000000000
07FFFF0000000000
07FFFF0000000000
FFFFFFFC00000000
FFFFFFFC00000000
FFFFFFFC00000000
FFFFFFFC00000000
FFFFFFFC00000000
FFFFFFFC00000000
FFFFFFFC00000000
FFFFFFFC00000000
FFFFFFFC00000000
FFFFFFFC00000000
FFFFFFFC00000000
FFFFFFFC00000000
FFFFFFFC00000000
FFFFFFFC00000000
FFFFFFFC00000000
FFFFFFFC00000000
FFFFFFFC00000000
FFFFFFFC00000000
FFFFFFFC00000000
FFFFFFFC00000000
FFFFFFFC00000000
ENDCHAR
STARTCHAR 0071
ENCODING 113
SWIDTH 750 0
DWIDTH 72 0
BBX 69 93 1 3
BITMAP
0007FFFFFFFFF00000
000FFFFFFFFFF80000
001FFFFFFFFFFC0000
001FFFFFFFFFFE0000
003FFFFFFFFFFF0000
007FFFFFFFFFFF8000
00FFFFFFFFFFFFC000
01FFFFFFFFFFFFC000
03FFFFFFFFFFFFE000
03FFFFFFFFFFFFF000
07FFFFFFFFFFFFF800
0FFFFFFFFFFFFFFC00
1FFFFFFFFFFFFFFE00
3FFFFFFFFFFFFFFF00
3FFFFFFFFFFFFFFF80
7FFFFFFFFFFFFFFF80
FFFFFFFFFFFFFFFF80
FFFFFFFFFFFFFFFF80
FFFFFC00007FFFFF80
FFFFF800003FFFFF80
FFFFF000001FFFFF80
FFFFE000000FFFFF80
FFFFC0000007FFFF80
FFFFC0000007FFFF80
FFFFC0000007FFFF80
FFFFC0000007FFFF80
FFFFC0000007FFFF80
FFFFC0000007FFFF80
FFFFC0000007FFFF80
FFFFC0000007FFFF80
FFFFC0000007FFFF80
FFFFC0000007FFFF80
FFFFC0000007FFFF80
FFFFC0000007FFFF80
FFFFC0000007FFFF80
FFFFC0000007FFFF80
FFFFC0000007FFFF80
FFFFC0000007FFFF80
FFFFC0000007FFFF80
FFFFC0000007FFFF80
FFFFC0000007FFFF80
FFFFC0000007FFFF80
FFFFC0000007FFFF80
FFFFC0000007FFFF80
FFFFC0000007FFFF80
FFFFC0000007FFFF80
FFFFC0000007FFFF80
FFFFC0000007FFFF80
FFFFC0000007FFFF80
FFFFC0000007FFFF80
FFFFC0000007FFFF80
FFFFC0000007FFFF80
FFFFC0000007FFFF80
FFFFC0000007FFFF80
FFFFC0000007FFFF80
FFFFC0000007FFFF80
FFFFC0000007FFFF80
FFFFC0000007FFFF80
FFFFC0000007FFFF80
FFFFC0000007FFFF80
FFFFC0000007FFFF80
FFFFC0000007FFFF80
FFFFC0000007FFFF80
FFFFC0000007FFFF80
FFFFC0000007FFFF80
FFFFE000000FFFFF80
FFFFF000001FFFFF80
FFFFF000001FFFFF80
FFFFF800003FFFFF80
FFFFFC00007FFFFF80
FFFFFFFFFFFFFFFF80
FFFFFFFFFFFFFFFF80
FFFFFFFFFFFFFFFF80
FFFFFFFFFFFFFFFF80
FFFFFFFFFFFFFFFF80
7FFFFFFFFFFFFFFF00
3FFFFFFFFFFFFFFE00
3FFFFFFFFFFFFFFC00
1FFFFFFFFFFFFFFC00
0FFFFFFFFFFFFFFE00
07FFFFFFFFFFFFFF00
03FFFFFFFFFFFFFF80
01FFFFFFFFFFFFFFC0
01FFFFFFFFFFFFFFE0
00FFFFFFFFFFFFFFF0
007FFFFFFFFFFFFFF8
003FFFFFFFFFFEFFF8
001FFFFFFFFFFC7FF0
000FFFFFFFFFF83FE0
000FFFFFFFFFF01FC0
000000000000000F80
000000000000000700
000000000000000200
ENDCHAR
STARTCHAR 0072
ENCODING 114
SWIDTH 666 0
DWIDTH 64 0
BBX 62 89 1 6
BITMAP
FFFFFFFFFFFE0000
FFFFFFFFFFFF0000
FFFFFFFFFFFF8000
FFFFFFFFFFFFC000
FFFFFFFFFFFFE000
FFFFFFFFFFFFF000
FFFFFFFFFFFFF800
FFFFFFFFFFFFFC00
FFFFFFFFFFFFFE00
FFFFFFFFFFFFFF00
FFFFFFFFFFFFFF80
FFFFFFFFFFFFFFC0
FFFFFFFFFFFFFFE0
FFFFFFFFFFFFFFF0
FFFFFFFFFFFFFFF0
FFFFFFFFFFFFFFF0
FFFFFFFFFFFFFFF0
FFFFFFFFFFFFFFF0
FFFFFE001FFFFFF0
FFFFFE000FFFFFF0
FFFFFE0007FFFFF0
FFFFFE0003FFFFF0
0FFFFE0001FFFFF0
0FFFFE0001FFFFF0
0FFFFE0001FFFFF0
0FFFFE0001FFFFF0
0FFFFE0001FFFFF0
0FFFFE0001FFFFF0
0FFFFE0001FFFFF0
0FFFFE0001FFFFF0
0FFFFE0003FFFFF0
0FFFFE0007FFFFF0
0FFFFE000FFFFFF0
0FFFFE001FFFFFF0
0FFFFFFFFFFFFFF0
0FFFFFFFFFFFFFF0
0FFFFFFFFFFFFFF0
0FFFFFFFFFFFFFF0
0FFFFFFFFFFFFFF0
0FFFFFFFFFFFFFF0
0FFFFFFFFFFFFFF0
0FFFFFFFFFFFFFE0
0FFFFFFFFFFFFF80
0FFFFFFFFFFFFF00
0FFFFFFFFFFFFE00
0FFFFFFFFFFFFC00
0FFFFFFFFFFFF800
0FFFFFFFFFFFE000
0FFFFFFFFFFFC000
0FFFFFFFFFFFC000
0FFFFFFFFFFFC000
0FFFFFFFFFFFE000
0FFFFFFFFFFFE000
0FFFFFFFFFFFE000
0FFFFE007FFFF000
0FFFFE007FFFF000
0FFFFE003FFFF800
0FFFFE003FFFF800
0FFFFE001FFFFC00
0FFFFE001FFFFC00
0FFFFE000FFFFC00
0FFFFE000FFFFE00
0FFFFE000FFFFE00
0FFFFE0007FFFF00
0FFFFE0007FFFF00
0FFFFE0003FFFF00
0FFFFE0003FFFF80
0FFFFE0001FFFF80
FFFFFFF01FFFFFFC
FFFFFFF01FFFFFFC
FFFFFFF01FFFFFFC
FFFFFFF01FFFFFFC
FFFFFFF01FFFFFFC
FFFFFFF01FFFFFFC
FFFFFFF01FFFFFFC
FFFFFFF01FFFFFFC
FFFFFFF01FFFFFFC
FFFFFFF01FFFFFFC
FFFFFFF01FFFFFFC
FFFFFFF01FFFFFFC
FFFFFFF01FFFFFFC
FFFFFFF01FFFFFFC
FFFFFFF01FFFFFFC
FFFFFFF01FFFFFFC
FFFFFFF01FFFFFFC
FFFFFFF01FFFFFFC
FFFFFFF01FFFFFFC
FFFFFFF01FFFFFFC
FFFFFFF01FFFFFFC
ENDCHAR
STARTCHAR 0073
ENCODING 115
SWIDTH 645 0
DWIDTH 62 0
BBX 60 90 0 6
BITMAP
0003FFFFFFFE0000
0007FFFFFFFF0000
000FFFFFFFFF8000
001FFFFFFFFFC000
003FFFFFFFFFE000
007FFFFFFFFFF000
007FFFFFFFFFF800
00FFFFFFFFFFFC00
01FFFFFFFFFFFE00
03FFFFFFFFFFFF00
07FFFFFFFFFFFF80
0FFFFFFFFFFFFFC0
1FFFFFFFFFFFFFE0
1FFFFFFFFFFFFFF0
3FFFFFFFFFFFFFF0
7FFFFFFFFFFFFFF0
FFFFFFFFFFFFFFF0
FFFFFE0000FFFFF0
FFFFFC0000FFFFF0
FFFFF800007FFFF0
FFFFF000003FFFF0
FFFFF000003FFFF0
FFFFF000003FFFF0
FFFFF000003FFFF0
FFFFF000003FFFF0
FFFFF000003FFFF0
FFFFF000003FFFF0
FFFFF000003FFFF0
FFFFF000003FFFF0
FFFFF000003FFFF0
FFFFF00000000000
FFFFF00000000000
FFFFF00000000000
FFFFF00000000000
FFFFF00000000000
FFFFF80000000000
FFFFFC0000000000
FFFFFFFFFFFFE000
FFFFFFFFFFFFF000
7FFFFFFFFFFFF800
3FFFFFFFFFFFFC00
1FFFFFFFFFFFFC00
0FFFFFFFFFFFFE00
07FFFFFFFFFFFF00
03FFFFFFFFFFFF80
03FFFFFFFFFFFFC0
01FFFFFFFFFFFFE0
00FFFFFFFFFFFFF0
007FFFFFFFFFFFF0
003FFFFFFFFFFFF0
001FFFFFFFFFFFF0
000FFFFFFFFFFFF0
0000000000FFFFF0
00000000007FFFF0
00000000007FFFF0
00000000003FFFF0
00000000003FFFF0
00000000003FFFF0
00000000003FFFF0
00000000003FFFF0
FFFFE000003FFFF0
FFFFE000003FFFF0
FFFFE000003FFFF0
FFFFE000003FFFF0
FFFFE000003FFFF0
FFFFE000003FFFF0
FFFFE000003FFFF0
FFFFE000003FFFF0
FFFFE000003FFFF0
FFFFF000003FFFF0
FFFFF800007FFFF0
FFFFFC00007FFFF0
FFFFFE0000FFFFF0
FFFFFFFFFFFFFFF0
FFFFFFFFFFFFFFF0
FFFFFFFFFFFFFFF0
FFFFFFFFFFFFFFF0
7FFFFFFFFFFFFFE0
3FFFFFFFFFFFFFC0
1FFFFFFFFFFFFF80
0FFFFFFFFFFFFF00
07FFFFFFFFFFFE00
03FFFFFFFFFFFC00
01FFFFFFFFFFF800
00FFFFFFFFFFF000
007FFFFFFFFFE000
001FFFFFFFFFC000
000FFFFFFFFF8000
0007FFFFFFFF0000
0003FFFFFFFE0000
ENDCHAR
STARTCHAR 0074
ENCODING 116
SWIDTH 322 0
DWIDTH 31 0
BBX 63 90 -16 5
BITMAP
FFFFFFFFFFFFFFFE
FFFFFFFFFFFFFFFE
FFFFFFFFFFFFFFFE
FFFFFFFFFFFFFFFE
FFFFFFFFFFFFFFFE
FFFFFFFFFFFFFFFE
FFFFFFFFFFFFFFFE
FFFFFFFFFFFFFFFE
FFFFFFFFFFFFFFFE
FFFFFFFFFFFFFFFE
FFFFFFFFFFFFFFFE
FFFFFFFFFFFFFFFE
FFFFFFFFFFFFFFFE
FFFFFFFFFFFFFFFE
FFFFFFFFFFFFFFFE
FFFFFFFFFFFFFFFE
FFFFFFFFFFFFFFFE
FFFFFFFFFFFFFFFE
FFFFFFFFFFFFFFFE
FFFFFFFFFFFFFFFE
FFFFFFFFFFFFFFFE
FFFFFFFFFFFFFFFE
FFFFFFFFFFFFFFFE
FFFFC3FFFF0FFFFE
FFFFC3FFFF0FFFFE
FFFFC3FFFF0FFFFE
FFFFC3FFFF0FFFFE
FFFFC3FFFF0FFFFE
000003FFFF000000
000003FFFF000000
000003FFFF000000
000003FFFF000000
000003FFFF000000
000003FFFF000000
000003FFFF000000
000003FFFF000000
000003FFFF000000
000003FFFF000000
000003FFFF000000
000003FFFF000000
000003FFFF000000
000003FFFF000000
000003FFFF000000
000003FFFF000000
000003FFFF000000
000003FFFF000000
000003FFFF000000
000003FFFF000000
000003FFFF000000
000003FFFF000000
000003FFFF000000
000003FFFF000000
000003FFFF000000
000003FFFF000000
000003FFFF000000
000003FFFF000000
000003FFFF000000
000003FFFF000000
000003FFFF000000
000003FFFF000000
000003FFFF000000
000003FFFF000000
000003FFFF000000
000003FFFF000000
000003FFFF000000
000003FFFF000000
000003FFFF000000
000003FFFF000000
000003FFFF000000
0000FFFFFFFC0000
0000FFFFFFFC0000
0000FFFFFFFC0000
0000FFFFFFFC0000
0000FFFFFFFC0000
0000FFFFFFFC0000
0000FFFFFFFC0000
0000FFFFFFFC0000
0000FFFFFFFC0000
0000FFFFFFFC0000
0000FFFFFFFC0000
0000FFFFFFFC0000
0000FFFFFFFC0000
0000FFFFFFFC0000
0000FFFFFFFC0000
0000FFFFFFFC0000
0000FFFFFFFC0000
0000FFFFFFFC0000
0000FFFFFFFC0000
0000FFFFFFFC0000
0000FFFFFFFC0000
ENDCHAR
STARTCHAR 0075
ENCODING 117
SWIDTH 656 0
DWIDTH 63 0
BBX 72 90 -5 5
BITMAP
FFFFFFFC003FFFFFFF
FFFFFFFC003FFFFFFF
FFFFFFFC003FFFFFFF
FFFFFFFC003FFFFFFF
FFFFFFFC003FFFFFFF
FFFFFFFC003FFFFFFF
FFFFFFFC003FFFFFFF
FFFFFFFC003FFFFFFF
FFFFFFFC003FFFFFFF
FFFFFFFC003FFFFFFF
FFFFFFFC003FFFFFFF
FFFFFFFC003FFFFFFF
FFFFFFFC003FFFFFFF
FFFFFFFC003FFFFFFF
FFFFFFFC003FFFFFFF
FFFFFFFC003FFFFFFF
FFFFFFFC003FFFFFFF
FFFFFFFC003FFFFFFF
FFFFFFFC003FFFFFFF
FFFFFFFC003FFFFFFF
FFFFFFFC003FFFFFFF
FFFFFFFC003FFFFFFF
07FFFF800001FFFFF0
07FFFF800001FFFFF0
07FFFF800001FFFFF0
07FFFF800001FFFFF0
07FFFF800001FFFFF0
07FFFF800001FFFFF0
07FFFF800001FFFFF0
07FFFF800001FFFFF0
07FFFF800001FFFFF0
07FFFF800001FFFFF0
07FFFF800001FFFFF0
07FFFF800001FFFFF0
07FFFF800001FFFFF0
07FFFF800001FFFFF0
07FFFF800001FFFFF0
07FFFF800001FFFFF0
07FFFF800001FFFFF0
07FFFF800001FFFFF0
07FFFF800001FFFFF0
07FFFF800001FFFFF0
07FFFF800001FFFFF0
07FFFF800001FFFFF0
07FFFF800001FFFFF0
07FFFF800001FFFFF0
07FFFF800001FFFFF0
07FFFF800001FFFFF0
07FFFF800001FFFFF0
07FFFF800001FFFFF0
07FFFF800001FFFFF0
07FFFF800001FFFFF0
07FFFF800001FFFFF0
07FFFF800001FFFFF0
07FFFF800001FFFFF0
07FFFF800001FFFFF0
07FFFF800001FFFFF0
07FFFF800001FFFFF0
07FFFF800001FFFFF0
07FFFF800001FFFFF0
07FFFF800001FFFFF0
07FFFF800001FFFFF0
07FFFF800001FFFFF0
07FFFF800001FFFFF0
07FFFF800001FFFFF0
07FFFF800001FFFFF0
07FFFF800001FFFFF0
07FFFF800001FFFFF0
07FFFF800001FFFFF0
07FFFFFFFFFFFFFFF0
07FFFFFFFFFFFFFFF0
07FFFFFFFFFFFFFFF0
07FFFFFFFFFFFFFFF0
07FFFFFFFFFFFFFFE0
03FFFFFFFFFFFFFFE0
01FFFFFFFFFFFFFFC0
00FFFFFFFFFFFFFF80
007FFFFFFFFFFFFF00
003FFFFFFFFFFFFE00
001FFFFFFFFFFFFC00
000FFFFFFFFFFFFC00
0007FFFFFFFFFFF800
0003FFFFFFFFFFF000
0001FFFFFFFFFFE000
0000FFFFFFFFFFC000
0000FFFFFFFFFF8000
00007FFFFFFFFF8000
00003FFFFFFFFF0000
00001FFFFFFFFE0000
00000FFFFFFFFC0000
ENDCHAR
STARTCHAR 0076
ENCODING 118
SWIDTH 500 0
DWIDTH 48 0
BBX 68 90 -11 5
BITMAP
FFFFFFFE07FFFFFFF0
FFFFFFFE07FFFFFFF0
FFFFFFFE07FFFFFFF0
FFFFFFFE07FFFFFFF0
FFFFFFFE07FFFFFFF0
FFFFFFFE07FFFFFFF0
FFFFFFFE07FFFFFFF0
FFFFFFFE07FFFFFFF0
FFFFFFFE07FFFFFFF0
FFFFFFFE07FFFFFFF0
FFFFFFFE07FFFFFFF0
FFFFFFFE07FFFFFFF0
FFFFFFFE07FFFFFFF0
FFFFFFFE07FFFFFFF0
FFFFFFFE07FFFFFFF0
FFFFFFFE07FFFFFFF0
FFFFFFFE07FFFFFFF0
FFFFFFFE07FFFFFFF0
FFFFFFFE07FFFFFFF0
FFFFFFFE07FFFFFFF0
FFFFFFFE07FFFFFFF0
FFFFFFFE07FFFFFFF0
00FFFFE0007FFFF000
00FFFFE0007FFFF000
007FFFE000FFFFF000
007FFFF000FFFFF000
007FFFF000FFFFE000
007FFFF000FFFFE000
007FFFF001FFFFE000
003FFFF001FFFFE000
003FFFF801FFFFC000
003FFFF801FFFFC000
003FFFF801FFFFC000
001FFFF803FFFFC000
001FFFF803FFFF8000
001FFFFC03FFFF8000
001FFFFC03FFFF8000
000FFFFC07FFFF8000
000FFFFC07FFFF0000
000FFFFC07FFFF0000
000FFFFE07FFFF0000
0007FFFE07FFFF0000
0007FFFE0FFFFE0000
0007FFFE0FFFFE0000
0007FFFE0FFFFE0000
0003FFFF0FFFFE0000
0003FFFF1FFFFC0000
0003FFFF1FFFFC0000
0003FFFF1FFFFC0000
0001FFFF1FFFFC0000
0001FFFF9FFFF80000
0001FFFFBFFFF80000
0001FFFFBFFFF80000
0001FFFFBFFFF80000
0000FFFFBFFFF00000
0000FFFFFFFFF00000
0000FFFFFFFFF00000
0000FFFFFFFFF00000
00007FFFFFFFE00000
00007FFFFFFFE00000
00007FFFFFFFE00000
00007FFFFFFFE00000
00003FFFFFFFC00000
00003FFFFFFFC00000
00003FFFFFFFC00000
00003FFFFFFF800000
00001FFFFFFF800000
00001FFFFFFF800000
00001FFFFFFF800000
00001FFFFFFF000000
00000FFFFFFF000000
00000FFFFFFF000000
00000FFFFFFF000000
00000FFFFFFE000000
00000FFFFFFE000000
000007FFFFFE000000
000007FFFFFE000000
000007FFFFFC000000
000007FFFFFC000000
000003FFFFFC000000
000003FFFFFC000000
000003FFFFF8000000
000003FFFFF8000000
000001FFFFF8000000
000001FFFFF8000000
000001FFFFF0000000
000001FFFFF0000000
000000FFFFF0000000
000000FFFFF0000000
000000FFFFE0000000
ENDCHAR
STARTCHAR 0077
ENCODING 119
SWIDTH 750 0
DWIDTH 72 0
BBX 88 91 -9 6
BITMAP
FFFFFFF803FF801FFFFFFF
FFFFFFF807FF801FFFFFFF
FFFFFFF807FF801FFFFFFF
FFFFFFF807FFC01FFFFFFF
FFFFFFF807FFC01FFFFFFF
FFFFFFF807FFC01FFFFFFF
FFFFFFF807FFC01FFFFFFF
FFFFFFF80FFFC01FFFFFFF
FFFFFFF80FFFE01FFFFFFF
FFFFFFF80FFFE01FFFFFFF
FFFFFFF80FFFE01FFFFFFF
FFFFFFF80FFFE01FFFFFFF
FFFFFFF80FFFE01FFFFFFF
FFFFFFF81FFFF01FFFFFFF
FFFFFFF81FFFF01FFFFFFF
FFFFFFF81FFFF01FFFFFFF
FFFFFFF81FFFF01FFFFFFF
FFFFFFF81FFFF01FFFFFFF
FFFFFFF81FFFF01FFFFFFF
FFFFFFF83FFFF81FFFFFFF
FFFFFFF83FFFF81FFFFFFF
FFFFFFF83FFFF81FFFFFFF
FFFFFFF83FFFF81FFFFFFF
03FFFF003FFFF801FFFFC0
03FFFF003FFFFC01FFFFC0
03FFFF807FFFFC01FFFFC0
01FFFF807FFFFC01FFFF80
01FFFF807FFFFC01FFFF80
01FFFF807FFFFC03FFFF80
01FFFFC07FFFFE03FFFF80
01FFFFC0FFFFFE03FFFF80
00FFFFC0FFFFFE03FFFF00
00FFFFC0FFFFFE07FFFF00
00FFFFC0FFFFFE07FFFF00
00FFFFE0FFFFFF07FFFF00
00FFFFE0FFFFFF07FFFF00
00FFFFE1FFFFFF07FFFE00
007FFFE1FFFFFF0FFFFE00
007FFFF1FFFFFF0FFFFE00
007FFFF1FFFFFF8FFFFE00
007FFFF1FFFFFF8FFFFE00
007FFFF1FFFFFF9FFFFC00
003FFFFBFFFFFF9FFFFC00
003FFFFBFFFFFF9FFFFC00
003FFFFBFFFFFFDFFFFC00
003FFFFBFFFFFFDFFFFC00
003FFFFBFFFFFFFFFFFC00
001FFFFFFFFFFFFFFFF800
001FFFFFFFFFFFFFFFF800
001FFFFFFFFFFFFFFFF800
001FFFFFFFFFFFFFFFF800
001FFFFFFFFFFFFFFFF800
000FFFFFFFFFFFFFFFF000
000FFFFFFFFFFFFFFFF000
000FFFFFFFFFFFFFFFF000
000FFFFFFFFFFFFFFFF000
000FFFFFFFFFFFFFFFF000
0007FFFFFFEFFFFFFFE000
0007FFFFFFEFFFFFFFE000
0007FFFFFFEFFFFFFFE000
0007FFFFFFCFFFFFFFE000
0007FFFFFFC7FFFFFFE000
0003FFFFFFC7FFFFFFC000
0003FFFFFFC7FFFFFFC000
0003FFFFFFC7FFFFFFC000
0003FFFFFF87FFFFFFC000
0003FFFFFF83FFFFFFC000
0001FFFFFF83FFFFFF8000
0001FFFFFF83FFFFFF8000
0001FFFFFF83FFFFFF8000
0001FFFFFF83FFFFFF8000
0001FFFFFF01FFFFFF8000
0000FFFFFF01FFFFFF0000
0000FFFFFF01FFFFFF0000
0000FFFFFF01FFFFFF0000
0000FFFFFF00FFFFFF0000
0000FFFFFE00FFFFFF0000
0000FFFFFE00FFFFFE0000
00007FFFFE00FFFFFE0000
00007FFFFE00FFFFFE0000
00007FFFFE007FFFFE0000
00007FFFFC007FFFFE0000
00007FFFFC007FFFFE0000
00003FFFFC007FFFFC0000
00003FFFFC007FFFFC0000
00003FFFFC003FFFFC0000
00003FFFFC003FFFFC0000
00003FFFF8003FFFFC0000
00001FFFF8003FFFF80000
00001FFFF8001FFFF80000
00001FFFF8001FFFF80000
ENDCHAR
STARTCHAR 0078
ENCODING 120
SWIDTH 729 0
DWIDTH 70 0
BBX 68 90 0 5
BITMAP
FFFFFFFC0FFFFFFFF0
FFFFFFFC0FFFFFFFF0
FFFFFFFC0FFFFFFFF0
FFFFFFFC0FFFFFFFF0
FFFFFFFC0FFFFFFFF0
FFFFFFFC0FFFFFFFF0
FFFFFFFC0FFFFFFFF0
FFFFFFFC0FFFFFFFF0
FFFFFFFC0FFFFFFFF0
FFFFFFFC0FFFFFFFF0
FFFFFFFC0FFFFFFFF0
FFFFFFFC0FFFFFFFF0
FFFFFFFC0FFFFFFFF0
FFFFFFFC0FFFFFFFF0
FFFFFFFC0FFFFFFFF0
FFFFFFFC0FFFFFFFF0
FFFFFFFC0FFFFFFFF0
FFFFFFFC0FFFFFFFF0
FFFFFFFC0FFFFFFFF0
FFFFFFFC0FFFFFFFF0
FFFFFFFC0FFFFFFFF0
FFFFFFFC0FFFFFFFF0
03FFFF80001FFFF800
01FFFF80003FFFF800
01FFFFC0007FFFF000
00FFFFE000FFFFE000
007FFFE000FFFFE000
007FFFF001FFFFC000
003FFFF803FFFF8000
001FFFF803FFFF0000
001FFFFC07FFFF0000
000FFFFE0FFFFE0000
000FFFFE1FFFFC0000
0007FFFF1FFFFC0000
0003FFFFBFFFF80000
0003FFFFFFFFF00000
0001FFFFFFFFE00000
0000FFFFFFFFE00000
0000FFFFFFFFC00000
00007FFFFFFF800000
00003FFFFFFF800000
00003FFFFFFF000000
00001FFFFFFE000000
00000FFFFFFC000000
00000FFFFFFC000000
00000FFFFFFC000000
00001FFFFFFE000000
00001FFFFFFF000000
00003FFFFFFF000000
00007FFFFFFF800000
00007FFFFFFFC00000
0000FFFFFFFFC00000
0000FFFFFFFFE00000
0001FFFFFFFFF00000
0003FFFFFFFFF00000
0003FFFFBFFFF80000
0007FFFF3FFFF80000
0007FFFF1FFFFC0000
000FFFFE0FFFFE0000
001FFFFC0FFFFE0000
001FFFFC07FFFF0000
003FFFF803FFFF8000
003FFFF803FFFF8000
007FFFF001FFFFC000
00FFFFE000FFFFE000
00FFFFE0007FFFE000
01FFFFC0007FFFF000
01FFFF80003FFFF800
03FFFF80001FFFF800
FFFFFFFC0FFFFFFFF0
FFFFFFFC0FFFFFFFF0
FFFFFFFC0FFFFFFFF0
FFFFFFFC0FFFFFFFF0
FFFFFFFC0FFFFFFFF0
FFFFFFFC0FFFFFFFF0
FFFFFFFC0FFFFFFFF0
FFFFFFFC0FFFFFFFF0
FFFFFFFC0FFFFFFFF0
FFFFFFFC0FFFFFFFF0
FFFFFFFC0FFFFFFFF0
FFFFFFFC0FFFFFFFF0
FFFFFFFC0FFFFFFFF0
FFFFFFFC0FFFFFFFF0
FFFFFFFC0FFFFFFFF0
FFFFFFFC0FFFFFFFF0
FFFFFFFC0FFFFFFFF0
FFFFFFFC0FFFFFFFF0
FFFFFFFC0FFFFFFFF0
FFFFFFFC0FFFFFFFF0
FFFFFFFC0FFFFFFFF0
ENDCHAR
STARTCHAR 0079
ENCODING 121
SWIDTH 406 0
DWIDTH 39 0
BBX 63 90 -12 6
BITMAP
FFFFFFF07FFFFFFE
FFFFFFF07FFFFFFE
FFFFFFF07FFFFFFE
FFFFFFF07FFFFFFE
FFFFFFF07FFFFFFE
FFFFFFF07FFFFFFE
FFFFFFF07FFFFFFE
FFFFFFF07FFFFFFE
FFFFFFF07FFFFFFE
FFFFFFF07FFFFFFE
FFFFFFF07FFFFFFE
FFFFFFF07FFFFFFE
FFFFFFF07FFFFFFE
FFFFFFF07FFFFFFE
FFFFFFF07FFFFFFE
FFFFFFF07FFFFFFE
FFFFFFF07FFFFFFE
FFFFFFF07FFFFFFE
FFFFFFF07FFFFFFE
FFFFFFF07FFFFFFE
FFFFFFF07FFFFFFE
FFFFFFF07FFFFFFE
03FFFF800FFFFF00
03FFFFC00FFFFF00
01FFFFC00FFFFE00
01FFFFE01FFFFE00
00FFFFE01FFFFC00
00FFFFF03FFFFC00
007FFFF03FFFF800
007FFFF07FFFF800
003FFFF87FFFF000
003FFFF8FFFFF000
001FFFFCFFFFE000
001FFFFDFFFFE000
000FFFFFFFFFC000
000FFFFFFFFFC000
0007FFFFFFFF8000
0007FFFFFFFF8000
0003FFFFFFFF0000
0003FFFFFFFF0000
0001FFFFFFFF0000
0001FFFFFFFE0000
0000FFFFFFFE0000
0000FFFFFFFC0000
00007FFFFFFC0000
00007FFFFFF80000
00003FFFFFF80000
00003FFFFFF00000
00003FFFFFF00000
00001FFFFFE00000
00001FFFFFE00000
00000FFFFFC00000
00000FFFFFC00000
000007FFFF800000
000007FFFF800000
000007FFFF800000
000007FFFF800000
000007FFFF800000
000007FFFF800000
000007FFFF800000
000007FFFF800000
000007FFFF800000
000007FFFF800000
000007FFFF800000
000007FFFF800000
000007FFFF800000
000007FFFF800000
000007FFFF800000
0001FFFFFFFE0000
0001FFFFFFFE0000
0001FFFFFFFE0000
0001FFFFFFFE0000
0001FFFFFFFE0000
0001FFFFFFFE0000
0001FFFFFFFE0000
0001FFFFFFFE0000
0001FFFFFFFE0000
0001FFFFFFFE0000
0001FFFFFFFE0000
0001FFFFFFFE0000
0001FFFFFFFE0000
0001FFFFFFFE0000
0001FFFFFFFE0000
0001FFFFFFFE0000
0001FFFFFFFE0000
0001FFFFFFFE0000
0001FFFFFFFE0000
0001FFFFFFFE0000
0001FFFFFFFE0000
0001FFFFFFFE0000
ENDCHAR
STARTCHAR 007A
ENCODING 122
SWIDTH 687 0
DWIDTH 66 0
BBX 64 91 1 6
BITMAP
FFFFFFFFFFFFFFFE
FFFFFFFFFFFFFFFE
FFFFFFFFFFFFFFFE
FFFFFFFFFFFFFFFE
FFFFFFFFFFFFFFFE
FFFFFFFFFFFFFFFE
FFFFFFFFFFFFFFFE
FFFFFFFFFFFFFFFE
FFFFFFFFFFFFFFFE
FFFFFFFFFFFFFFFE
FFFFFFFFFFFFFFFE
FFFFFFFFFFFFFFFE
FFFFFFFFFFFFFFFE
FFFFFFFFFFFFFFFE
FFFFFFFFFFFFFFFE
FFFFFFFFFFFFFFFE
FFFFFFFFFFFFFFFE
FFFFFFFFFFFFFFFE
FFFFFFFFFFFFFFFE
FFFFFFFFFFFFFFFE
FFFFFFFFFFFFFFFE
FFFFFFFFFFFFFFFE
FFFFFFFFFFFFFFFE
FFFF000007FFFFFC
FFFF00000FFFFFF8
FFFF00001FFFFFF0
FFFF00003FFFFFE0
000000003FFFFFE0
000000007FFFFFC0
00000000FFFFFF80
00000001FFFFFF00
00000003FFFFFE00
00000003FFFFFE00
00000007FFFFFC00
0000000FFFFFF800
0000001FFFFFF000
0000003FFFFFE000
0000007FFFFFE000
0000007FFFFFC000
000000FFFFFF8000
000001FFFFFF0000
000003FFFFFE0000
000007FFFFFE0000
000007FFFFFC0000
00000FFFFFF80000
00001FFFFFF00000
00003FFFFFE00000
00007FFFFFC00000
00007FFFFFC00000
0000FFFFFF800000
0001FFFFFF000000
0003FFFFFE000000
0007FFFFFC000000
0007FFFFFC000000
000FFFFFF8000000
001FFFFFF0000000
003FFFFFE0000000
007FFFFFC0000000
00FFFFFFC0000000
00FFFFFF80000000
01FFFFFF00000000
03FFFFFE00000000
07FFFFFC00000000
0FFFFFFC00000000
0FFFFFF80007FFFF
1FFFFFF00007FFFF
3FFFFFE00007FFFF
7FFFFFC00007FFFF
FFFFFFC00007FFFF
FFFFFFFFFFFFFFFF
FFFFFFFFFFFFFFFF
FFFFFFFFFFFFFFFF
FFFFFFFFFFFFFFFF
FFFFFFFFFFFFFFFF
FFFFFFFFFFFFFFFF
FFFFFFFFFFFFFFFF
FFFFFFFFFFFFFFFF
FFFFFFFFFFFFFFFF
FFFFFFFFFFFFFFFF
FFFFFFFFFFFFFFFF
FFFFFFFFFFFFFFFF
FFFFFFFFFFFFFFFF
FFFFFFFFFFFFFFFF
FFFFFFFFFFFFFFFF
FFFFFFFFFFFFFFFF
FFFFFFFFFFFFFFFF
FFFFFFFFFFFFFFFF
FFFFFFFFFFFFFFFF
FFFFFFFFFFFFFFFF
FFFFFFFFFFFFFFFF
FFFFFFFFFFFFFFFF
ENDCHAR
STARTCHAR 007B
ENCODING 123
SWIDTH 500 0
DWIDTH 48 0
BBX 0 0 0 0
BITMAP
ENDCHAR
STARTCHAR 007C
ENCODING 124
SWIDTH 500 0
DWIDTH 48 0
BBX 0 0 0 0
BITMAP
ENDCHAR
STARTCHAR 007D
ENCODING 125
SWIDTH 500 0
DWIDTH 48 0
BBX 0 0 0 0
BITMAP
ENDCHAR
STARTCHAR 007E
ENCODING 126
SWIDTH 500 0
DWIDTH 48 0
BBX 0 0 0 0
BITMAP
ENDCHAR
STARTCHAR 00A0
ENCODING 160
SWIDTH 31 0
DWIDTH 3 0
BBX 0 0 0 0
BITMAP
ENDCHAR
STARTCHAR 00A1
ENCODING 161
SWIDTH 500 0
DWIDTH 48 0
BBX 0 0 0 0
BITMAP
ENDCHAR
STARTCHAR 00A2
ENCODING 162
SWIDTH 500 0
DWIDTH 48 0
BBX 0 0 0 0
BITMAP
ENDCHAR
STARTCHAR 00A3
ENCODING 163
SWIDTH 500 0
DWIDTH 48 0
BBX 0 0 0 0
BITMAP
ENDCHAR
STARTCHAR 00A4
ENCODING 164
SWIDTH 500 0
DWIDTH 48 0
BBX 0 0 0 0
BITMAP
ENDCHAR
STARTCHAR 00A5
ENCODING 165
SWIDTH 500 0
DWIDTH 48 0
BBX 0 0 0 0
BITMAP
ENDCHAR
STARTCHAR 00A6
ENCODING 166
SWIDTH 500 0
DWIDTH 48 0
BBX 0 0 0 0
BITMAP
ENDCHAR
STARTCHAR 00A7
ENCODING 167
SWIDTH 500 0
DWIDTH 48 0
BBX 0 0 0 0
BITMAP
ENDCHAR
STARTCHAR 00A8
ENCODING 168
SWIDTH 500 0
DWIDTH 48 0
BBX 0 0 0 0
BITMAP
ENDCHAR
STARTCHAR 00A9
ENCODING 169
SWIDTH 500 0
DWIDTH 48 0
BBX 0 0 0 0
BITMAP
ENDCHAR
STARTCHAR 00AA
ENCODING 170
SWIDTH 500 0
DWIDTH 48 0
BBX 0 0 0 0
BITMAP
ENDCHAR
STARTCHAR 00AB
ENCODING 171
SWIDTH 500 0
DWIDTH 48 0
BBX 0 0 0 0
BITMAP
ENDCHAR
STARTCHAR 00AC
ENCODING 172
SWIDTH 500 0
DWIDTH 48 0
BBX 0 0 0 0
BITMAP
ENDCHAR
STARTCHAR 00AD
ENCODING 173
SWIDTH 500 0
DWIDTH 48 0
BBX 0 0 0 0
BITMAP
ENDCHAR
STARTCHAR 00AE
ENCODING 174
SWIDTH 500 0
DWIDTH 48 0
BBX 0 0 0 0
BITMAP
ENDCHAR
STARTCHAR 00AF
ENCODING 175
SWIDTH 31 0
DWIDTH 3 0
BBX 0 0 0 0
BITMAP
ENDCHAR
STARTCHAR 00B0
ENCODING 176
SWIDTH 500 0
DWIDTH 48 0
BBX 0 0 0 0
BITMAP
ENDCHAR
STARTCHAR 00B1
ENCODING 177
SWIDTH 500 0
DWIDTH 48 0
BBX 0 0 0 0
BITMAP
ENDCHAR
STARTCHAR 00B2
ENCODING 178
SWIDTH 500 0
DWIDTH 48 0
BBX 0 0 0 0
BITMAP
ENDCHAR
STARTCHAR 00B3
ENCODING 179
SWIDTH 500 0
DWIDTH 48 0
BBX 0 0 0 0
BITMAP
ENDCHAR
STARTCHAR 00B4
ENCODING 180
SWIDTH 500 0
DWIDTH 48 0
BBX 0 0 0 0
BITMAP
ENDCHAR
STARTCHAR 00B5
ENCODING 181
SWIDTH 500 0
DWIDTH 48 0
BBX 0 0 0 0
BITMAP
ENDCHAR
STARTCHAR 00B6
ENCODING 182
SWIDTH 500 0
DWIDTH 48 0
BBX 0 0 0 0
BITMAP
ENDCHAR
STARTCHAR 00B7
ENCODING 183
SWIDTH 31 0
DWIDTH 3 0
BBX 0 0 0 0
BITMAP
ENDCHAR
STARTCHAR 00B8
ENCODING 184
SWIDTH 500 0
DWIDTH 48 0
BBX 0 0 0 0
BITMAP
ENDCHAR
STARTCHAR 00B9
ENCODING 185
SWIDTH 500 0
DWIDTH 48 0
BBX 0 0 0 0
BITMAP
ENDCHAR
STARTCHAR 00BA
ENCODING 186
SWIDTH 500 0
DWIDTH 48 0
BBX 0 0 0 0
BITMAP
ENDCHAR
STARTCHAR 00BB
ENCODING 187
SWIDTH 500 0
DWIDTH 48 0
BBX 0 0 0 0
BITMAP
ENDCHAR
STARTCHAR 00BC
ENCODING 188
SWIDTH 500 0
DWIDTH 48 0
BBX 0 0 0 0
BITMAP
ENDCHAR
STARTCHAR 00BD
ENCODING 189
SWIDTH 500 0
DWIDTH 48 0
BBX 0 0 0 0
BITMAP
ENDCHAR
STARTCHAR 00BE
ENCODING 190
SWIDTH 500 0
DWIDTH 48 0
BBX 0 0 0 0
BITMAP
ENDCHAR
STARTCHAR 00BF
ENCODING 191
SWIDTH 500 0
DWIDTH 48 0
BBX 0 0 0 0
BITMAP
ENDCHAR
STARTCHAR 00C0
ENCODING 192
SWIDTH 500 0
DWIDTH 48 0
BBX 0 0 0 0
BITMAP
ENDCHAR
STARTCHAR 00C1
ENCODING 193
SWIDTH 500 0
DWIDTH 48 0
BBX 0 0 0 0
BITMAP
ENDCHAR
STARTCHAR 00C2
ENCODING 194
SWIDTH 500 0
DWIDTH 48 0
BBX 0 0 0 0
BITMAP
ENDCHAR
STARTCHAR 00C3
ENCODING 195
SWIDTH 500 0
DWIDTH 48 0
BBX 0 0 0 0
BITMAP
ENDCHAR
STARTCHAR 00C4
ENCODING 196
SWIDTH 500 0
DWIDTH 48 0
BBX 0 0 0 0
BITMAP
ENDCHAR
STARTCHAR 00C5
ENCODING 197
SWIDTH 500 0
DWIDTH 48 0
BBX 0 0 0 0
BITMAP
ENDCHAR
STARTCHAR 00C6
ENCODING 198
SWIDTH 500 0
DWIDTH 48 0
BBX 0 0 0 0
BITMAP
ENDCHAR
STARTCHAR 00C7
ENCODING 199
SWIDTH 500 0
DWIDTH 48 0
BBX 0 0 0 0
BITMAP
ENDCHAR
STARTCHAR 00C8
ENCODING 200
SWIDTH 500 0
DWIDTH 48 0
BBX 0 0 0 0
BITMAP
ENDCHAR
STARTCHAR 00C9
ENCODING 201
SWIDTH 500 0
DWIDTH 48 0
BBX 0 0 0 0
BITMAP
ENDCHAR
STARTCHAR 00CA
ENCODING 202
SWIDTH 500 0
DWIDTH 48 0
BBX 0 0 0 0
BITMAP
ENDCHAR
STARTCHAR 00CB
ENCODING 203
SWIDTH 500 0
DWIDTH 48 0
BBX 0 0 0 0
BITMAP
ENDCHAR
STARTCHAR 00CC
ENCODING 204
SWIDTH 500 0
DWIDTH 48 0
BBX 0 0 0 0
BITMAP
ENDCHAR
STARTCHAR 00CD
ENCODING 205
SWIDTH 500 0
DWIDTH 48 0
BBX 0 0 0 0
BITMAP
ENDCHAR
STARTCHAR 00CE
ENCODING 206
SWIDTH 500 0
DWIDTH 48 0
BBX 0 0 0 0
BITMAP
ENDCHAR
STARTCHAR 00CF
ENCODING 207
SWIDTH 500 0
DWIDTH 48 0
BBX 0 0 0 0
BITMAP
ENDCHAR
STARTCHAR 00D0
ENCODING 208
SWIDTH 500 0
DWIDTH 48 0
BBX 0 0 0 0
BITMAP
ENDCHAR
STARTCHAR 00D1
ENCODING 209
SWIDTH 500 0
DWIDTH 48 0
BBX 0 0 0 0
BITMAP
ENDCHAR
STARTCHAR 00D2
ENCODING 210
SWIDTH 31 0
DWIDTH 3 0
BBX 0 0 0 0
BITMAP
ENDCHAR
STARTCHAR 00D3
ENCODING 211
SWIDTH 500 0
DWIDTH 48 0
BBX 0 0 0 0
BITMAP
ENDCHAR
STARTCHAR 00D4
ENCODING 212
SWIDTH 500 0
DWIDTH 48 0
BBX 0 0 0 0
BITMAP
ENDCHAR
STARTCHAR 00D5
ENCODING 213
SWIDTH 500 0
DWIDTH 48 0
BBX 0 0 0 0
BITMAP
ENDCHAR
STARTCHAR 00D6
ENCODING 214
SWIDTH 500 0
DWIDTH 48 0
BBX 0 0 0 0
BITMAP
ENDCHAR
STARTCHAR 00D7
ENCODING 215
SWIDTH 500 0
DWIDTH 48 0
BBX 0 0 0 0
BITMAP
ENDCHAR
STARTCHAR 00D8
ENCODING 216
SWIDTH 500 0
DWIDTH 48 0
BBX 0 0 0 0
BITMAP
ENDCHAR
STARTCHAR 00D9
ENCODING 217
SWIDTH 500 0
DWIDTH 48 0
BBX 0 0 0 0
BITMAP
ENDCHAR
STARTCHAR 00DA
ENCODING 218
SWIDTH 500 0
DWIDTH 48 0
BBX 0 0 0 0
BITMAP
ENDCHAR
STARTCHAR 00DB
ENCODING 219
SWIDTH 500 0
DWIDTH 48 0
BBX 0 0 0 0
BITMAP
ENDCHAR
STARTCHAR 00DC
ENCODING 220
SWIDTH 500 0
DWIDTH 48 0
BBX 0 0 0 0
BITMAP
ENDCHAR
STARTCHAR 00DD
ENCODING 221
SWIDTH 31 0
DWIDTH 3 0
BBX 0 0 0 0
BITMAP
ENDCHAR
STARTCHAR 00DE
ENCODING 222
SWIDTH 500 0
DWIDTH 48 0
BBX 0 0 0 0
BITMAP
ENDCHAR
STARTCHAR 00DF
ENCODING 223
SWIDTH 500 0
DWIDTH 48 0
BBX 0 0 0 0
BITMAP
ENDCHAR
STARTCHAR 00E0
ENCODING 224
SWIDTH 500 0
DWIDTH 48 0
BBX 0 0 0 0
BITMAP
ENDCHAR
STARTCHAR 00E1
ENCODING 225
SWIDTH 500 0
DWIDTH 48 0
BBX 0 0 0 0
BITMAP
ENDCHAR
STARTCHAR 00E2
ENCODING 226
SWIDTH 500 0
DWIDTH 48 0
BBX 0 0 0 0
BITMAP
ENDCHAR
STARTCHAR 00E3
ENCODING 227
SWIDTH 500 0
DWIDTH 48 0
BBX 0 0 0 0
BITMAP
ENDCHAR
STARTCHAR 00E4
ENCODING 228
SWIDTH 500 0
DWIDTH 48 0
BBX 0 0 0 0
BITMAP
ENDCHAR
STARTCHAR 00E5
ENCODING 229
SWIDTH 500 0
DWIDTH 48 0
BBX 0 0 0 0
BITMAP
ENDCHAR
STARTCHAR 00E6
ENCODING 230
SWIDTH 500 0
DWIDTH 48 0
BBX 0 0 0 0
BITMAP
ENDCHAR
STARTCHAR 00E7
ENCODING 231
SWIDTH 500 0
DWIDTH 48 0
BBX 0 0 0 0
BITMAP
ENDCHAR
STARTCHAR 00E8
ENCODING 232
SWIDTH 500 0
DWIDTH 48 0
BBX 0 0 0 0
BITMAP
ENDCHAR
STARTCHAR 00E9
ENCODING 233
SWIDTH 500 0
DWIDTH 48 0
BBX 0 0 0 0
BITMAP
ENDCHAR
STARTCHAR 00EA
ENCODING 234
SWIDTH 500 0
DWIDTH 48 0
BBX 0 0 0 0
BITMAP
ENDCHAR
STARTCHAR 00EB
ENCODING 235
SWIDTH 500 0
DWIDTH 48 0
BBX 0 0 0 0
BITMAP
ENDCHAR
STARTCHAR 00EC
ENCODING 236
SWIDTH 500 0
DWIDTH 48 0
BBX 0 0 0 0
BITMAP
ENDCHAR
STARTCHAR 00ED
ENCODING 237
SWIDTH 500 0
DWIDTH 48 0
BBX 0 0 0 0
BITMAP
ENDCHAR
STARTCHAR 00EE
ENCODING 238
SWIDTH 500 0
DWIDTH 48 0
BBX 0 0 0 0
BITMAP
ENDCHAR
STARTCHAR 00EF
ENCODING 239
SWIDTH 500 0
DWIDTH 48 0
BBX 0 0 0 0
BITMAP
ENDCHAR
STARTCHAR 00F0
ENCODING 240
SWIDTH 500 0
DWIDTH 48 0
BBX 0 0 0 0
BITMAP
ENDCHAR
STARTCHAR 00F1
ENCODING 241
SWIDTH 500 0
DWIDTH 48 0
BBX 0 0 0 0
BITMAP
ENDCHAR
STARTCHAR 00F2
ENCODING 242
SWIDTH 500 0
DWIDTH 48 0
BBX 0 0 0 0
BITMAP
ENDCHAR
STARTCHAR 00F3
ENCODING 243
SWIDTH 500 0
DWIDTH 48 0
BBX 0 0 0 0
BITMAP
ENDCHAR
STARTCHAR 00F4
ENCODING 244
SWIDTH 500 0
DWIDTH 48 0
BBX 0 0 0 0
BITMAP
ENDCHAR
STARTCHAR 00F5
ENCODING 245
SWIDTH 500 0
DWIDTH 48 0
BBX 0 0 0 0
BITMAP
ENDCHAR
STARTCHAR 00F6
ENCODING 246
SWIDTH 500 0
DWIDTH 48 0
BBX 0 0 0 0
BITMAP
ENDCHAR
STARTCHAR 00F7
ENCODING 247
SWIDTH 500 0
DWIDTH 48 0
BBX 0 0 0 0
BITMAP
ENDCHAR
STARTCHAR 00F8
ENCODING 248
SWIDTH 500 0
DWIDTH 48 0
BBX 0 0 0 0
BITMAP
ENDCHAR
STARTCHAR 00F9
ENCODING 249
SWIDTH 500 0
DWIDTH 48 0
BBX 0 0 0 0
BITMAP
ENDCHAR
STARTCHAR 00FA
ENCODING 250
SWIDTH 500 0
DWIDTH 48 0
BBX 0 0 0 0
BITMAP
ENDCHAR
STARTCHAR 00FB
ENCODING 251
SWIDTH 500 0
DWIDTH 48 0
BBX 0 0 0 0
BITMAP
ENDCHAR
STARTCHAR 00FC
ENCODING 252
SWIDTH 500 0
DWIDTH 48 0
BBX 0 0 0 0
BITMAP
ENDCHAR
STARTCHAR 00FD
ENCODING 253
SWIDTH 31 0
DWIDTH 3 0
BBX 0 0 0 0
BITMAP
ENDCHAR
STARTCHAR 00FE
ENCODING 254
SWIDTH 500 0
DWIDTH 48 0
BBX 0 0 0 0
BITMAP
ENDCHAR
STARTCHAR 00FF
ENCODING 255
SWIDTH 500 0
DWIDTH 48 0
BBX 0 0 0 0
BITMAP
ENDCHAR
STARTCHAR 0102
ENCODING 258
SWIDTH 31 0
DWIDTH 3 0
BBX 0 0 0 0
BITMAP
ENDCHAR
STARTCHAR 0103
ENCODING 259
SWIDTH 31 0
DWIDTH 3 0
BBX 0 0 0 0
BITMAP
ENDCHAR
STARTCHAR 0104
ENCODING 260
SWIDTH 31 0
DWIDTH 3 0
BBX 0 0 0 0
BITMAP
ENDCHAR
STARTCHAR 0105
ENCODING 261
SWIDTH 31 0
DWIDTH 3 0
BBX 0 0 0 0
BITMAP
ENDCHAR
STARTCHAR 0106
ENCODING 262
SWIDTH 31 0
DWIDTH 3 0
BBX 0 0 0 0
BITMAP
ENDCHAR
STARTCHAR 0107
ENCODING 263
SWIDTH 31 0
DWIDTH 3 0
BBX 0 0 0 0
BITMAP
ENDCHAR
STARTCHAR 010C
ENCODING 268
SWIDTH 31 0
DWIDTH 3 0
BBX 0 0 0 0
BITMAP
ENDCHAR
STARTCHAR 010D
ENCODING 269
SWIDTH 31 0
DWIDTH 3 0
BBX 0 0 0 0
BITMAP
ENDCHAR
STARTCHAR 010E
ENCODING 270
SWIDTH 31 0
DWIDTH 3 0
BBX 0 0 0 0
BITMAP
ENDCHAR
STARTCHAR 010F
ENCODING 271
SWIDTH 31 0
DWIDTH 3 0
BBX 0 0 0 0
BITMAP
ENDCHAR
STARTCHAR 0110
ENCODING 272
SWIDTH 31 0
DWIDTH 3 0
BBX 0 0 0 0
BITMAP
ENDCHAR
STARTCHAR 0111
ENCODING 273
SWIDTH 31 0
DWIDTH 3 0
BBX 0 0 0 0
BITMAP
ENDCHAR
STARTCHAR 0118
ENCODING 280
SWIDTH 31 0
DWIDTH 3 0
BBX 0 0 0 0
BITMAP
ENDCHAR
STARTCHAR 0119
ENCODING 281
SWIDTH 31 0
DWIDTH 3 0
BBX 0 0 0 0
BITMAP
ENDCHAR
STARTCHAR 011A
ENCODING 282
SWIDTH 31 0
DWIDTH 3 0
BBX 0 0 0 0
BITMAP
ENDCHAR
STARTCHAR 011B
ENCODING 283
SWIDTH 31 0
DWIDTH 3 0
BBX 0 0 0 0
BITMAP
ENDCHAR
STARTCHAR 011E
ENCODING 286
SWIDTH 31 0
DWIDTH 3 0
BBX 0 0 0 0
BITMAP
ENDCHAR
STARTCHAR 011F
ENCODING 287
SWIDTH 31 0
DWIDTH 3 0
BBX 0 0 0 0
BITMAP
ENDCHAR
STARTCHAR 0130
ENCODING 304
SWIDTH 31 0
DWIDTH 3 0
BBX 0 0 0 0
BITMAP
ENDCHAR
STARTCHAR 0131
ENCODING 305
SWIDTH 500 0
DWIDTH 48 0
BBX 0 0 0 0
BITMAP
ENDCHAR
STARTCHAR 0139
ENCODING 313
SWIDTH 31 0
DWIDTH 3 0
BBX 0 0 0 0
BITMAP
ENDCHAR
STARTCHAR 013A
ENCODING 314
SWIDTH 31 0
DWIDTH 3 0
BBX 0 0 0 0
BITMAP
ENDCHAR
STARTCHAR 013D
ENCODING 317
SWIDTH 31 0
DWIDTH 3 0
BBX 0 0 0 0
BITMAP
ENDCHAR
STARTCHAR 013E
ENCODING 318
SWIDTH 31 0
DWIDTH 3 0
BBX 0 0 0 0
BITMAP
ENDCHAR
STARTCHAR 013F
ENCODING 319
SWIDTH 31 0
DWIDTH 3 0
BBX 0 0 0 0
BITMAP
ENDCHAR
STARTCHAR 0140
ENCODING 320
SWIDTH 31 0
DWIDTH 3 0
BBX 0 0 0 0
BITMAP
ENDCHAR
STARTCHAR 0141
ENCODING 321
SWIDTH 500 0
DWIDTH 48 0
BBX 0 0 0 0
BITMAP
ENDCHAR
STARTCHAR 0142
ENCODING 322
SWIDTH 500 0
DWIDTH 48 0
BBX 0 0 0 0
BITMAP
ENDCHAR
STARTCHAR 0143
ENCODING 323
SWIDTH 31 0
DWIDTH 3 0
BBX 0 0 0 0
BITMAP
ENDCHAR
STARTCHAR 0144
ENCODING 324
SWIDTH 31 0
DWIDTH 3 0
BBX 0 0 0 0
BITMAP
ENDCHAR
STARTCHAR 0147
ENCODING 327
SWIDTH 31 0
DWIDTH 3 0
BBX 0 0 0 0
BITMAP
ENDCHAR
STARTCHAR 0148
ENCODING 328
SWIDTH 31 0
DWIDTH 3 0
BBX 0 0 0 0
BITMAP
ENDCHAR
STARTCHAR 0150
ENCODING 336
SWIDTH 31 0
DWIDTH 3 0
BBX 0 0 0 0
BITMAP
ENDCHAR
STARTCHAR 0151
ENCODING 337
SWIDTH 31 0
DWIDTH 3 0
BBX 0 0 0 0
BITMAP
ENDCHAR
STARTCHAR 0152
ENCODING 338
SWIDTH 500 0
DWIDTH 48 0
BBX 0 0 0 0
BITMAP
ENDCHAR
STARTCHAR 0153
ENCODING 339
SWIDTH 500 0
DWIDTH 48 0
BBX 0 0 0 0
BITMAP
ENDCHAR
STARTCHAR 0154
ENCODING 340
SWIDTH 31 0
DWIDTH 3 0
BBX 0 0 0 0
BITMAP
ENDCHAR
STARTCHAR 0155
ENCODING 341
SWIDTH 31 0
DWIDTH 3 0
BBX 0 0 0 0
BITMAP
ENDCHAR
STARTCHAR 0158
ENCODING 344
SWIDTH 31 0
DWIDTH 3 0
BBX 0 0 0 0
BITMAP
ENDCHAR
STARTCHAR 0159
ENCODING 345
SWIDTH 31 0
DWIDTH 3 0
BBX 0 0 0 0
BITMAP
ENDCHAR
STARTCHAR 015A
ENCODING 346
SWIDTH 31 0
DWIDTH 3 0
BBX 0 0 0 0
BITMAP
ENDCHAR
STARTCHAR 015B
ENCODING 347
SWIDTH 31 0
DWIDTH 3 0
BBX 0 0 0 0
BITMAP
ENDCHAR
STARTCHAR 015E
ENCODING 350
SWIDTH 31 0
DWIDTH 3 0
BBX 0 0 0 0
BITMAP
ENDCHAR
STARTCHAR 015F
ENCODING 351
SWIDTH 31 0
DWIDTH 3 0
BBX 0 0 0 0
BITMAP
ENDCHAR
STARTCHAR 0160
ENCODING 352
SWIDTH 500 0
DWIDTH 48 0
BBX 0 0 0 0
BITMAP
ENDCHAR
STARTCHAR 0161
ENCODING 353
SWIDTH 500 0
DWIDTH 48 0
BBX 0 0 0 0
BITMAP
ENDCHAR
STARTCHAR 0162
ENCODING 354
SWIDTH 31 0
DWIDTH 3 0
BBX 0 0 0 0
BITMAP
ENDCHAR
STARTCHAR 0163
ENCODING 355
SWIDTH 31 0
DWIDTH 3 0
BBX 0 0 0 0
BITMAP
ENDCHAR
STARTCHAR 0164
ENCODING 356
SWIDTH 31 0
DWIDTH 3 0
BBX 0 0 0 0
BITMAP
ENDCHAR
STARTCHAR 0165
ENCODING 357
SWIDTH 31 0
DWIDTH 3 0
BBX 0 0 0 0
BITMAP
ENDCHAR
STARTCHAR 016E
ENCODING 366
SWIDTH 31 0
DWIDTH 3 0
BBX 0 0 0 0
BITMAP
ENDCHAR
STARTCHAR 016F
ENCODING 367
SWIDTH 31 0
DWIDTH 3 0
BBX 0 0 0 0
BITMAP
ENDCHAR
STARTCHAR 0170
ENCODING 368
SWIDTH 31 0
DWIDTH 3 0
BBX 0 0 0 0
BITMAP
ENDCHAR
STARTCHAR 0171
ENCODING 369
SWIDTH 31 0
DWIDTH 3 0
BBX 0 0 0 0
BITMAP
ENDCHAR
STARTCHAR 0178
ENCODING 376
SWIDTH 500 0
DWIDTH 48 0
BBX 0 0 0 0
BITMAP
ENDCHAR
STARTCHAR 0179
ENCODING 377
SWIDTH 31 0
DWIDTH 3 0
BBX 0 0 0 0
BITMAP
ENDCHAR
STARTCHAR 017A
ENCODING 378
SWIDTH 31 0
DWIDTH 3 0
BBX 0 0 0 0
BITMAP
ENDCHAR
STARTCHAR 017B
ENCODING 379
SWIDTH 31 0
DWIDTH 3 0
BBX 0 0 0 0
BITMAP
ENDCHAR
STARTCHAR 017C
ENCODING 380
SWIDTH 31 0
DWIDTH 3 0
BBX 0 0 0 0
BITMAP
ENDCHAR
STARTCHAR 017D
ENCODING 381
SWIDTH 500 0
DWIDTH 48 0
BBX 0 0 0 0
BITMAP
ENDCHAR
STARTCHAR 017E
ENCODING 382
SWIDTH 500 0
DWIDTH 48 0
BBX 0 0 0 0
BITMAP
ENDCHAR
STARTCHAR 0192
ENCODING 402
SWIDTH 500 0
DWIDTH 48 0
BBX 0 0 0 0
BITMAP
ENDCHAR
STARTCHAR 02BA
ENCODING 698
SWIDTH 500 0
DWIDTH 48 0
BBX 0 0 0 0
BITMAP
ENDCHAR
STARTCHAR 02C6
ENCODING 710
SWIDTH 500 0
DWIDTH 48 0
BBX 0 0 0 0
BITMAP
ENDCHAR
STARTCHAR 02C7
ENCODING 711
SWIDTH 500 0
DWIDTH 48 0
BBX 0 0 0 0
BITMAP
ENDCHAR
STARTCHAR 02C9
ENCODING 713
SWIDTH 500 0
DWIDTH 48 0
BBX 0 0 0 0
BITMAP
ENDCHAR
STARTCHAR 02D8
ENCODING 728
SWIDTH 500 0
DWIDTH 48 0
BBX 0 0 0 0
BITMAP
ENDCHAR
STARTCHAR 02D9
ENCODING 729
SWIDTH 500 0
DWIDTH 48 0
BBX 0 0 0 0
BITMAP
ENDCHAR
STARTCHAR 02DA
ENCODING 730
SWIDTH 500 0
DWIDTH 48 0
BBX 0 0 0 0
BITMAP
ENDCHAR
STARTCHAR 02DB
ENCODING 731
SWIDTH 500 0
DWIDTH 48 0
BBX 0 0 0 0
BITMAP
ENDCHAR
STARTCHAR 02DC
ENCODING 732
SWIDTH 500 0
DWIDTH 48 0
BBX 0 0 0 0
BITMAP
ENDCHAR
STARTCHAR 0393
ENCODING 915
SWIDTH 500 0
DWIDTH 48 0
BBX 0 0 0 0
BITMAP
ENDCHAR
STARTCHAR 0398
ENCODING 920
SWIDTH 500 0
DWIDTH 48 0
BBX 0 0 0 0
BITMAP
ENDCHAR
STARTCHAR 03A3
ENCODING 931
SWIDTH 500 0
DWIDTH 48 0
BBX 0 0 0 0
BITMAP
ENDCHAR
STARTCHAR 03A6
ENCODING 934
SWIDTH 500 0
DWIDTH 48 0
BBX 0 0 0 0
BITMAP
ENDCHAR
STARTCHAR 03A9
ENCODING 937
SWIDTH 500 0
DWIDTH 48 0
BBX 0 0 0 0
BITMAP
ENDCHAR
STARTCHAR 03B1
ENCODING 945
SWIDTH 500 0
DWIDTH 48 0
BBX 0 0 0 0
BITMAP
ENDCHAR
STARTCHAR 03B4
ENCODING 948
SWIDTH 500 0
DWIDTH 48 0
BBX 0 0 0 0
BITMAP
ENDCHAR
STARTCHAR 03B5
ENCODING 949
SWIDTH 500 0
DWIDTH 48 0
BBX 0 0 0 0
BITMAP
ENDCHAR
STARTCHAR 03C0
ENCODING 960
SWIDTH 500 0
DWIDTH 48 0
BBX 0 0 0 0
BITMAP
ENDCHAR
STARTCHAR 03C3
ENCODING 963
SWIDTH 31 0
DWIDTH 3 0
BBX 0 0 0 0
BITMAP
ENDCHAR
STARTCHAR 03C4
ENCODING 964
SWIDTH 500 0
DWIDTH 48 0
BBX 0 0 0 0
BITMAP
ENDCHAR
STARTCHAR 03C6
ENCODING 966
SWIDTH 31 0
DWIDTH 3 0
BBX 0 0 0 0
BITMAP
ENDCHAR
STARTCHAR 2013
ENCODING 8211
SWIDTH 500 0
DWIDTH 48 0
BBX 0 0 0 0
BITMAP
ENDCHAR
STARTCHAR 2014
ENCODING 8212
SWIDTH 500 0
DWIDTH 48 0
BBX 0 0 0 0
BITMAP
ENDCHAR
STARTCHAR 2017
ENCODING 8215
SWIDTH 500 0
DWIDTH 48 0
BBX 0 0 0 0
BITMAP
ENDCHAR
STARTCHAR 2018
ENCODING 8216
SWIDTH 500 0
DWIDTH 48 0
BBX 0 0 0 0
BITMAP
ENDCHAR
STARTCHAR 2019
ENCODING 8217
SWIDTH 31 0
DWIDTH 3 0
BBX 13 23 -3 74
BITMAP
FFF8
7FF8
7FF8
7FF8
7FF8
7FF8
3FF8
3FF8
3FF8
3FF8
3FF8
1FF8
1FF8
1FF8
1FF8
1FF8
0FF8
0FF8
0FF8
0FF8
07F8
07F8
07F8
ENDCHAR
STARTCHAR 201A
ENCODING 8218
SWIDTH 500 0
DWIDTH 48 0
BBX 0 0 0 0
BITMAP
ENDCHAR
STARTCHAR 201C
ENCODING 8220
SWIDTH 500 0
DWIDTH 48 0
BBX 0 0 0 0
BITMAP
ENDCHAR
STARTCHAR 201D
ENCODING 8221
SWIDTH 500 0
DWIDTH 48 0
BBX 0 0 0 0
BITMAP
ENDCHAR
STARTCHAR 201E
ENCODING 8222
SWIDTH 500 0
DWIDTH 48 0
BBX 0 0 0 0
BITMAP
ENDCHAR
STARTCHAR 2020
ENCODING 8224
SWIDTH 500 0
DWIDTH 48 0
BBX 0 0 0 0
BITMAP
ENDCHAR
STARTCHAR 2021
ENCODING 8225
SWIDTH 500 0
DWIDTH 48 0
BBX 0 0 0 0
BITMAP
ENDCHAR
STARTCHAR 2022
ENCODING 8226
SWIDTH 500 0
DWIDTH 48 0
BBX 0 0 0 0
BITMAP
ENDCHAR
STARTCHAR 2026
ENCODING 8230
SWIDTH 500 0
DWIDTH 48 0
BBX 0 0 0 0
BITMAP
ENDCHAR
STARTCHAR 2030
ENCODING 8240
SWIDTH 500 0
DWIDTH 48 0
BBX 0 0 0 0
BITMAP
ENDCHAR
STARTCHAR 2039
ENCODING 8249
SWIDTH 500 0
DWIDTH 48 0
BBX 0 0 0 0
BITMAP
ENDCHAR
STARTCHAR 203A
ENCODING 8250
SWIDTH 500 0
DWIDTH 48 0
BBX 0 0 0 0
BITMAP
ENDCHAR
STARTCHAR 203C
ENCODING 8252
SWIDTH 500 0
DWIDTH 48 0
BBX 0 0 0 0
BITMAP
ENDCHAR
STARTCHAR 207F
ENCODING 8319
SWIDTH 500 0
DWIDTH 48 0
BBX 0 0 0 0
BITMAP
ENDCHAR
STARTCHAR 20A3
ENCODING 8355
SWIDTH 500 0
DWIDTH 48 0
BBX 0 0 0 0
BITMAP
ENDCHAR
STARTCHAR 20A7
ENCODING 8359
SWIDTH 500 0
DWIDTH 48 0
BBX 0 0 0 0
BITMAP
ENDCHAR
STARTCHAR 2122
ENCODING 8482
SWIDTH 500 0
DWIDTH 48 0
BBX 0 0 0 0
BITMAP
ENDCHAR
STARTCHAR 2190
ENCODING 8592
SWIDTH 31 0
DWIDTH 3 0
BBX 0 0 0 0
BITMAP
ENDCHAR
STARTCHAR 2191
ENCODING 8593
SWIDTH 31 0
DWIDTH 3 0
BBX 0 0 0 0
BITMAP
ENDCHAR
STARTCHAR 2192
ENCODING 8594
SWIDTH 500 0
DWIDTH 48 0
BBX 0 0 0 0
BITMAP
ENDCHAR
STARTCHAR 2193
ENCODING 8595
SWIDTH 31 0
DWIDTH 3 0
BBX 0 0 0 0
BITMAP
ENDCHAR
STARTCHAR 2194
ENCODING 8596
SWIDTH 31 0
DWIDTH 3 0
BBX 0 0 0 0
BITMAP
ENDCHAR
STARTCHAR 2195
ENCODING 8597
SWIDTH 31 0
DWIDTH 3 0
BBX 0 0 0 0
BITMAP
ENDCHAR
STARTCHAR 21A8
ENCODING 8616
SWIDTH 31 0
DWIDTH 3 0
BBX 0 0 0 0
BITMAP
ENDCHAR
STARTCHAR 2202
ENCODING 8706
SWIDTH 500 0
DWIDTH 48 0
BBX 0 0 0 0
BITMAP
ENDCHAR
STARTCHAR 2206
ENCODING 8710
SWIDTH 500 0
DWIDTH 48 0
BBX 0 0 0 0
BITMAP
ENDCHAR
STARTCHAR 220F
ENCODING 8719
SWIDTH 31 0
DWIDTH 3 0
BBX 0 0 0 0
BITMAP
ENDCHAR
STARTCHAR 2212
ENCODING 8722
SWIDTH 500 0
DWIDTH 48 0
BBX 0 0 0 0
BITMAP
ENDCHAR
STARTCHAR 2215
ENCODING 8725
SWIDTH 500 0
DWIDTH 48 0
BBX 0 0 0 0
BITMAP
ENDCHAR
STARTCHAR 2219
ENCODING 8729
SWIDTH 500 0
DWIDTH 48 0
BBX 0 0 0 0
BITMAP
ENDCHAR
STARTCHAR 221A
ENCODING 8730
SWIDTH 500 0
DWIDTH 48 0
BBX 0 0 0 0
BITMAP
ENDCHAR
STARTCHAR 221E
ENCODING 8734
SWIDTH 31 0
DWIDTH 3 0
BBX 0 0 0 0
BITMAP
ENDCHAR
STARTCHAR 221F
ENCODING 8735
SWIDTH 31 0
DWIDTH 3 0
BBX 0 0 0 0
BITMAP
ENDCHAR
STARTCHAR 2229
ENCODING 8745
SWIDTH 31 0
DWIDTH 3 0
BBX 0 0 0 0
BITMAP
ENDCHAR
STARTCHAR 222B
ENCODING 8747
SWIDTH 31 0
DWIDTH 3 0
BBX 0 0 0 0
BITMAP
ENDCHAR
STARTCHAR 2248
ENCODING 8776
SWIDTH 500 0
DWIDTH 48 0
BBX 0 0 0 0
BITMAP
ENDCHAR
STARTCHAR 2260
ENCODING 8800
SWIDTH 500 0
DWIDTH 48 0
BBX 0 0 0 0
BITMAP
ENDCHAR
STARTCHAR 2261
ENCODING 8801
SWIDTH 31 0
DWIDTH 3 0
BBX 0 0 0 0
BITMAP
ENDCHAR
STARTCHAR 2264
ENCODING 8804
SWIDTH 500 0
DWIDTH 48 0
BBX 0 0 0 0
BITMAP
ENDCHAR
STARTCHAR 2265
ENCODING 8805
SWIDTH 500 0
DWIDTH 48 0
BBX 0 0 0 0
BITMAP
ENDCHAR
STARTCHAR 2302
ENCODING 8962
SWIDTH 31 0
DWIDTH 3 0
BBX 0 0 0 0
BITMAP
ENDCHAR
STARTCHAR 2310
ENCODING 8976
SWIDTH 31 0
DWIDTH 3 0
BBX 0 0 0 0
BITMAP
ENDCHAR
STARTCHAR 2320
ENCODING 8992
SWIDTH 31 0
DWIDTH 3 0
BBX 0 0 0 0
BITMAP
ENDCHAR
STARTCHAR 2321
ENCODING 8993
SWIDTH 31 0
DWIDTH 3 0
BBX 0 0 0 0
BITMAP
ENDCHAR
STARTCHAR 2500
ENCODING 9472
SWIDTH 31 0
DWIDTH 3 0
BBX 0 0 0 0
BITMAP
ENDCHAR
STARTCHAR 2502
ENCODING 9474
SWIDTH 31 0
DWIDTH 3 0
BBX 0 0 0 0
BITMAP
ENDCHAR
STARTCHAR 250C
ENCODING 9484
SWIDTH 31 0
DWIDTH 3 0
BBX 0 0 0 0
BITMAP
ENDCHAR
STARTCHAR 2510
ENCODING 9488
SWIDTH 31 0
DWIDTH 3 0
BBX 0 0 0 0
BITMAP
ENDCHAR
STARTCHAR 2514
ENCODING 9492
SWIDTH 31 0
DWIDTH 3 0
BBX 0 0 0 0
BITMAP
ENDCHAR
STARTCHAR 2518
ENCODING 9496
SWIDTH 31 0
DWIDTH 3 0
BBX 0 0 0 0
BITMAP
ENDCHAR
STARTCHAR 251C
ENCODING 9500
SWIDTH 31 0
DWIDTH 3 0
BBX 0 0 0 0
BITMAP
ENDCHAR
STARTCHAR 2524
ENCODING 9508
SWIDTH 31 0
DWIDTH 3 0
BBX 0 0 0 0
BITMAP
ENDCHAR
STARTCHAR 252C
ENCODING 9516
SWIDTH 31 0
DWIDTH 3 0
BBX 0 0 0 0
BITMAP
ENDCHAR
STARTCHAR 2534
ENCODING 9524
SWIDTH 31 0
DWIDTH 3 0
BBX 0 0 0 0
BITMAP
ENDCHAR
STARTCHAR 253C
ENCODING 9532
SWIDTH 31 0
DWIDTH 3 0
BBX 0 0 0 0
BITMAP
ENDCHAR
STARTCHAR 2550
ENCODING 9552
SWIDTH 31 0
DWIDTH 3 0
BBX 0 0 0 0
BITMAP
ENDCHAR
STARTCHAR 2551
ENCODING 9553
SWIDTH 31 0
DWIDTH 3 0
BBX 0 0 0 0
BITMAP
ENDCHAR
STARTCHAR 2552
ENCODING 9554
SWIDTH 31 0
DWIDTH 3 0
BBX 0 0 0 0
BITMAP
ENDCHAR
STARTCHAR 2553
ENCODING 9555
SWIDTH 31 0
DWIDTH 3 0
BBX 0 0 0 0
BITMAP
ENDCHAR
STARTCHAR 2554
ENCODING 9556
SWIDTH 31 0
DWIDTH 3 0
BBX 0 0 0 0
BITMAP
ENDCHAR
STARTCHAR 2555
ENCODING 9557
SWIDTH 31 0
DWIDTH 3 0
BBX 0 0 0 0
BITMAP
ENDCHAR
STARTCHAR 2556
ENCODING 9558
SWIDTH 31 0
DWIDTH 3 0
BBX 0 0 0 0
BITMAP
ENDCHAR
STARTCHAR 2557
ENCODING 9559
SWIDTH 31 0
DWIDTH 3 0
BBX 0 0 0 0
BITMAP
ENDCHAR
STARTCHAR 2558
ENCODING 9560
SWIDTH 31 0
DWIDTH 3 0
BBX 0 0 0 0
BITMAP
ENDCHAR
STARTCHAR 2559
ENCODING 9561
SWIDTH 31 0
DWIDTH 3 0
BBX 0 0 0 0
BITMAP
ENDCHAR
STARTCHAR 255A
ENCODING 9562
SWIDTH 31 0
DWIDTH 3 0
BBX 0 0 0 0
BITMAP
ENDCHAR
STARTCHAR 255B
ENCODING 9563
SWIDTH 31 0
DWIDTH 3 0
BBX 0 0 0 0
BITMAP
ENDCHAR
STARTCHAR 255C
ENCODING 9564
SWIDTH 31 0
DWIDTH 3 0
BBX 0 0 0 0
BITMAP
ENDCHAR
STARTCHAR 255D
ENCODING 9565
SWIDTH 31 0
DWIDTH 3 0
BBX 0 0 0 0
BITMAP
ENDCHAR
STARTCHAR 255E
ENCODING 9566
SWIDTH 31 0
DWIDTH 3 0
BBX 0 0 0 0
BITMAP
ENDCHAR
STARTCHAR 255F
ENCODING 9567
SWIDTH 31 0
DWIDTH 3 0
BBX 0 0 0 0
BITMAP
ENDCHAR
STARTCHAR 2560
ENCODING 9568
SWIDTH 31 0
DWIDTH 3 0
BBX 0 0 0 0
BITMAP
ENDCHAR
STARTCHAR 2561
ENCODING 9569
SWIDTH 31 0
DWIDTH 3 0
BBX 0 0 0 0
BITMAP
ENDCHAR
STARTCHAR 2562
ENCODING 9570
SWIDTH 31 0
DWIDTH 3 0
BBX 0 0 0 0
BITMAP
ENDCHAR
STARTCHAR 2563
ENCODING 9571
SWIDTH 31 0
DWIDTH 3 0
BBX 0 0 0 0
BITMAP
ENDCHAR
STARTCHAR 2564
ENCODING 9572
SWIDTH 31 0
DWIDTH 3 0
BBX 0 0 0 0
BITMAP
ENDCHAR
STARTCHAR 2565
ENCODING 9573
SWIDTH 31 0
DWIDTH 3 0
BBX 0 0 0 0
BITMAP
ENDCHAR
STARTCHAR 2566
ENCODING 9574
SWIDTH 31 0
DWIDTH 3 0
BBX 0 0 0 0
BITMAP
ENDCHAR
STARTCHAR 2567
ENCODING 9575
SWIDTH 31 0
DWIDTH 3 0
BBX 0 0 0 0
BITMAP
ENDCHAR
STARTCHAR 2568
ENCODING 9576
SWIDTH 31 0
DWIDTH 3 0
BBX 0 0 0 0
BITMAP
ENDCHAR
STARTCHAR 2569
ENCODING 9577
SWIDTH 31 0
DWIDTH 3 0
BBX 0 0 0 0
BITMAP
ENDCHAR
STARTCHAR 256A
ENCODING 9578
SWIDTH 31 0
DWIDTH 3 0
BBX 0 0 0 0
BITMAP
ENDCHAR
STARTCHAR 256B
ENCODING 9579
SWIDTH 31 0
DWIDTH 3 0
BBX 0 0 0 0
BITMAP
ENDCHAR
STARTCHAR 256C
ENCODING 9580
SWIDTH 31 0
DWIDTH 3 0
BBX 0 0 0 0
BITMAP
ENDCHAR
STARTCHAR 2580
ENCODING 9600
SWIDTH 31 0
DWIDTH 3 0
BBX 0 0 0 0
BITMAP
ENDCHAR
STARTCHAR 2584
ENCODING 9604
SWIDTH 31 0
DWIDTH 3 0
BBX 0 0 0 0
BITMAP
ENDCHAR
STARTCHAR 2588
ENCODING 9608
SWIDTH 31 0
DWIDTH 3 0
BBX 0 0 0 0
BITMAP
ENDCHAR
STARTCHAR 258C
ENCODING 9612
SWIDTH 31 0
DWIDTH 3 0
BBX 0 0 0 0
BITMAP
ENDCHAR
STARTCHAR 2590
ENCODING 9616
SWIDTH 31 0
DWIDTH 3 0
BBX 0 0 0 0
BITMAP
ENDCHAR
STARTCHAR 2591
ENCODING 9617
SWIDTH 31 0
DWIDTH 3 0
BBX 0 0 0 0
BITMAP
ENDCHAR
STARTCHAR 2592
ENCODING 9618
SWIDTH 31 0
DWIDTH 3 0
BBX 0 0 0 0
BITMAP
ENDCHAR
STARTCHAR 2593
ENCODING 9619
SWIDTH 31 0
DWIDTH 3 0
BBX 0 0 0 0
BITMAP
ENDCHAR
STARTCHAR 25A0
ENCODING 9632
SWIDTH 500 0
DWIDTH 48 0
BBX 0 0 0 0
BITMAP
ENDCHAR
STARTCHAR 25AC
ENCODING 9644
SWIDTH 31 0
DWIDTH 3 0
BBX 0 0 0 0
BITMAP
ENDCHAR
STARTCHAR 25B2
ENCODING 9650
SWIDTH 31 0
DWIDTH 3 0
BBX 0 0 0 0
BITMAP
ENDCHAR
STARTCHAR 25BA
ENCODING 9658
SWIDTH 31 0
DWIDTH 3 0
BBX 0 0 0 0
BITMAP
ENDCHAR
STARTCHAR 25BC
ENCODING 9660
SWIDTH 31 0
DWIDTH 3 0
BBX 0 0 0 0
BITMAP
ENDCHAR
STARTCHAR 25C4
ENCODING 9668
SWIDTH 31 0
DWIDTH 3 0
BBX 0 0 0 0
BITMAP
ENDCHAR
STARTCHAR 25CA
ENCODING 9674
SWIDTH 500 0
DWIDTH 48 0
BBX 0 0 0 0
BITMAP
ENDCHAR
STARTCHAR 25CB
ENCODING 9675
SWIDTH 31 0
DWIDTH 3 0
BBX 0 0 0 0
BITMAP
ENDCHAR
STARTCHAR 25D8
ENCODING 9688
SWIDTH 31 0
DWIDTH 3 0
BBX 0 0 0 0
BITMAP
ENDCHAR
STARTCHAR 25D9
ENCODING 9689
SWIDTH 31 0
DWIDTH 3 0
BBX 0 0 0 0
BITMAP
ENDCHAR
STARTCHAR 263A
ENCODING 9786
SWIDTH 31 0
DWIDTH 3 0
BBX 0 0 0 0
BITMAP
ENDCHAR
STARTCHAR 263B
ENCODING 9787
SWIDTH 31 0
DWIDTH 3 0
BBX 0 0 0 0
BITMAP
ENDCHAR
STARTCHAR 263C
ENCODING 9788
SWIDTH 31 0
DWIDTH 3 0
BBX 0 0 0 0
BITMAP
ENDCHAR
STARTCHAR 2640
ENCODING 9792
SWIDTH 31 0
DWIDTH 3 0
BBX 0 0 0 0
BITMAP
ENDCHAR
STARTCHAR 2642
ENCODING 9794
SWIDTH 31 0
DWIDTH 3 0
BBX 0 0 0 0
BITMAP
ENDCHAR
STARTCHAR 2660
ENCODING 9824
SWIDTH 31 0
DWIDTH 3 0
BBX 0 0 0 0
BITMAP
ENDCHAR
STARTCHAR 2663
ENCODING 9827
SWIDTH 31 0
DWIDTH 3 0
BBX 0 0 0 0
BITMAP
ENDCHAR
STARTCHAR 2665
ENCODING 9829
SWIDTH 31 0
DWIDTH 3 0
BBX 0 0 0 0
BITMAP
ENDCHAR
STARTCHAR 2666
ENCODING 9830
SWIDTH 31 0
DWIDTH 3 0
BBX 0 0 0 0
BITMAP
ENDCHAR
STARTCHAR 266A
ENCODING 9834
SWIDTH 31 0
DWIDTH 3 0
BBX 0 0 0 0
BITMAP
ENDCHAR
STARTCHAR 266B
ENCODING 9835
SWIDTH 31 0
DWIDTH 3 0
BBX 0 0 0 0
BITMAP
ENDCHAR
STARTCHAR F000
ENCODING 61440
SWIDTH 31 0
DWIDTH 3 0
BBX 0 0 0 0
BITMAP
ENDCHAR
STARTCHAR F001
ENCODING 61441
SWIDTH 500 0
DWIDTH 48 0
BBX 0 0 0 0
BITMAP
ENDCHAR
STARTCHAR F002
ENCODING 61442
SWIDTH 500 0
DWIDTH 48 0
BBX 0 0 0 0
BITMAP
ENDCHAR
ENDFONT
